STARTFONT 2.1
FONT -TakWolf-Ark Pixel 16px Proportional ko-Regular-R-Normal-Sans Serif-16-160-75-75-P-135-ISO10646-1
SIZE 16 75 75
FONTBOUNDINGBOX 16 24 0 -6
STARTPROPERTIES 22
FOUNDRY "TakWolf"
FAMILY_NAME "Ark Pixel 16px Proportional ko"
WEIGHT_NAME "Regular"
SLANT "R"
SETWIDTH_NAME "Normal"
ADD_STYLE_NAME "Sans Serif"
PIXEL_SIZE 16
POINT_SIZE 160
RESOLUTION_X 75
RESOLUTION_Y 75
SPACING "P"
AVERAGE_WIDTH 135
CHARSET_REGISTRY "ISO10646"
CHARSET_ENCODING "1"
DEFAULT_CHAR 65534
FONT_ASCENT 18
FONT_DESCENT 6
X_HEIGHT 8
CAP_HEIGHT 11
FONT_VERSION "2024.05.12"
COPYRIGHT "Copyright (c) 2021, TakWolf (https://takwolf.com), with Reserved Font Name 'Ark Pixel'."
LICENSE "This Font Software is licensed under the SIL Open Font License, Version 1.1."
ENDPROPERTIES
CHARS 2355
STARTCHAR 0020
ENCODING 32
SWIDTH 500 0
DWIDTH 8 0
BBX 8 24 0 -6
BITMAP
00
00
00
00
00
00
00
00
00
00
00
00
00
00
00
00
00
00
00
00
00
00
00
00
ENDCHAR
STARTCHAR 0021
ENCODING 33
SWIDTH 438 0
DWIDTH 7 0
BBX 7 24 0 -6
BITMAP
00
00
00
00
00
00
00
10
38
38
38
10
10
10
10
00
00
10
00
00
00
00
00
00
ENDCHAR
STARTCHAR 0022
ENCODING 34
SWIDTH 438 0
DWIDTH 7 0
BBX 7 24 0 -6
BITMAP
00
00
00
00
00
00
00
28
28
28
00
00
00
00
00
00
00
00
00
00
00
00
00
00
ENDCHAR
STARTCHAR 0023
ENCODING 35
SWIDTH 563 0
DWIDTH 9 0
BBX 9 24 0 -6
BITMAP
0000
0000
0000
0000
0000
0000
0000
2200
2200
7F00
2200
2200
2200
2200
2200
7F00
2200
2200
0000
0000
0000
0000
0000
0000
ENDCHAR
STARTCHAR 0024
ENCODING 36
SWIDTH 563 0
DWIDTH 9 0
BBX 9 24 0 -6
BITMAP
0000
0000
0000
0000
0000
0000
0800
3E00
4900
4800
4800
2800
1C00
0A00
0900
0900
4900
3E00
0800
0000
0000
0000
0000
0000
ENDCHAR
STARTCHAR 0025
ENCODING 37
SWIDTH 563 0
DWIDTH 9 0
BBX 9 24 0 -6
BITMAP
0000
0000
0000
0000
0000
0000
0000
2200
5200
2400
0400
0800
0800
0800
1000
1200
2500
2200
0000
0000
0000
0000
0000
0000
ENDCHAR
STARTCHAR 0026
ENCODING 38
SWIDTH 563 0
DWIDTH 9 0
BBX 9 24 0 -6
BITMAP
0000
0000
0000
0000
0000
0000
0000
1800
2400
2400
2400
1800
2800
2500
4500
4200
4200
3D00
0000
0000
0000
0000
0000
0000
ENDCHAR
STARTCHAR 0027
ENCODING 39
SWIDTH 313 0
DWIDTH 5 0
BBX 5 24 0 -6
BITMAP
00
00
00
00
00
00
00
20
20
20
00
00
00
00
00
00
00
00
00
00
00
00
00
00
ENDCHAR
STARTCHAR 0028
ENCODING 40
SWIDTH 438 0
DWIDTH 7 0
BBX 7 24 0 -6
BITMAP
00
00
00
00
00
00
08
10
10
20
20
20
20
20
20
20
20
10
10
08
00
00
00
00
ENDCHAR
STARTCHAR 0029
ENCODING 41
SWIDTH 438 0
DWIDTH 7 0
BBX 7 24 0 -6
BITMAP
00
00
00
00
00
00
20
10
10
08
08
08
08
08
08
08
08
10
10
20
00
00
00
00
ENDCHAR
STARTCHAR 002A
ENCODING 42
SWIDTH 438 0
DWIDTH 7 0
BBX 7 24 0 -6
BITMAP
00
00
00
00
00
00
00
00
00
00
10
54
38
54
10
00
00
00
00
00
00
00
00
00
ENDCHAR
STARTCHAR 002B
ENCODING 43
SWIDTH 438 0
DWIDTH 7 0
BBX 7 24 0 -6
BITMAP
00
00
00
00
00
00
00
00
00
00
10
10
7C
10
10
00
00
00
00
00
00
00
00
00
ENDCHAR
STARTCHAR 002C
ENCODING 44
SWIDTH 375 0
DWIDTH 6 0
BBX 6 24 0 -6
BITMAP
00
00
00
00
00
00
00
00
00
00
00
00
00
00
00
00
30
30
10
20
00
00
00
00
ENDCHAR
STARTCHAR 002D
ENCODING 45
SWIDTH 438 0
DWIDTH 7 0
BBX 7 24 0 -6
BITMAP
00
00
00
00
00
00
00
00
00
00
00
00
7C
00
00
00
00
00
00
00
00
00
00
00
ENDCHAR
STARTCHAR 002E
ENCODING 46
SWIDTH 375 0
DWIDTH 6 0
BBX 6 24 0 -6
BITMAP
00
00
00
00
00
00
00
00
00
00
00
00
00
00
00
00
30
30
00
00
00
00
00
00
ENDCHAR
STARTCHAR 002F
ENCODING 47
SWIDTH 438 0
DWIDTH 7 0
BBX 7 24 0 -6
BITMAP
00
00
00
00
00
00
04
04
04
08
08
08
10
10
20
20
20
40
40
40
00
00
00
00
ENDCHAR
STARTCHAR 0030
ENCODING 48
SWIDTH 500 0
DWIDTH 8 0
BBX 8 24 0 -6
BITMAP
00
00
00
00
00
00
00
3C
42
42
42
46
5A
62
42
42
42
3C
00
00
00
00
00
00
ENDCHAR
STARTCHAR 0031
ENCODING 49
SWIDTH 500 0
DWIDTH 8 0
BBX 8 24 0 -6
BITMAP
00
00
00
00
00
00
00
08
18
28
08
08
08
08
08
08
08
3E
00
00
00
00
00
00
ENDCHAR
STARTCHAR 0032
ENCODING 50
SWIDTH 500 0
DWIDTH 8 0
BBX 8 24 0 -6
BITMAP
00
00
00
00
00
00
00
3C
42
02
02
02
04
08
10
20
40
7E
00
00
00
00
00
00
ENDCHAR
STARTCHAR 0033
ENCODING 51
SWIDTH 500 0
DWIDTH 8 0
BBX 8 24 0 -6
BITMAP
00
00
00
00
00
00
00
3C
42
02
02
02
1C
02
02
02
42
3C
00
00
00
00
00
00
ENDCHAR
STARTCHAR 0034
ENCODING 52
SWIDTH 500 0
DWIDTH 8 0
BBX 8 24 0 -6
BITMAP
00
00
00
00
00
00
00
0C
14
14
24
24
24
44
44
7E
04
04
00
00
00
00
00
00
ENDCHAR
STARTCHAR 0035
ENCODING 53
SWIDTH 500 0
DWIDTH 8 0
BBX 8 24 0 -6
BITMAP
00
00
00
00
00
00
00
7E
40
40
40
40
7C
02
02
02
42
3C
00
00
00
00
00
00
ENDCHAR
STARTCHAR 0036
ENCODING 54
SWIDTH 500 0
DWIDTH 8 0
BBX 8 24 0 -6
BITMAP
00
00
00
00
00
00
00
3C
42
40
40
40
7C
42
42
42
42
3C
00
00
00
00
00
00
ENDCHAR
STARTCHAR 0037
ENCODING 55
SWIDTH 500 0
DWIDTH 8 0
BBX 8 24 0 -6
BITMAP
00
00
00
00
00
00
00
7E
02
02
04
04
04
08
08
08
08
08
00
00
00
00
00
00
ENDCHAR
STARTCHAR 0038
ENCODING 56
SWIDTH 500 0
DWIDTH 8 0
BBX 8 24 0 -6
BITMAP
00
00
00
00
00
00
00
3C
42
42
42
42
3C
42
42
42
42
3C
00
00
00
00
00
00
ENDCHAR
STARTCHAR 0039
ENCODING 57
SWIDTH 500 0
DWIDTH 8 0
BBX 8 24 0 -6
BITMAP
00
00
00
00
00
00
00
3C
42
42
42
42
3E
02
02
02
42
3C
00
00
00
00
00
00
ENDCHAR
STARTCHAR 003A
ENCODING 58
SWIDTH 375 0
DWIDTH 6 0
BBX 6 24 0 -6
BITMAP
00
00
00
00
00
00
00
00
00
00
30
30
00
00
00
00
30
30
00
00
00
00
00
00
ENDCHAR
STARTCHAR 003B
ENCODING 59
SWIDTH 375 0
DWIDTH 6 0
BBX 6 24 0 -6
BITMAP
00
00
00
00
00
00
00
00
00
00
30
30
00
00
00
00
30
30
10
20
00
00
00
00
ENDCHAR
STARTCHAR 003C
ENCODING 60
SWIDTH 375 0
DWIDTH 6 0
BBX 6 24 0 -6
BITMAP
00
00
00
00
00
00
00
00
00
08
10
20
40
20
10
08
00
00
00
00
00
00
00
00
ENDCHAR
STARTCHAR 003D
ENCODING 61
SWIDTH 438 0
DWIDTH 7 0
BBX 7 24 0 -6
BITMAP
00
00
00
00
00
00
00
00
00
00
00
7C
00
7C
00
00
00
00
00
00
00
00
00
00
ENDCHAR
STARTCHAR 003E
ENCODING 62
SWIDTH 375 0
DWIDTH 6 0
BBX 6 24 0 -6
BITMAP
00
00
00
00
00
00
00
00
00
40
20
10
08
10
20
40
00
00
00
00
00
00
00
00
ENDCHAR
STARTCHAR 003F
ENCODING 63
SWIDTH 500 0
DWIDTH 8 0
BBX 8 24 0 -6
BITMAP
00
00
00
00
00
00
00
3C
42
42
02
04
08
08
08
00
00
08
00
00
00
00
00
00
ENDCHAR
STARTCHAR 0040
ENCODING 64
SWIDTH 625 0
DWIDTH 10 0
BBX 10 24 0 -6
BITMAP
0000
0000
0000
0000
0000
0000
0000
1E00
2100
4080
4E80
5280
5280
5280
5280
5D80
4000
2000
1F00
0000
0000
0000
0000
0000
ENDCHAR
STARTCHAR 0041
ENCODING 65
SWIDTH 563 0
DWIDTH 9 0
BBX 9 24 0 -6
BITMAP
0000
0000
0000
0000
0000
0000
0000
0800
0800
1400
1400
1400
2200
2200
3E00
4100
4100
4100
0000
0000
0000
0000
0000
0000
ENDCHAR
STARTCHAR 0042
ENCODING 66
SWIDTH 563 0
DWIDTH 9 0
BBX 9 24 0 -6
BITMAP
0000
0000
0000
0000
0000
0000
0000
7C00
4200
4100
4100
4200
7C00
4200
4100
4100
4200
7C00
0000
0000
0000
0000
0000
0000
ENDCHAR
STARTCHAR 0043
ENCODING 67
SWIDTH 563 0
DWIDTH 9 0
BBX 9 24 0 -6
BITMAP
0000
0000
0000
0000
0000
0000
0000
1E00
2100
4000
4000
4000
4000
4000
4000
4000
2100
1E00
0000
0000
0000
0000
0000
0000
ENDCHAR
STARTCHAR 0044
ENCODING 68
SWIDTH 563 0
DWIDTH 9 0
BBX 9 24 0 -6
BITMAP
0000
0000
0000
0000
0000
0000
0000
7C00
4200
4100
4100
4100
4100
4100
4100
4100
4200
7C00
0000
0000
0000
0000
0000
0000
ENDCHAR
STARTCHAR 0045
ENCODING 69
SWIDTH 563 0
DWIDTH 9 0
BBX 9 24 0 -6
BITMAP
0000
0000
0000
0000
0000
0000
0000
7F00
4000
4000
4000
4000
7E00
4000
4000
4000
4000
7F00
0000
0000
0000
0000
0000
0000
ENDCHAR
STARTCHAR 0046
ENCODING 70
SWIDTH 563 0
DWIDTH 9 0
BBX 9 24 0 -6
BITMAP
0000
0000
0000
0000
0000
0000
0000
7F00
4000
4000
4000
4000
7E00
4000
4000
4000
4000
4000
0000
0000
0000
0000
0000
0000
ENDCHAR
STARTCHAR 0047
ENCODING 71
SWIDTH 563 0
DWIDTH 9 0
BBX 9 24 0 -6
BITMAP
0000
0000
0000
0000
0000
0000
0000
1E00
2100
4000
4000
4000
4000
4700
4100
4100
2100
1F00
0000
0000
0000
0000
0000
0000
ENDCHAR
STARTCHAR 0048
ENCODING 72
SWIDTH 563 0
DWIDTH 9 0
BBX 9 24 0 -6
BITMAP
0000
0000
0000
0000
0000
0000
0000
4100
4100
4100
4100
4100
7F00
4100
4100
4100
4100
4100
0000
0000
0000
0000
0000
0000
ENDCHAR
STARTCHAR 0049
ENCODING 73
SWIDTH 313 0
DWIDTH 5 0
BBX 5 24 0 -6
BITMAP
00
00
00
00
00
00
00
70
20
20
20
20
20
20
20
20
20
70
00
00
00
00
00
00
ENDCHAR
STARTCHAR 004A
ENCODING 74
SWIDTH 500 0
DWIDTH 8 0
BBX 8 24 0 -6
BITMAP
00
00
00
00
00
00
00
02
02
02
02
02
02
02
42
42
42
3C
00
00
00
00
00
00
ENDCHAR
STARTCHAR 004B
ENCODING 75
SWIDTH 563 0
DWIDTH 9 0
BBX 9 24 0 -6
BITMAP
0000
0000
0000
0000
0000
0000
0000
4100
4200
4400
4800
5000
6000
5000
4800
4400
4200
4100
0000
0000
0000
0000
0000
0000
ENDCHAR
STARTCHAR 004C
ENCODING 76
SWIDTH 500 0
DWIDTH 8 0
BBX 8 24 0 -6
BITMAP
00
00
00
00
00
00
00
40
40
40
40
40
40
40
40
40
40
7E
00
00
00
00
00
00
ENDCHAR
STARTCHAR 004D
ENCODING 77
SWIDTH 813 0
DWIDTH 13 0
BBX 13 24 0 -6
BITMAP
0000
0000
0000
0000
0000
0000
0000
4010
6030
6030
5050
5050
4890
4890
4510
4510
4210
4210
0000
0000
0000
0000
0000
0000
ENDCHAR
STARTCHAR 004E
ENCODING 78
SWIDTH 563 0
DWIDTH 9 0
BBX 9 24 0 -6
BITMAP
0000
0000
0000
0000
0000
0000
0000
4100
6100
6100
5100
5100
4900
4500
4500
4300
4300
4100
0000
0000
0000
0000
0000
0000
ENDCHAR
STARTCHAR 004F
ENCODING 79
SWIDTH 563 0
DWIDTH 9 0
BBX 9 24 0 -6
BITMAP
0000
0000
0000
0000
0000
0000
0000
1C00
2200
4100
4100
4100
4100
4100
4100
4100
2200
1C00
0000
0000
0000
0000
0000
0000
ENDCHAR
STARTCHAR 0050
ENCODING 80
SWIDTH 563 0
DWIDTH 9 0
BBX 9 24 0 -6
BITMAP
0000
0000
0000
0000
0000
0000
0000
7E00
4100
4100
4100
4100
7E00
4000
4000
4000
4000
4000
0000
0000
0000
0000
0000
0000
ENDCHAR
STARTCHAR 0051
ENCODING 81
SWIDTH 563 0
DWIDTH 9 0
BBX 9 24 0 -6
BITMAP
0000
0000
0000
0000
0000
0000
0000
1C00
2200
4100
4100
4100
4100
4100
4100
4500
2200
1D00
0000
0000
0000
0000
0000
0000
ENDCHAR
STARTCHAR 0052
ENCODING 82
SWIDTH 563 0
DWIDTH 9 0
BBX 9 24 0 -6
BITMAP
0000
0000
0000
0000
0000
0000
0000
7E00
4100
4100
4100
4100
7E00
4800
4400
4400
4200
4100
0000
0000
0000
0000
0000
0000
ENDCHAR
STARTCHAR 0053
ENCODING 83
SWIDTH 563 0
DWIDTH 9 0
BBX 9 24 0 -6
BITMAP
0000
0000
0000
0000
0000
0000
0000
3E00
4100
4000
4000
2000
1C00
0200
0100
0100
4100
3E00
0000
0000
0000
0000
0000
0000
ENDCHAR
STARTCHAR 0054
ENCODING 84
SWIDTH 563 0
DWIDTH 9 0
BBX 9 24 0 -6
BITMAP
0000
0000
0000
0000
0000
0000
0000
7F00
0800
0800
0800
0800
0800
0800
0800
0800
0800
0800
0000
0000
0000
0000
0000
0000
ENDCHAR
STARTCHAR 0055
ENCODING 85
SWIDTH 563 0
DWIDTH 9 0
BBX 9 24 0 -6
BITMAP
0000
0000
0000
0000
0000
0000
0000
4100
4100
4100
4100
4100
4100
4100
4100
4100
2200
1C00
0000
0000
0000
0000
0000
0000
ENDCHAR
STARTCHAR 0056
ENCODING 86
SWIDTH 563 0
DWIDTH 9 0
BBX 9 24 0 -6
BITMAP
0000
0000
0000
0000
0000
0000
0000
4100
4100
4100
2200
2200
2200
1400
1400
1400
0800
0800
0000
0000
0000
0000
0000
0000
ENDCHAR
STARTCHAR 0057
ENCODING 87
SWIDTH 813 0
DWIDTH 13 0
BBX 13 24 0 -6
BITMAP
0000
0000
0000
0000
0000
0000
0000
4210
4210
4510
4510
2520
28A0
28A0
28A0
1040
1040
1040
0000
0000
0000
0000
0000
0000
ENDCHAR
STARTCHAR 0058
ENCODING 88
SWIDTH 563 0
DWIDTH 9 0
BBX 9 24 0 -6
BITMAP
0000
0000
0000
0000
0000
0000
0000
4100
4100
2200
2200
1400
0800
1400
2200
2200
4100
4100
0000
0000
0000
0000
0000
0000
ENDCHAR
STARTCHAR 0059
ENCODING 89
SWIDTH 563 0
DWIDTH 9 0
BBX 9 24 0 -6
BITMAP
0000
0000
0000
0000
0000
0000
0000
4100
4100
2200
2200
1400
1400
0800
0800
0800
0800
0800
0000
0000
0000
0000
0000
0000
ENDCHAR
STARTCHAR 005A
ENCODING 90
SWIDTH 563 0
DWIDTH 9 0
BBX 9 24 0 -6
BITMAP
0000
0000
0000
0000
0000
0000
0000
7F00
0100
0200
0400
0400
0800
1000
1000
2000
4000
7F00
0000
0000
0000
0000
0000
0000
ENDCHAR
STARTCHAR 005B
ENCODING 91
SWIDTH 438 0
DWIDTH 7 0
BBX 7 24 0 -6
BITMAP
00
00
00
00
00
00
38
20
20
20
20
20
20
20
20
20
20
20
20
38
00
00
00
00
ENDCHAR
STARTCHAR 005C
ENCODING 92
SWIDTH 438 0
DWIDTH 7 0
BBX 7 24 0 -6
BITMAP
00
00
00
00
00
00
40
40
40
20
20
20
10
10
08
08
08
04
04
04
00
00
00
00
ENDCHAR
STARTCHAR 005D
ENCODING 93
SWIDTH 438 0
DWIDTH 7 0
BBX 7 24 0 -6
BITMAP
00
00
00
00
00
00
38
08
08
08
08
08
08
08
08
08
08
08
08
38
00
00
00
00
ENDCHAR
STARTCHAR 005E
ENCODING 94
SWIDTH 438 0
DWIDTH 7 0
BBX 7 24 0 -6
BITMAP
00
00
00
00
00
00
00
10
28
44
00
00
00
00
00
00
00
00
00
00
00
00
00
00
ENDCHAR
STARTCHAR 005F
ENCODING 95
SWIDTH 500 0
DWIDTH 8 0
BBX 8 24 0 -6
BITMAP
00
00
00
00
00
00
00
00
00
00
00
00
00
00
00
00
00
00
00
00
FF
00
00
00
ENDCHAR
STARTCHAR 0060
ENCODING 96
SWIDTH 438 0
DWIDTH 7 0
BBX 7 24 0 -6
BITMAP
00
00
00
00
00
00
00
20
10
08
00
00
00
00
00
00
00
00
00
00
00
00
00
00
ENDCHAR
STARTCHAR 0061
ENCODING 97
SWIDTH 500 0
DWIDTH 8 0
BBX 8 24 0 -6
BITMAP
00
00
00
00
00
00
00
00
00
00
3C
02
02
3E
42
42
42
3E
00
00
00
00
00
00
ENDCHAR
STARTCHAR 0062
ENCODING 98
SWIDTH 500 0
DWIDTH 8 0
BBX 8 24 0 -6
BITMAP
00
00
00
00
00
00
00
40
40
40
7C
42
42
42
42
42
42
7C
00
00
00
00
00
00
ENDCHAR
STARTCHAR 0063
ENCODING 99
SWIDTH 500 0
DWIDTH 8 0
BBX 8 24 0 -6
BITMAP
00
00
00
00
00
00
00
00
00
00
3C
42
40
40
40
40
42
3C
00
00
00
00
00
00
ENDCHAR
STARTCHAR 0064
ENCODING 100
SWIDTH 500 0
DWIDTH 8 0
BBX 8 24 0 -6
BITMAP
00
00
00
00
00
00
00
02
02
02
3E
42
42
42
42
42
42
3E
00
00
00
00
00
00
ENDCHAR
STARTCHAR 0065
ENCODING 101
SWIDTH 500 0
DWIDTH 8 0
BBX 8 24 0 -6
BITMAP
00
00
00
00
00
00
00
00
00
00
3C
42
42
7E
40
40
42
3C
00
00
00
00
00
00
ENDCHAR
STARTCHAR 0066
ENCODING 102
SWIDTH 500 0
DWIDTH 8 0
BBX 8 24 0 -6
BITMAP
00
00
00
00
00
00
00
0E
10
10
7E
10
10
10
10
10
10
10
00
00
00
00
00
00
ENDCHAR
STARTCHAR 0067
ENCODING 103
SWIDTH 500 0
DWIDTH 8 0
BBX 8 24 0 -6
BITMAP
00
00
00
00
00
00
00
00
00
00
3E
42
42
42
42
42
42
3E
02
02
3C
00
00
00
ENDCHAR
STARTCHAR 0068
ENCODING 104
SWIDTH 500 0
DWIDTH 8 0
BBX 8 24 0 -6
BITMAP
00
00
00
00
00
00
00
40
40
40
5C
62
42
42
42
42
42
42
00
00
00
00
00
00
ENDCHAR
STARTCHAR 0069
ENCODING 105
SWIDTH 313 0
DWIDTH 5 0
BBX 5 24 0 -6
BITMAP
00
00
00
00
00
00
00
20
00
00
60
20
20
20
20
20
20
70
00
00
00
00
00
00
ENDCHAR
STARTCHAR 006A
ENCODING 106
SWIDTH 313 0
DWIDTH 5 0
BBX 5 24 0 -6
BITMAP
00
00
00
00
00
00
00
10
00
00
70
10
10
10
10
10
10
10
10
10
60
00
00
00
ENDCHAR
STARTCHAR 006B
ENCODING 107
SWIDTH 500 0
DWIDTH 8 0
BBX 8 24 0 -6
BITMAP
00
00
00
00
00
00
00
40
40
40
42
4C
50
60
50
48
44
42
00
00
00
00
00
00
ENDCHAR
STARTCHAR 006C
ENCODING 108
SWIDTH 313 0
DWIDTH 5 0
BBX 5 24 0 -6
BITMAP
00
00
00
00
00
00
00
60
20
20
20
20
20
20
20
20
20
30
00
00
00
00
00
00
ENDCHAR
STARTCHAR 006D
ENCODING 109
SWIDTH 688 0
DWIDTH 11 0
BBX 11 24 0 -6
BITMAP
0000
0000
0000
0000
0000
0000
0000
0000
0000
0000
5B80
6440
4440
4440
4440
4440
4440
4440
0000
0000
0000
0000
0000
0000
ENDCHAR
STARTCHAR 006E
ENCODING 110
SWIDTH 500 0
DWIDTH 8 0
BBX 8 24 0 -6
BITMAP
00
00
00
00
00
00
00
00
00
00
5C
62
42
42
42
42
42
42
00
00
00
00
00
00
ENDCHAR
STARTCHAR 006F
ENCODING 111
SWIDTH 500 0
DWIDTH 8 0
BBX 8 24 0 -6
BITMAP
00
00
00
00
00
00
00
00
00
00
3C
42
42
42
42
42
42
3C
00
00
00
00
00
00
ENDCHAR
STARTCHAR 0070
ENCODING 112
SWIDTH 500 0
DWIDTH 8 0
BBX 8 24 0 -6
BITMAP
00
00
00
00
00
00
00
00
00
00
7C
42
42
42
42
42
42
7C
40
40
40
00
00
00
ENDCHAR
STARTCHAR 0071
ENCODING 113
SWIDTH 500 0
DWIDTH 8 0
BBX 8 24 0 -6
BITMAP
00
00
00
00
00
00
00
00
00
00
3E
42
42
42
42
42
42
3E
02
02
02
00
00
00
ENDCHAR
STARTCHAR 0072
ENCODING 114
SWIDTH 438 0
DWIDTH 7 0
BBX 7 24 0 -6
BITMAP
00
00
00
00
00
00
00
00
00
00
5C
60
40
40
40
40
40
40
00
00
00
00
00
00
ENDCHAR
STARTCHAR 0073
ENCODING 115
SWIDTH 500 0
DWIDTH 8 0
BBX 8 24 0 -6
BITMAP
00
00
00
00
00
00
00
00
00
00
3C
42
40
30
0C
02
42
3C
00
00
00
00
00
00
ENDCHAR
STARTCHAR 0074
ENCODING 116
SWIDTH 500 0
DWIDTH 8 0
BBX 8 24 0 -6
BITMAP
00
00
00
00
00
00
00
10
10
10
7E
10
10
10
10
10
10
0E
00
00
00
00
00
00
ENDCHAR
STARTCHAR 0075
ENCODING 117
SWIDTH 500 0
DWIDTH 8 0
BBX 8 24 0 -6
BITMAP
00
00
00
00
00
00
00
00
00
00
42
42
42
42
42
42
46
3A
00
00
00
00
00
00
ENDCHAR
STARTCHAR 0076
ENCODING 118
SWIDTH 563 0
DWIDTH 9 0
BBX 9 24 0 -6
BITMAP
0000
0000
0000
0000
0000
0000
0000
0000
0000
0000
4100
4100
2200
2200
1400
1400
0800
0800
0000
0000
0000
0000
0000
0000
ENDCHAR
STARTCHAR 0077
ENCODING 119
SWIDTH 688 0
DWIDTH 11 0
BBX 11 24 0 -6
BITMAP
0000
0000
0000
0000
0000
0000
0000
0000
0000
0000
4440
4440
4440
2A80
2A80
2A80
1100
1100
0000
0000
0000
0000
0000
0000
ENDCHAR
STARTCHAR 0078
ENCODING 120
SWIDTH 563 0
DWIDTH 9 0
BBX 9 24 0 -6
BITMAP
0000
0000
0000
0000
0000
0000
0000
0000
0000
0000
4100
2200
1400
0800
0800
1400
2200
4100
0000
0000
0000
0000
0000
0000
ENDCHAR
STARTCHAR 0079
ENCODING 121
SWIDTH 563 0
DWIDTH 9 0
BBX 9 24 0 -6
BITMAP
0000
0000
0000
0000
0000
0000
0000
0000
0000
0000
4100
4100
2200
2200
2200
1400
1400
0800
0800
1000
6000
0000
0000
0000
ENDCHAR
STARTCHAR 007A
ENCODING 122
SWIDTH 500 0
DWIDTH 8 0
BBX 8 24 0 -6
BITMAP
00
00
00
00
00
00
00
00
00
00
7E
02
04
08
10
20
40
7E
00
00
00
00
00
00
ENDCHAR
STARTCHAR 007B
ENCODING 123
SWIDTH 500 0
DWIDTH 8 0
BBX 8 24 0 -6
BITMAP
00
00
00
00
00
00
0C
10
10
10
10
10
20
10
10
10
10
10
10
0C
00
00
00
00
ENDCHAR
STARTCHAR 007C
ENCODING 124
SWIDTH 313 0
DWIDTH 5 0
BBX 5 24 0 -6
BITMAP
00
00
00
00
00
00
20
20
20
20
20
20
20
20
20
20
20
20
20
20
00
00
00
00
ENDCHAR
STARTCHAR 007D
ENCODING 125
SWIDTH 500 0
DWIDTH 8 0
BBX 8 24 0 -6
BITMAP
00
00
00
00
00
00
30
08
08
08
08
08
04
08
08
08
08
08
08
30
00
00
00
00
ENDCHAR
STARTCHAR 007E
ENCODING 126
SWIDTH 563 0
DWIDTH 9 0
BBX 9 24 0 -6
BITMAP
0000
0000
0000
0000
0000
0000
0000
0000
0000
0000
0000
3000
4900
0600
0000
0000
0000
0000
0000
0000
0000
0000
0000
0000
ENDCHAR
STARTCHAR 00A1
ENCODING 161
SWIDTH 438 0
DWIDTH 7 0
BBX 7 24 0 -6
BITMAP
00
00
00
00
00
00
00
00
00
00
10
00
00
10
10
10
10
38
38
38
10
00
00
00
ENDCHAR
STARTCHAR 00A2
ENCODING 162
SWIDTH 563 0
DWIDTH 9 0
BBX 9 24 0 -6
BITMAP
0000
0000
0000
0000
0000
0000
0000
0000
0000
0800
3E00
4900
4800
4800
4800
4800
4900
3E00
0800
0000
0000
0000
0000
0000
ENDCHAR
STARTCHAR 00A3
ENCODING 163
SWIDTH 500 0
DWIDTH 8 0
BBX 8 24 0 -6
BITMAP
00
00
00
00
00
00
00
3C
42
40
40
20
10
7C
10
20
40
7E
00
00
00
00
00
00
ENDCHAR
STARTCHAR 00A4
ENCODING 164
SWIDTH 563 0
DWIDTH 9 0
BBX 9 24 0 -6
BITMAP
0000
0000
0000
0000
0000
0000
0000
0000
0000
5D00
2200
4100
4100
4100
2200
5D00
0000
0000
0000
0000
0000
0000
0000
0000
ENDCHAR
STARTCHAR 00A5
ENCODING 165
SWIDTH 563 0
DWIDTH 9 0
BBX 9 24 0 -6
BITMAP
0000
0000
0000
0000
0000
0000
0000
4100
4100
2200
2200
1400
7F00
0800
0800
7F00
0800
0800
0000
0000
0000
0000
0000
0000
ENDCHAR
STARTCHAR 00A6
ENCODING 166
SWIDTH 313 0
DWIDTH 5 0
BBX 5 24 0 -6
BITMAP
00
00
00
00
00
00
20
20
20
20
20
20
00
00
20
20
20
20
20
20
00
00
00
00
ENDCHAR
STARTCHAR 00A7
ENCODING 167
SWIDTH 500 0
DWIDTH 8 0
BBX 8 24 0 -6
BITMAP
00
00
00
00
00
00
00
3C
42
40
40
30
4C
42
42
32
0C
02
02
42
3C
00
00
00
ENDCHAR
STARTCHAR 00A8
ENCODING 168
SWIDTH 500 0
DWIDTH 8 0
BBX 8 24 0 -6
BITMAP
00
00
00
00
00
00
00
24
00
00
00
00
00
00
00
00
00
00
00
00
00
00
00
00
ENDCHAR
STARTCHAR 00A9
ENCODING 169
SWIDTH 1000 0
DWIDTH 16 0
BBX 16 16 0 -2
BITMAP
0000
0000
0000
07C0
0820
1390
2448
2408
2408
2408
2448
1390
0820
07C0
0000
0000
ENDCHAR
STARTCHAR 00AA
ENCODING 170
SWIDTH 438 0
DWIDTH 7 0
BBX 7 24 0 -6
BITMAP
00
00
00
00
00
00
00
38
04
3C
44
3C
00
00
00
00
00
00
00
00
00
00
00
00
ENDCHAR
STARTCHAR 00AB
ENCODING 171
SWIDTH 563 0
DWIDTH 9 0
BBX 9 24 0 -6
BITMAP
0000
0000
0000
0000
0000
0000
0000
0000
0000
0000
0900
1200
2400
4800
2400
1200
0900
0000
0000
0000
0000
0000
0000
0000
ENDCHAR
STARTCHAR 00AC
ENCODING 172
SWIDTH 500 0
DWIDTH 8 0
BBX 8 24 0 -6
BITMAP
00
00
00
00
00
00
00
00
00
00
00
7E
02
02
02
00
00
00
00
00
00
00
00
00
ENDCHAR
STARTCHAR 00AE
ENCODING 174
SWIDTH 1000 0
DWIDTH 16 0
BBX 16 16 0 -2
BITMAP
0000
3F00
4080
9C40
9240
9240
9C40
9240
9240
4080
3F00
0000
0000
0000
0000
0000
ENDCHAR
STARTCHAR 00AF
ENCODING 175
SWIDTH 500 0
DWIDTH 8 0
BBX 8 24 0 -6
BITMAP
00
00
00
00
00
00
00
FF
00
00
00
00
00
00
00
00
00
00
00
00
00
00
00
00
ENDCHAR
STARTCHAR 00B0
ENCODING 176
SWIDTH 375 0
DWIDTH 6 0
BBX 6 24 0 -6
BITMAP
00
00
00
00
00
00
30
48
48
30
00
00
00
00
00
00
00
00
00
00
00
00
00
00
ENDCHAR
STARTCHAR 00B1
ENCODING 177
SWIDTH 438 0
DWIDTH 7 0
BBX 7 24 0 -6
BITMAP
00
00
00
00
00
00
00
00
00
00
10
10
7C
10
10
00
7C
00
00
00
00
00
00
00
ENDCHAR
STARTCHAR 00B2
ENCODING 178
SWIDTH 438 0
DWIDTH 7 0
BBX 7 24 0 -6
BITMAP
00
00
00
00
00
38
44
04
18
20
40
7C
00
00
00
00
00
00
00
00
00
00
00
00
ENDCHAR
STARTCHAR 00B3
ENCODING 179
SWIDTH 438 0
DWIDTH 7 0
BBX 7 24 0 -6
BITMAP
00
00
00
00
00
38
44
04
18
04
44
38
00
00
00
00
00
00
00
00
00
00
00
00
ENDCHAR
STARTCHAR 00B4
ENCODING 180
SWIDTH 438 0
DWIDTH 7 0
BBX 7 24 0 -6
BITMAP
00
00
00
00
00
00
00
08
10
20
00
00
00
00
00
00
00
00
00
00
00
00
00
00
ENDCHAR
STARTCHAR 00B5
ENCODING 181
SWIDTH 500 0
DWIDTH 8 0
BBX 8 24 0 -6
BITMAP
00
00
00
00
00
00
00
00
00
00
42
42
42
42
42
42
66
5A
40
40
40
00
00
00
ENDCHAR
STARTCHAR 00B6
ENCODING 182
SWIDTH 563 0
DWIDTH 9 0
BBX 9 24 0 -6
BITMAP
0000
0000
0000
0000
0000
0000
0000
0F00
3D00
7D00
7D00
7D00
7D00
3D00
0D00
0500
0500
0500
0500
0500
0500
0000
0000
0000
ENDCHAR
STARTCHAR 00B7
ENCODING 183
SWIDTH 375 0
DWIDTH 6 0
BBX 6 24 0 -6
BITMAP
00
00
00
00
00
00
00
00
00
00
00
00
30
30
00
00
00
00
00
00
00
00
00
00
ENDCHAR
STARTCHAR 00B8
ENCODING 184
SWIDTH 438 0
DWIDTH 7 0
BBX 7 24 0 -6
BITMAP
00
00
00
00
00
00
00
00
00
00
00
00
00
00
00
00
00
10
10
08
30
00
00
00
ENDCHAR
STARTCHAR 00B9
ENCODING 185
SWIDTH 438 0
DWIDTH 7 0
BBX 7 24 0 -6
BITMAP
00
00
00
00
00
10
70
10
10
10
10
7C
00
00
00
00
00
00
00
00
00
00
00
00
ENDCHAR
STARTCHAR 00BA
ENCODING 186
SWIDTH 438 0
DWIDTH 7 0
BBX 7 24 0 -6
BITMAP
00
00
00
00
00
00
00
38
44
44
44
38
00
00
00
00
00
00
00
00
00
00
00
00
ENDCHAR
STARTCHAR 00BB
ENCODING 187
SWIDTH 563 0
DWIDTH 9 0
BBX 9 24 0 -6
BITMAP
0000
0000
0000
0000
0000
0000
0000
0000
0000
0000
4800
2400
1200
0900
1200
2400
4800
0000
0000
0000
0000
0000
0000
0000
ENDCHAR
STARTCHAR 00BC
ENCODING 188
SWIDTH 1000 0
DWIDTH 16 0
BBX 16 16 0 -2
BITMAP
0000
1002
7004
1008
1010
1020
1040
7C80
0100
0218
0428
0828
1048
2048
407C
8008
ENDCHAR
STARTCHAR 00BD
ENCODING 189
SWIDTH 1000 0
DWIDTH 16 0
BBX 16 16 0 -2
BITMAP
0000
1002
7004
1008
1010
1020
1040
7C80
0100
0238
0444
0804
1018
2020
4040
807C
ENDCHAR
STARTCHAR 00BE
ENCODING 190
SWIDTH 1000 0
DWIDTH 16 0
BBX 16 16 0 -2
BITMAP
0000
3802
4404
0408
1810
0420
4440
3880
0100
0218
0428
0828
1048
2048
407C
8008
ENDCHAR
STARTCHAR 00BF
ENCODING 191
SWIDTH 500 0
DWIDTH 8 0
BBX 8 24 0 -6
BITMAP
00
00
00
00
00
00
00
00
00
00
10
00
00
10
10
10
20
40
42
42
3C
00
00
00
ENDCHAR
STARTCHAR 00C0
ENCODING 192
SWIDTH 563 0
DWIDTH 9 0
BBX 9 24 0 -6
BITMAP
0000
0000
0000
1000
0800
0000
0000
0800
0800
1400
1400
1400
2200
2200
3E00
4100
4100
4100
0000
0000
0000
0000
0000
0000
ENDCHAR
STARTCHAR 00C1
ENCODING 193
SWIDTH 563 0
DWIDTH 9 0
BBX 9 24 0 -6
BITMAP
0000
0000
0000
0400
0800
0000
0000
0800
0800
1400
1400
1400
2200
2200
3E00
4100
4100
4100
0000
0000
0000
0000
0000
0000
ENDCHAR
STARTCHAR 00C2
ENCODING 194
SWIDTH 563 0
DWIDTH 9 0
BBX 9 24 0 -6
BITMAP
0000
0000
0000
0800
1400
0000
0000
0800
0800
1400
1400
1400
2200
2200
3E00
4100
4100
4100
0000
0000
0000
0000
0000
0000
ENDCHAR
STARTCHAR 00C3
ENCODING 195
SWIDTH 563 0
DWIDTH 9 0
BBX 9 24 0 -6
BITMAP
0000
0000
0000
1A00
2400
0000
0000
0800
0800
1400
1400
1400
2200
2200
3E00
4100
4100
4100
0000
0000
0000
0000
0000
0000
ENDCHAR
STARTCHAR 00C4
ENCODING 196
SWIDTH 563 0
DWIDTH 9 0
BBX 9 24 0 -6
BITMAP
0000
0000
0000
0000
1400
0000
0000
0800
0800
1400
1400
1400
2200
2200
3E00
4100
4100
4100
0000
0000
0000
0000
0000
0000
ENDCHAR
STARTCHAR 00C5
ENCODING 197
SWIDTH 563 0
DWIDTH 9 0
BBX 9 24 0 -6
BITMAP
0000
0000
0000
0800
1400
0800
0000
0800
0800
1400
1400
1400
2200
2200
3E00
4100
4100
4100
0000
0000
0000
0000
0000
0000
ENDCHAR
STARTCHAR 00C6
ENCODING 198
SWIDTH 813 0
DWIDTH 13 0
BBX 13 24 0 -6
BITMAP
0000
0000
0000
0000
0000
0000
0000
07F0
0600
0A00
0A00
1200
13E0
2200
3E00
4200
4200
43F0
0000
0000
0000
0000
0000
0000
ENDCHAR
STARTCHAR 00C7
ENCODING 199
SWIDTH 563 0
DWIDTH 9 0
BBX 9 24 0 -6
BITMAP
0000
0000
0000
0000
0000
0000
0000
1E00
2100
4000
4000
4000
4000
4000
4000
4000
2100
1E00
0400
0200
0C00
0000
0000
0000
ENDCHAR
STARTCHAR 00C8
ENCODING 200
SWIDTH 563 0
DWIDTH 9 0
BBX 9 24 0 -6
BITMAP
0000
0000
0000
1000
0800
0000
0000
7F00
4000
4000
4000
4000
7E00
4000
4000
4000
4000
7F00
0000
0000
0000
0000
0000
0000
ENDCHAR
STARTCHAR 00C9
ENCODING 201
SWIDTH 563 0
DWIDTH 9 0
BBX 9 24 0 -6
BITMAP
0000
0000
0000
0400
0800
0000
0000
7F00
4000
4000
4000
4000
7E00
4000
4000
4000
4000
7F00
0000
0000
0000
0000
0000
0000
ENDCHAR
STARTCHAR 00CA
ENCODING 202
SWIDTH 563 0
DWIDTH 9 0
BBX 9 24 0 -6
BITMAP
0000
0000
0000
0800
1400
0000
0000
7F00
4000
4000
4000
4000
7E00
4000
4000
4000
4000
7F00
0000
0000
0000
0000
0000
0000
ENDCHAR
STARTCHAR 00CB
ENCODING 203
SWIDTH 563 0
DWIDTH 9 0
BBX 9 24 0 -6
BITMAP
0000
0000
0000
0000
1400
0000
0000
7F00
4000
4000
4000
4000
7E00
4000
4000
4000
4000
7F00
0000
0000
0000
0000
0000
0000
ENDCHAR
STARTCHAR 00CC
ENCODING 204
SWIDTH 313 0
DWIDTH 5 0
BBX 5 24 0 -6
BITMAP
00
00
00
40
20
00
00
70
20
20
20
20
20
20
20
20
20
70
00
00
00
00
00
00
ENDCHAR
STARTCHAR 00CD
ENCODING 205
SWIDTH 313 0
DWIDTH 5 0
BBX 5 24 0 -6
BITMAP
00
00
00
10
20
00
00
70
20
20
20
20
20
20
20
20
20
70
00
00
00
00
00
00
ENDCHAR
STARTCHAR 00CE
ENCODING 206
SWIDTH 313 0
DWIDTH 5 0
BBX 5 24 0 -6
BITMAP
00
00
00
20
50
00
00
70
20
20
20
20
20
20
20
20
20
70
00
00
00
00
00
00
ENDCHAR
STARTCHAR 00CF
ENCODING 207
SWIDTH 313 0
DWIDTH 5 0
BBX 5 24 0 -6
BITMAP
00
00
00
00
50
00
00
70
20
20
20
20
20
20
20
20
20
70
00
00
00
00
00
00
ENDCHAR
STARTCHAR 00D0
ENCODING 208
SWIDTH 625 0
DWIDTH 10 0
BBX 10 24 0 -6
BITMAP
0000
0000
0000
0000
0000
0000
0000
3E00
2100
2080
2080
2080
7880
2080
2080
2080
2100
3E00
0000
0000
0000
0000
0000
0000
ENDCHAR
STARTCHAR 00D1
ENCODING 209
SWIDTH 563 0
DWIDTH 9 0
BBX 9 24 0 -6
BITMAP
0000
0000
0000
1A00
2400
0000
0000
4100
6100
6100
5100
5100
4900
4500
4500
4300
4300
4100
0000
0000
0000
0000
0000
0000
ENDCHAR
STARTCHAR 00D2
ENCODING 210
SWIDTH 563 0
DWIDTH 9 0
BBX 9 24 0 -6
BITMAP
0000
0000
0000
1000
0800
0000
0000
1C00
2200
4100
4100
4100
4100
4100
4100
4100
2200
1C00
0000
0000
0000
0000
0000
0000
ENDCHAR
STARTCHAR 00D3
ENCODING 211
SWIDTH 563 0
DWIDTH 9 0
BBX 9 24 0 -6
BITMAP
0000
0000
0000
0400
0800
0000
0000
1C00
2200
4100
4100
4100
4100
4100
4100
4100
2200
1C00
0000
0000
0000
0000
0000
0000
ENDCHAR
STARTCHAR 00D4
ENCODING 212
SWIDTH 563 0
DWIDTH 9 0
BBX 9 24 0 -6
BITMAP
0000
0000
0000
0800
1400
0000
0000
1C00
2200
4100
4100
4100
4100
4100
4100
4100
2200
1C00
0000
0000
0000
0000
0000
0000
ENDCHAR
STARTCHAR 00D5
ENCODING 213
SWIDTH 563 0
DWIDTH 9 0
BBX 9 24 0 -6
BITMAP
0000
0000
0000
1A00
2400
0000
0000
1C00
2200
4100
4100
4100
4100
4100
4100
4100
2200
1C00
0000
0000
0000
0000
0000
0000
ENDCHAR
STARTCHAR 00D6
ENCODING 214
SWIDTH 563 0
DWIDTH 9 0
BBX 9 24 0 -6
BITMAP
0000
0000
0000
0000
1400
0000
0000
1C00
2200
4100
4100
4100
4100
4100
4100
4100
2200
1C00
0000
0000
0000
0000
0000
0000
ENDCHAR
STARTCHAR 00D7
ENCODING 215
SWIDTH 438 0
DWIDTH 7 0
BBX 7 24 0 -6
BITMAP
00
00
00
00
00
00
00
00
00
00
44
28
10
28
44
00
00
00
00
00
00
00
00
00
ENDCHAR
STARTCHAR 00D8
ENCODING 216
SWIDTH 563 0
DWIDTH 9 0
BBX 9 24 0 -6
BITMAP
0000
0000
0000
0000
0000
0000
0100
1D00
2200
4500
4500
4900
4900
4900
5100
5100
2200
5C00
4000
0000
0000
0000
0000
0000
ENDCHAR
STARTCHAR 00D9
ENCODING 217
SWIDTH 563 0
DWIDTH 9 0
BBX 9 24 0 -6
BITMAP
0000
0000
0000
1000
0800
0000
0000
4100
4100
4100
4100
4100
4100
4100
4100
4100
2200
1C00
0000
0000
0000
0000
0000
0000
ENDCHAR
STARTCHAR 00DA
ENCODING 218
SWIDTH 563 0
DWIDTH 9 0
BBX 9 24 0 -6
BITMAP
0000
0000
0000
0400
0800
0000
0000
4100
4100
4100
4100
4100
4100
4100
4100
4100
2200
1C00
0000
0000
0000
0000
0000
0000
ENDCHAR
STARTCHAR 00DB
ENCODING 219
SWIDTH 563 0
DWIDTH 9 0
BBX 9 24 0 -6
BITMAP
0000
0000
0000
0800
1400
0000
0000
4100
4100
4100
4100
4100
4100
4100
4100
4100
2200
1C00
0000
0000
0000
0000
0000
0000
ENDCHAR
STARTCHAR 00DC
ENCODING 220
SWIDTH 563 0
DWIDTH 9 0
BBX 9 24 0 -6
BITMAP
0000
0000
0000
0000
1400
0000
0000
4100
4100
4100
4100
4100
4100
4100
4100
4100
2200
1C00
0000
0000
0000
0000
0000
0000
ENDCHAR
STARTCHAR 00DD
ENCODING 221
SWIDTH 563 0
DWIDTH 9 0
BBX 9 24 0 -6
BITMAP
0000
0000
0000
0400
0800
0000
0000
4100
4100
2200
2200
1400
1400
0800
0800
0800
0800
0800
0000
0000
0000
0000
0000
0000
ENDCHAR
STARTCHAR 00DE
ENCODING 222
SWIDTH 563 0
DWIDTH 9 0
BBX 9 24 0 -6
BITMAP
0000
0000
0000
0000
0000
0000
0000
4000
4000
4000
7E00
4100
4100
4100
7E00
4000
4000
4000
0000
0000
0000
0000
0000
0000
ENDCHAR
STARTCHAR 00DF
ENCODING 223
SWIDTH 500 0
DWIDTH 8 0
BBX 8 24 0 -6
BITMAP
00
00
00
00
00
00
00
38
44
44
44
48
48
44
42
42
52
4C
00
00
00
00
00
00
ENDCHAR
STARTCHAR 00E0
ENCODING 224
SWIDTH 500 0
DWIDTH 8 0
BBX 8 24 0 -6
BITMAP
00
00
00
00
00
00
10
08
00
00
3C
02
02
3E
42
42
42
3E
00
00
00
00
00
00
ENDCHAR
STARTCHAR 00E1
ENCODING 225
SWIDTH 500 0
DWIDTH 8 0
BBX 8 24 0 -6
BITMAP
00
00
00
00
00
00
08
10
00
00
3C
02
02
3E
42
42
42
3E
00
00
00
00
00
00
ENDCHAR
STARTCHAR 00E2
ENCODING 226
SWIDTH 500 0
DWIDTH 8 0
BBX 8 24 0 -6
BITMAP
00
00
00
00
00
00
18
24
00
00
3C
02
02
3E
42
42
42
3E
00
00
00
00
00
00
ENDCHAR
STARTCHAR 00E3
ENCODING 227
SWIDTH 500 0
DWIDTH 8 0
BBX 8 24 0 -6
BITMAP
00
00
00
00
00
00
32
4C
00
00
3C
02
02
3E
42
42
42
3E
00
00
00
00
00
00
ENDCHAR
STARTCHAR 00E4
ENCODING 228
SWIDTH 500 0
DWIDTH 8 0
BBX 8 24 0 -6
BITMAP
00
00
00
00
00
00
00
24
00
00
3C
02
02
3E
42
42
42
3E
00
00
00
00
00
00
ENDCHAR
STARTCHAR 00E5
ENCODING 229
SWIDTH 500 0
DWIDTH 8 0
BBX 8 24 0 -6
BITMAP
00
00
00
00
00
00
08
14
08
00
3C
02
02
3E
42
42
42
3E
00
00
00
00
00
00
ENDCHAR
STARTCHAR 00E6
ENCODING 230
SWIDTH 813 0
DWIDTH 13 0
BBX 13 24 0 -6
BITMAP
0000
0000
0000
0000
0000
0000
0000
0000
0000
0000
3DE0
0210
0210
3FF0
4200
4200
4210
3DE0
0000
0000
0000
0000
0000
0000
ENDCHAR
STARTCHAR 00E7
ENCODING 231
SWIDTH 500 0
DWIDTH 8 0
BBX 8 24 0 -6
BITMAP
00
00
00
00
00
00
00
00
00
00
3C
42
40
40
40
40
42
3C
08
04
18
00
00
00
ENDCHAR
STARTCHAR 00E8
ENCODING 232
SWIDTH 500 0
DWIDTH 8 0
BBX 8 24 0 -6
BITMAP
00
00
00
00
00
00
10
08
00
00
3C
42
42
7E
40
40
42
3C
00
00
00
00
00
00
ENDCHAR
STARTCHAR 00E9
ENCODING 233
SWIDTH 500 0
DWIDTH 8 0
BBX 8 24 0 -6
BITMAP
00
00
00
00
00
00
08
10
00
00
3C
42
42
7E
40
40
42
3C
00
00
00
00
00
00
ENDCHAR
STARTCHAR 00EA
ENCODING 234
SWIDTH 500 0
DWIDTH 8 0
BBX 8 24 0 -6
BITMAP
00
00
00
00
00
00
18
24
00
00
3C
42
42
7E
40
40
42
3C
00
00
00
00
00
00
ENDCHAR
STARTCHAR 00EB
ENCODING 235
SWIDTH 500 0
DWIDTH 8 0
BBX 8 24 0 -6
BITMAP
00
00
00
00
00
00
00
24
00
00
3C
42
42
7E
40
40
42
3C
00
00
00
00
00
00
ENDCHAR
STARTCHAR 00EC
ENCODING 236
SWIDTH 313 0
DWIDTH 5 0
BBX 5 24 0 -6
BITMAP
00
00
00
00
00
00
40
20
00
00
60
20
20
20
20
20
20
70
00
00
00
00
00
00
ENDCHAR
STARTCHAR 00ED
ENCODING 237
SWIDTH 313 0
DWIDTH 5 0
BBX 5 24 0 -6
BITMAP
00
00
00
00
00
00
10
20
00
00
60
20
20
20
20
20
20
70
00
00
00
00
00
00
ENDCHAR
STARTCHAR 00EE
ENCODING 238
SWIDTH 313 0
DWIDTH 5 0
BBX 5 24 0 -6
BITMAP
00
00
00
00
00
00
20
50
00
00
60
20
20
20
20
20
20
70
00
00
00
00
00
00
ENDCHAR
STARTCHAR 00EF
ENCODING 239
SWIDTH 313 0
DWIDTH 5 0
BBX 5 24 0 -6
BITMAP
00
00
00
00
00
00
00
50
00
00
60
20
20
20
20
20
20
70
00
00
00
00
00
00
ENDCHAR
STARTCHAR 00F0
ENCODING 240
SWIDTH 500 0
DWIDTH 8 0
BBX 8 24 0 -6
BITMAP
00
00
00
00
00
32
0C
18
24
04
3C
42
42
42
42
42
42
3C
00
00
00
00
00
00
ENDCHAR
STARTCHAR 00F1
ENCODING 241
SWIDTH 500 0
DWIDTH 8 0
BBX 8 24 0 -6
BITMAP
00
00
00
00
00
00
32
4C
00
00
5C
62
42
42
42
42
42
42
00
00
00
00
00
00
ENDCHAR
STARTCHAR 00F2
ENCODING 242
SWIDTH 500 0
DWIDTH 8 0
BBX 8 24 0 -6
BITMAP
00
00
00
00
00
00
10
08
00
00
3C
42
42
42
42
42
42
3C
00
00
00
00
00
00
ENDCHAR
STARTCHAR 00F3
ENCODING 243
SWIDTH 500 0
DWIDTH 8 0
BBX 8 24 0 -6
BITMAP
00
00
00
00
00
00
08
10
00
00
3C
42
42
42
42
42
42
3C
00
00
00
00
00
00
ENDCHAR
STARTCHAR 00F4
ENCODING 244
SWIDTH 500 0
DWIDTH 8 0
BBX 8 24 0 -6
BITMAP
00
00
00
00
00
00
18
24
00
00
3C
42
42
42
42
42
42
3C
00
00
00
00
00
00
ENDCHAR
STARTCHAR 00F5
ENCODING 245
SWIDTH 500 0
DWIDTH 8 0
BBX 8 24 0 -6
BITMAP
00
00
00
00
00
00
32
4C
00
00
3C
42
42
42
42
42
42
3C
00
00
00
00
00
00
ENDCHAR
STARTCHAR 00F6
ENCODING 246
SWIDTH 500 0
DWIDTH 8 0
BBX 8 24 0 -6
BITMAP
00
00
00
00
00
00
00
24
00
00
3C
42
42
42
42
42
42
3C
00
00
00
00
00
00
ENDCHAR
STARTCHAR 00F7
ENCODING 247
SWIDTH 438 0
DWIDTH 7 0
BBX 7 24 0 -6
BITMAP
00
00
00
00
00
00
00
00
00
00
10
00
7C
00
10
00
00
00
00
00
00
00
00
00
ENDCHAR
STARTCHAR 00F8
ENCODING 248
SWIDTH 500 0
DWIDTH 8 0
BBX 8 24 0 -6
BITMAP
00
00
00
00
00
00
00
00
00
02
3C
46
4A
4A
52
52
62
3C
40
00
00
00
00
00
ENDCHAR
STARTCHAR 00F9
ENCODING 249
SWIDTH 500 0
DWIDTH 8 0
BBX 8 24 0 -6
BITMAP
00
00
00
00
00
00
10
08
00
00
42
42
42
42
42
42
46
3A
00
00
00
00
00
00
ENDCHAR
STARTCHAR 00FA
ENCODING 250
SWIDTH 500 0
DWIDTH 8 0
BBX 8 24 0 -6
BITMAP
00
00
00
00
00
00
08
10
00
00
42
42
42
42
42
42
46
3A
00
00
00
00
00
00
ENDCHAR
STARTCHAR 00FB
ENCODING 251
SWIDTH 500 0
DWIDTH 8 0
BBX 8 24 0 -6
BITMAP
00
00
00
00
00
00
18
24
00
00
42
42
42
42
42
42
46
3A
00
00
00
00
00
00
ENDCHAR
STARTCHAR 00FC
ENCODING 252
SWIDTH 500 0
DWIDTH 8 0
BBX 8 24 0 -6
BITMAP
00
00
00
00
00
00
00
24
00
00
42
42
42
42
42
42
46
3A
00
00
00
00
00
00
ENDCHAR
STARTCHAR 00FD
ENCODING 253
SWIDTH 563 0
DWIDTH 9 0
BBX 9 24 0 -6
BITMAP
0000
0000
0000
0000
0000
0000
0400
0800
0000
0000
4100
4100
2200
2200
2200
1400
1400
0800
0800
1000
6000
0000
0000
0000
ENDCHAR
STARTCHAR 00FE
ENCODING 254
SWIDTH 500 0
DWIDTH 8 0
BBX 8 24 0 -6
BITMAP
00
00
00
00
00
00
00
40
40
40
7C
42
42
42
42
42
42
7C
40
40
40
00
00
00
ENDCHAR
STARTCHAR 00FF
ENCODING 255
SWIDTH 563 0
DWIDTH 9 0
BBX 9 24 0 -6
BITMAP
0000
0000
0000
0000
0000
0000
0000
1400
0000
0000
4100
4100
2200
2200
2200
1400
1400
0800
0800
1000
6000
0000
0000
0000
ENDCHAR
STARTCHAR 0100
ENCODING 256
SWIDTH 563 0
DWIDTH 9 0
BBX 9 24 0 -6
BITMAP
0000
0000
0000
0000
1C00
0000
0000
0800
0800
1400
1400
1400
2200
2200
3E00
4100
4100
4100
0000
0000
0000
0000
0000
0000
ENDCHAR
STARTCHAR 0101
ENCODING 257
SWIDTH 500 0
DWIDTH 8 0
BBX 8 24 0 -6
BITMAP
00
00
00
00
00
00
00
3C
00
00
3C
02
02
3E
42
42
42
3E
00
00
00
00
00
00
ENDCHAR
STARTCHAR 0102
ENCODING 258
SWIDTH 563 0
DWIDTH 9 0
BBX 9 24 0 -6
BITMAP
0000
0000
0000
2200
1C00
0000
0000
0800
0800
1400
1400
1400
2200
2200
3E00
4100
4100
4100
0000
0000
0000
0000
0000
0000
ENDCHAR
STARTCHAR 0103
ENCODING 259
SWIDTH 500 0
DWIDTH 8 0
BBX 8 24 0 -6
BITMAP
00
00
00
00
00
00
42
3C
00
00
3C
02
02
3E
42
42
42
3E
00
00
00
00
00
00
ENDCHAR
STARTCHAR 0106
ENCODING 262
SWIDTH 563 0
DWIDTH 9 0
BBX 9 24 0 -6
BITMAP
0000
0000
0000
0400
0800
0000
0000
1E00
2100
4000
4000
4000
4000
4000
4000
4000
2100
1E00
0000
0000
0000
0000
0000
0000
ENDCHAR
STARTCHAR 0107
ENCODING 263
SWIDTH 500 0
DWIDTH 8 0
BBX 8 24 0 -6
BITMAP
00
00
00
00
00
00
08
10
00
00
3C
42
40
40
40
40
42
3C
00
00
00
00
00
00
ENDCHAR
STARTCHAR 0108
ENCODING 264
SWIDTH 563 0
DWIDTH 9 0
BBX 9 24 0 -6
BITMAP
0000
0000
0000
0C00
1200
0000
0000
1E00
2100
4000
4000
4000
4000
4000
4000
4000
2100
1E00
0000
0000
0000
0000
0000
0000
ENDCHAR
STARTCHAR 0109
ENCODING 265
SWIDTH 500 0
DWIDTH 8 0
BBX 8 24 0 -6
BITMAP
00
00
00
00
00
00
18
24
00
00
3C
42
40
40
40
40
42
3C
00
00
00
00
00
00
ENDCHAR
STARTCHAR 010A
ENCODING 266
SWIDTH 563 0
DWIDTH 9 0
BBX 9 24 0 -6
BITMAP
0000
0000
0000
0000
0400
0000
0000
1E00
2100
4000
4000
4000
4000
4000
4000
4000
2100
1E00
0000
0000
0000
0000
0000
0000
ENDCHAR
STARTCHAR 010B
ENCODING 267
SWIDTH 500 0
DWIDTH 8 0
BBX 8 24 0 -6
BITMAP
00
00
00
00
00
00
00
08
00
00
3C
42
40
40
40
40
42
3C
00
00
00
00
00
00
ENDCHAR
STARTCHAR 010C
ENCODING 268
SWIDTH 563 0
DWIDTH 9 0
BBX 9 24 0 -6
BITMAP
0000
0000
0000
1200
0C00
0000
0000
1E00
2100
4000
4000
4000
4000
4000
4000
4000
2100
1E00
0000
0000
0000
0000
0000
0000
ENDCHAR
STARTCHAR 010D
ENCODING 269
SWIDTH 500 0
DWIDTH 8 0
BBX 8 24 0 -6
BITMAP
00
00
00
00
00
00
24
18
00
00
3C
42
40
40
40
40
42
3C
00
00
00
00
00
00
ENDCHAR
STARTCHAR 0110
ENCODING 272
SWIDTH 625 0
DWIDTH 10 0
BBX 10 24 0 -6
BITMAP
0000
0000
0000
0000
0000
0000
0000
3E00
2100
2080
2080
2080
7880
2080
2080
2080
2100
3E00
0000
0000
0000
0000
0000
0000
ENDCHAR
STARTCHAR 0111
ENCODING 273
SWIDTH 563 0
DWIDTH 9 0
BBX 9 24 0 -6
BITMAP
0000
0000
0000
0000
0000
0000
0000
0200
0700
0200
3E00
4200
4200
4200
4200
4200
4200
3E00
0000
0000
0000
0000
0000
0000
ENDCHAR
STARTCHAR 0112
ENCODING 274
SWIDTH 563 0
DWIDTH 9 0
BBX 9 24 0 -6
BITMAP
0000
0000
0000
0000
1C00
0000
0000
7F00
4000
4000
4000
4000
7E00
4000
4000
4000
4000
7F00
0000
0000
0000
0000
0000
0000
ENDCHAR
STARTCHAR 0113
ENCODING 275
SWIDTH 500 0
DWIDTH 8 0
BBX 8 24 0 -6
BITMAP
00
00
00
00
00
00
00
3C
00
00
3C
42
42
7E
40
40
42
3C
00
00
00
00
00
00
ENDCHAR
STARTCHAR 0114
ENCODING 276
SWIDTH 563 0
DWIDTH 9 0
BBX 9 24 0 -6
BITMAP
0000
0000
0000
2200
1C00
0000
0000
7F00
4000
4000
4000
4000
7E00
4000
4000
4000
4000
7F00
0000
0000
0000
0000
0000
0000
ENDCHAR
STARTCHAR 0115
ENCODING 277
SWIDTH 500 0
DWIDTH 8 0
BBX 8 24 0 -6
BITMAP
00
00
00
00
00
00
42
3C
00
00
3C
42
42
7E
40
40
42
3C
00
00
00
00
00
00
ENDCHAR
STARTCHAR 0116
ENCODING 278
SWIDTH 563 0
DWIDTH 9 0
BBX 9 24 0 -6
BITMAP
0000
0000
0000
0000
0800
0000
0000
7F00
4000
4000
4000
4000
7E00
4000
4000
4000
4000
7F00
0000
0000
0000
0000
0000
0000
ENDCHAR
STARTCHAR 0117
ENCODING 279
SWIDTH 500 0
DWIDTH 8 0
BBX 8 24 0 -6
BITMAP
00
00
00
00
00
00
00
08
00
00
3C
42
42
7E
40
40
42
3C
00
00
00
00
00
00
ENDCHAR
STARTCHAR 011A
ENCODING 282
SWIDTH 563 0
DWIDTH 9 0
BBX 9 24 0 -6
BITMAP
0000
0000
0000
1400
0800
0000
0000
7F00
4000
4000
4000
4000
7E00
4000
4000
4000
4000
7F00
0000
0000
0000
0000
0000
0000
ENDCHAR
STARTCHAR 011B
ENCODING 283
SWIDTH 500 0
DWIDTH 8 0
BBX 8 24 0 -6
BITMAP
00
00
00
00
00
00
24
18
00
00
3C
42
42
7E
40
40
42
3C
00
00
00
00
00
00
ENDCHAR
STARTCHAR 011C
ENCODING 284
SWIDTH 563 0
DWIDTH 9 0
BBX 9 24 0 -6
BITMAP
0000
0000
0000
0C00
1200
0000
0000
1E00
2100
4000
4000
4000
4000
4700
4100
4100
2100
1F00
0000
0000
0000
0000
0000
0000
ENDCHAR
STARTCHAR 011D
ENCODING 285
SWIDTH 500 0
DWIDTH 8 0
BBX 8 24 0 -6
BITMAP
00
00
00
00
00
00
08
14
00
00
3E
42
42
42
42
42
42
3E
02
02
3C
00
00
00
ENDCHAR
STARTCHAR 011E
ENCODING 286
SWIDTH 563 0
DWIDTH 9 0
BBX 9 24 0 -6
BITMAP
0000
0000
0000
2100
1E00
0000
0000
1E00
2100
4000
4000
4000
4000
4700
4100
4100
2100
1F00
0000
0000
0000
0000
0000
0000
ENDCHAR
STARTCHAR 011F
ENCODING 287
SWIDTH 500 0
DWIDTH 8 0
BBX 8 24 0 -6
BITMAP
00
00
00
00
00
00
22
1C
00
00
3E
42
42
42
42
42
42
3E
02
02
3C
00
00
00
ENDCHAR
STARTCHAR 0120
ENCODING 288
SWIDTH 563 0
DWIDTH 9 0
BBX 9 24 0 -6
BITMAP
0000
0000
0000
0000
0400
0000
0000
1E00
2100
4000
4000
4000
4000
4700
4100
4100
2100
1F00
0000
0000
0000
0000
0000
0000
ENDCHAR
STARTCHAR 0121
ENCODING 289
SWIDTH 500 0
DWIDTH 8 0
BBX 8 24 0 -6
BITMAP
00
00
00
00
00
00
00
08
00
00
3E
42
42
42
42
42
42
3E
02
02
3C
00
00
00
ENDCHAR
STARTCHAR 0128
ENCODING 296
SWIDTH 313 0
DWIDTH 5 0
BBX 5 24 0 -6
BITMAP
00
00
00
28
50
00
00
70
20
20
20
20
20
20
20
20
20
70
00
00
00
00
00
00
ENDCHAR
STARTCHAR 0129
ENCODING 297
SWIDTH 313 0
DWIDTH 5 0
BBX 5 24 0 -6
BITMAP
00
00
00
00
00
00
28
50
00
00
60
20
20
20
20
20
20
70
00
00
00
00
00
00
ENDCHAR
STARTCHAR 012A
ENCODING 298
SWIDTH 313 0
DWIDTH 5 0
BBX 5 24 0 -6
BITMAP
00
00
00
00
70
00
00
70
20
20
20
20
20
20
20
20
20
70
00
00
00
00
00
00
ENDCHAR
STARTCHAR 012B
ENCODING 299
SWIDTH 313 0
DWIDTH 5 0
BBX 5 24 0 -6
BITMAP
00
00
00
00
00
00
00
70
00
00
60
20
20
20
20
20
20
70
00
00
00
00
00
00
ENDCHAR
STARTCHAR 012C
ENCODING 300
SWIDTH 313 0
DWIDTH 5 0
BBX 5 24 0 -6
BITMAP
00
00
00
48
30
00
00
70
20
20
20
20
20
20
20
20
20
70
00
00
00
00
00
00
ENDCHAR
STARTCHAR 012D
ENCODING 301
SWIDTH 313 0
DWIDTH 5 0
BBX 5 24 0 -6
BITMAP
00
00
00
00
00
00
48
30
00
00
60
20
20
20
20
20
20
70
00
00
00
00
00
00
ENDCHAR
STARTCHAR 0143
ENCODING 323
SWIDTH 563 0
DWIDTH 9 0
BBX 9 24 0 -6
BITMAP
0000
0000
0000
0400
0800
0000
0000
4100
6100
6100
5100
5100
4900
4500
4500
4300
4300
4100
0000
0000
0000
0000
0000
0000
ENDCHAR
STARTCHAR 0144
ENCODING 324
SWIDTH 500 0
DWIDTH 8 0
BBX 8 24 0 -6
BITMAP
00
00
00
00
00
00
08
10
00
00
5C
62
42
42
42
42
42
42
00
00
00
00
00
00
ENDCHAR
STARTCHAR 0147
ENCODING 327
SWIDTH 563 0
DWIDTH 9 0
BBX 9 24 0 -6
BITMAP
0000
0000
0000
1400
0800
0000
0000
4100
6100
6100
5100
5100
4900
4500
4500
4300
4300
4100
0000
0000
0000
0000
0000
0000
ENDCHAR
STARTCHAR 0148
ENCODING 328
SWIDTH 500 0
DWIDTH 8 0
BBX 8 24 0 -6
BITMAP
00
00
00
00
00
00
24
18
00
00
5C
62
42
42
42
42
42
42
00
00
00
00
00
00
ENDCHAR
STARTCHAR 014C
ENCODING 332
SWIDTH 563 0
DWIDTH 9 0
BBX 9 24 0 -6
BITMAP
0000
0000
0000
0000
1C00
0000
0000
1C00
2200
4100
4100
4100
4100
4100
4100
4100
2200
1C00
0000
0000
0000
0000
0000
0000
ENDCHAR
STARTCHAR 014D
ENCODING 333
SWIDTH 500 0
DWIDTH 8 0
BBX 8 24 0 -6
BITMAP
00
00
00
00
00
00
00
3C
00
00
3C
42
42
42
42
42
42
3C
00
00
00
00
00
00
ENDCHAR
STARTCHAR 014E
ENCODING 334
SWIDTH 563 0
DWIDTH 9 0
BBX 9 24 0 -6
BITMAP
0000
0000
0000
2200
1C00
0000
0000
1C00
2200
4100
4100
4100
4100
4100
4100
4100
2200
1C00
0000
0000
0000
0000
0000
0000
ENDCHAR
STARTCHAR 014F
ENCODING 335
SWIDTH 500 0
DWIDTH 8 0
BBX 8 24 0 -6
BITMAP
00
00
00
00
00
00
42
3C
00
00
3C
42
42
42
42
42
42
3C
00
00
00
00
00
00
ENDCHAR
STARTCHAR 0154
ENCODING 340
SWIDTH 563 0
DWIDTH 9 0
BBX 9 24 0 -6
BITMAP
0000
0000
0000
0400
0800
0000
0000
7E00
4100
4100
4100
4100
7E00
4800
4400
4400
4200
4100
0000
0000
0000
0000
0000
0000
ENDCHAR
STARTCHAR 0155
ENCODING 341
SWIDTH 438 0
DWIDTH 7 0
BBX 7 24 0 -6
BITMAP
00
00
00
00
00
00
08
10
00
00
5C
60
40
40
40
40
40
40
00
00
00
00
00
00
ENDCHAR
STARTCHAR 0168
ENCODING 360
SWIDTH 563 0
DWIDTH 9 0
BBX 9 24 0 -6
BITMAP
0000
0000
0000
1A00
2400
0000
0000
4100
4100
4100
4100
4100
4100
4100
4100
4100
2200
1C00
0000
0000
0000
0000
0000
0000
ENDCHAR
STARTCHAR 0169
ENCODING 361
SWIDTH 500 0
DWIDTH 8 0
BBX 8 24 0 -6
BITMAP
00
00
00
00
00
00
32
4C
00
00
42
42
42
42
42
42
46
3A
00
00
00
00
00
00
ENDCHAR
STARTCHAR 016A
ENCODING 362
SWIDTH 563 0
DWIDTH 9 0
BBX 9 24 0 -6
BITMAP
0000
0000
0000
0000
1C00
0000
0000
4100
4100
4100
4100
4100
4100
4100
4100
4100
2200
1C00
0000
0000
0000
0000
0000
0000
ENDCHAR
STARTCHAR 016B
ENCODING 363
SWIDTH 500 0
DWIDTH 8 0
BBX 8 24 0 -6
BITMAP
00
00
00
00
00
00
00
3C
00
00
42
42
42
42
42
42
46
3A
00
00
00
00
00
00
ENDCHAR
STARTCHAR 016C
ENCODING 364
SWIDTH 563 0
DWIDTH 9 0
BBX 9 24 0 -6
BITMAP
0000
0000
0000
2200
1C00
0000
0000
4100
4100
4100
4100
4100
4100
4100
4100
4100
2200
1C00
0000
0000
0000
0000
0000
0000
ENDCHAR
STARTCHAR 016D
ENCODING 365
SWIDTH 500 0
DWIDTH 8 0
BBX 8 24 0 -6
BITMAP
00
00
00
00
00
00
42
3C
00
00
42
42
42
42
42
42
46
3A
00
00
00
00
00
00
ENDCHAR
STARTCHAR 0174
ENCODING 372
SWIDTH 813 0
DWIDTH 13 0
BBX 13 24 0 -6
BITMAP
0000
0000
0000
0200
0500
0000
0000
4210
4210
4510
4510
2520
28A0
28A0
28A0
1040
1040
1040
0000
0000
0000
0000
0000
0000
ENDCHAR
STARTCHAR 0175
ENCODING 373
SWIDTH 688 0
DWIDTH 11 0
BBX 11 24 0 -6
BITMAP
0000
0000
0000
0000
0000
0000
0400
0A00
0000
0000
4440
4440
4440
2A80
2A80
2A80
1100
1100
0000
0000
0000
0000
0000
0000
ENDCHAR
STARTCHAR 0176
ENCODING 374
SWIDTH 563 0
DWIDTH 9 0
BBX 9 24 0 -6
BITMAP
0000
0000
0000
0800
1400
0000
0000
4100
4100
2200
2200
1400
1400
0800
0800
0800
0800
0800
0000
0000
0000
0000
0000
0000
ENDCHAR
STARTCHAR 0177
ENCODING 375
SWIDTH 563 0
DWIDTH 9 0
BBX 9 24 0 -6
BITMAP
0000
0000
0000
0000
0000
0000
0800
1400
0000
0000
4100
4100
2200
2200
2200
1400
1400
0800
0800
1000
6000
0000
0000
0000
ENDCHAR
STARTCHAR 0178
ENCODING 376
SWIDTH 563 0
DWIDTH 9 0
BBX 9 24 0 -6
BITMAP
0000
0000
0000
0000
1400
0000
0000
4100
4100
2200
2200
1400
1400
0800
0800
0800
0800
0800
0000
0000
0000
0000
0000
0000
ENDCHAR
STARTCHAR 0179
ENCODING 377
SWIDTH 563 0
DWIDTH 9 0
BBX 9 24 0 -6
BITMAP
0000
0000
0000
0400
0800
0000
0000
7F00
0100
0200
0400
0400
0800
1000
1000
2000
4000
7F00
0000
0000
0000
0000
0000
0000
ENDCHAR
STARTCHAR 017A
ENCODING 378
SWIDTH 500 0
DWIDTH 8 0
BBX 8 24 0 -6
BITMAP
00
00
00
00
00
00
08
10
00
00
7E
02
04
08
10
20
40
7E
00
00
00
00
00
00
ENDCHAR
STARTCHAR 017B
ENCODING 379
SWIDTH 563 0
DWIDTH 9 0
BBX 9 24 0 -6
BITMAP
0000
0000
0000
0000
0800
0000
0000
7F00
0100
0200
0400
0400
0800
1000
1000
2000
4000
7F00
0000
0000
0000
0000
0000
0000
ENDCHAR
STARTCHAR 017C
ENCODING 380
SWIDTH 500 0
DWIDTH 8 0
BBX 8 24 0 -6
BITMAP
00
00
00
00
00
00
00
08
00
00
7E
02
04
08
10
20
40
7E
00
00
00
00
00
00
ENDCHAR
STARTCHAR 017D
ENCODING 381
SWIDTH 563 0
DWIDTH 9 0
BBX 9 24 0 -6
BITMAP
0000
0000
0000
1400
0800
0000
0000
7F00
0100
0200
0400
0400
0800
1000
1000
2000
4000
7F00
0000
0000
0000
0000
0000
0000
ENDCHAR
STARTCHAR 017E
ENCODING 382
SWIDTH 500 0
DWIDTH 8 0
BBX 8 24 0 -6
BITMAP
00
00
00
00
00
00
24
18
00
00
7E
02
04
08
10
20
40
7E
00
00
00
00
00
00
ENDCHAR
STARTCHAR 0192
ENCODING 402
SWIDTH 563 0
DWIDTH 9 0
BBX 9 24 0 -6
BITMAP
0000
0000
0000
0000
0000
0000
0000
0700
0800
0800
7F00
0800
0800
0800
0800
0800
0800
0800
0800
0800
7000
0000
0000
0000
ENDCHAR
STARTCHAR 01CD
ENCODING 461
SWIDTH 563 0
DWIDTH 9 0
BBX 9 24 0 -6
BITMAP
0000
0000
0000
1400
0800
0000
0000
0800
0800
1400
1400
1400
2200
2200
3E00
4100
4100
4100
0000
0000
0000
0000
0000
0000
ENDCHAR
STARTCHAR 01CE
ENCODING 462
SWIDTH 500 0
DWIDTH 8 0
BBX 8 24 0 -6
BITMAP
00
00
00
00
00
00
24
18
00
00
3C
02
02
3E
42
42
42
3E
00
00
00
00
00
00
ENDCHAR
STARTCHAR 01CF
ENCODING 463
SWIDTH 313 0
DWIDTH 5 0
BBX 5 24 0 -6
BITMAP
00
00
00
50
20
00
00
70
20
20
20
20
20
20
20
20
20
70
00
00
00
00
00
00
ENDCHAR
STARTCHAR 01D0
ENCODING 464
SWIDTH 313 0
DWIDTH 5 0
BBX 5 24 0 -6
BITMAP
00
00
00
00
00
00
50
20
00
00
60
20
20
20
20
20
20
70
00
00
00
00
00
00
ENDCHAR
STARTCHAR 01D1
ENCODING 465
SWIDTH 563 0
DWIDTH 9 0
BBX 9 24 0 -6
BITMAP
0000
0000
0000
1400
0800
0000
0000
1C00
2200
4100
4100
4100
4100
4100
4100
4100
2200
1C00
0000
0000
0000
0000
0000
0000
ENDCHAR
STARTCHAR 01D2
ENCODING 466
SWIDTH 500 0
DWIDTH 8 0
BBX 8 24 0 -6
BITMAP
00
00
00
00
00
00
24
18
00
00
3C
42
42
42
42
42
42
3C
00
00
00
00
00
00
ENDCHAR
STARTCHAR 01D3
ENCODING 467
SWIDTH 563 0
DWIDTH 9 0
BBX 9 24 0 -6
BITMAP
0000
0000
0000
1400
0800
0000
0000
4100
4100
4100
4100
4100
4100
4100
4100
4100
2200
1C00
0000
0000
0000
0000
0000
0000
ENDCHAR
STARTCHAR 01D4
ENCODING 468
SWIDTH 500 0
DWIDTH 8 0
BBX 8 24 0 -6
BITMAP
00
00
00
00
00
00
24
18
00
00
42
42
42
42
42
42
46
3A
00
00
00
00
00
00
ENDCHAR
STARTCHAR 01D5
ENCODING 469
SWIDTH 563 0
DWIDTH 9 0
BBX 9 24 0 -6
BITMAP
0000
0000
0000
1C00
0000
1400
0000
4100
4100
4100
4100
4100
4100
4100
4100
4100
2200
1C00
0000
0000
0000
0000
0000
0000
ENDCHAR
STARTCHAR 01D6
ENCODING 470
SWIDTH 500 0
DWIDTH 8 0
BBX 8 24 0 -6
BITMAP
00
00
00
00
00
00
3C
00
24
00
42
42
42
42
42
42
46
3A
00
00
00
00
00
00
ENDCHAR
STARTCHAR 01D7
ENCODING 471
SWIDTH 563 0
DWIDTH 9 0
BBX 9 24 0 -6
BITMAP
0000
0000
0400
0800
0000
1400
0000
4100
4100
4100
4100
4100
4100
4100
4100
4100
2200
1C00
0000
0000
0000
0000
0000
0000
ENDCHAR
STARTCHAR 01D8
ENCODING 472
SWIDTH 500 0
DWIDTH 8 0
BBX 8 24 0 -6
BITMAP
00
00
00
00
00
08
10
00
24
00
42
42
42
42
42
42
46
3A
00
00
00
00
00
00
ENDCHAR
STARTCHAR 01D9
ENCODING 473
SWIDTH 563 0
DWIDTH 9 0
BBX 9 24 0 -6
BITMAP
0000
0000
1400
0800
0000
1400
0000
4100
4100
4100
4100
4100
4100
4100
4100
4100
2200
1C00
0000
0000
0000
0000
0000
0000
ENDCHAR
STARTCHAR 01DA
ENCODING 474
SWIDTH 500 0
DWIDTH 8 0
BBX 8 24 0 -6
BITMAP
00
00
00
00
00
24
18
00
24
00
42
42
42
42
42
42
46
3A
00
00
00
00
00
00
ENDCHAR
STARTCHAR 01DB
ENCODING 475
SWIDTH 563 0
DWIDTH 9 0
BBX 9 24 0 -6
BITMAP
0000
0000
1000
0800
0000
1400
0000
4100
4100
4100
4100
4100
4100
4100
4100
4100
2200
1C00
0000
0000
0000
0000
0000
0000
ENDCHAR
STARTCHAR 01DC
ENCODING 476
SWIDTH 500 0
DWIDTH 8 0
BBX 8 24 0 -6
BITMAP
00
00
00
00
00
10
08
00
24
00
42
42
42
42
42
42
46
3A
00
00
00
00
00
00
ENDCHAR
STARTCHAR 01DD
ENCODING 477
SWIDTH 500 0
DWIDTH 8 0
BBX 8 24 0 -6
BITMAP
00
00
00
00
00
00
00
00
00
00
3C
42
02
02
7E
42
42
3C
00
00
00
00
00
00
ENDCHAR
STARTCHAR 01DE
ENCODING 478
SWIDTH 563 0
DWIDTH 9 0
BBX 9 24 0 -6
BITMAP
0000
0000
0000
1C00
0000
1400
0000
0800
0800
1400
1400
1400
2200
2200
3E00
4100
4100
4100
0000
0000
0000
0000
0000
0000
ENDCHAR
STARTCHAR 01DF
ENCODING 479
SWIDTH 500 0
DWIDTH 8 0
BBX 8 24 0 -6
BITMAP
00
00
00
00
00
00
3C
00
24
00
3C
02
02
3E
42
42
42
3E
00
00
00
00
00
00
ENDCHAR
STARTCHAR 01E0
ENCODING 480
SWIDTH 563 0
DWIDTH 9 0
BBX 9 24 0 -6
BITMAP
0000
0000
0000
1C00
0000
0800
0000
0800
0800
1400
1400
1400
2200
2200
3E00
4100
4100
4100
0000
0000
0000
0000
0000
0000
ENDCHAR
STARTCHAR 01E1
ENCODING 481
SWIDTH 500 0
DWIDTH 8 0
BBX 8 24 0 -6
BITMAP
00
00
00
00
00
00
3C
00
08
00
3C
02
02
3E
42
42
42
3E
00
00
00
00
00
00
ENDCHAR
STARTCHAR 01E2
ENCODING 482
SWIDTH 813 0
DWIDTH 13 0
BBX 13 24 0 -6
BITMAP
0000
0000
0000
0000
0F80
0000
0000
07F0
0600
0A00
0A00
1200
13E0
2200
3E00
4200
4200
43F0
0000
0000
0000
0000
0000
0000
ENDCHAR
STARTCHAR 01E3
ENCODING 483
SWIDTH 813 0
DWIDTH 13 0
BBX 13 24 0 -6
BITMAP
0000
0000
0000
0000
0000
0000
0000
0700
0000
0000
3DE0
0210
0210
3FF0
4200
4200
4210
3DE0
0000
0000
0000
0000
0000
0000
ENDCHAR
STARTCHAR 01F8
ENCODING 504
SWIDTH 563 0
DWIDTH 9 0
BBX 9 24 0 -6
BITMAP
0000
0000
0000
1000
0800
0000
0000
4100
6100
6100
5100
5100
4900
4500
4500
4300
4300
4100
0000
0000
0000
0000
0000
0000
ENDCHAR
STARTCHAR 01F9
ENCODING 505
SWIDTH 500 0
DWIDTH 8 0
BBX 8 24 0 -6
BITMAP
00
00
00
00
00
00
10
08
00
00
5C
62
42
42
42
42
42
42
00
00
00
00
00
00
ENDCHAR
STARTCHAR 01FC
ENCODING 508
SWIDTH 813 0
DWIDTH 13 0
BBX 13 24 0 -6
BITMAP
0000
0000
0000
0100
0200
0000
0000
07F0
0A00
0A00
0A00
1200
13E0
1E00
2200
2200
4200
43F0
0000
0000
0000
0000
0000
0000
ENDCHAR
STARTCHAR 01FD
ENCODING 509
SWIDTH 813 0
DWIDTH 13 0
BBX 13 24 0 -6
BITMAP
0000
0000
0000
0000
0000
0000
0100
0200
0000
0000
3DE0
0210
0210
3FF0
4200
4200
4210
3DE0
0000
0000
0000
0000
0000
0000
ENDCHAR
STARTCHAR 021E
ENCODING 542
SWIDTH 563 0
DWIDTH 9 0
BBX 9 24 0 -6
BITMAP
0000
0000
0000
1400
0800
0000
0000
4100
4100
4100
4100
4100
7F00
4100
4100
4100
4100
4100
0000
0000
0000
0000
0000
0000
ENDCHAR
STARTCHAR 021F
ENCODING 543
SWIDTH 500 0
DWIDTH 8 0
BBX 8 24 0 -6
BITMAP
00
00
00
24
18
00
00
40
40
40
5C
62
42
42
42
42
42
42
00
00
00
00
00
00
ENDCHAR
STARTCHAR 0232
ENCODING 562
SWIDTH 563 0
DWIDTH 9 0
BBX 9 24 0 -6
BITMAP
0000
0000
0000
0000
1C00
0000
0000
4100
4100
2200
2200
1400
1400
0800
0800
0800
0800
0800
0000
0000
0000
0000
0000
0000
ENDCHAR
STARTCHAR 0233
ENCODING 563
SWIDTH 563 0
DWIDTH 9 0
BBX 9 24 0 -6
BITMAP
0000
0000
0000
0000
0000
0000
0000
1C00
0000
0000
4100
4100
2200
2200
1400
1400
1400
0800
0800
1000
6000
0000
0000
0000
ENDCHAR
STARTCHAR 0384
ENCODING 900
SWIDTH 375 0
DWIDTH 6 0
BBX 6 24 0 -6
BITMAP
00
00
00
00
00
10
20
00
00
00
00
00
00
00
00
00
00
00
00
00
00
00
00
00
ENDCHAR
STARTCHAR 0385
ENCODING 901
SWIDTH 500 0
DWIDTH 8 0
BBX 8 24 0 -6
BITMAP
00
00
00
00
00
08
10
00
24
00
00
00
00
00
00
00
00
00
00
00
00
00
00
00
ENDCHAR
STARTCHAR 0386
ENCODING 902
SWIDTH 563 0
DWIDTH 9 0
BBX 9 24 0 -6
BITMAP
0000
0000
0000
2000
4000
0000
0000
0800
0800
1400
1400
1400
2200
2200
3E00
4100
4100
4100
0000
0000
0000
0000
0000
0000
ENDCHAR
STARTCHAR 0388
ENCODING 904
SWIDTH 563 0
DWIDTH 9 0
BBX 9 24 0 -6
BITMAP
0000
0000
0000
2000
4000
0000
0000
7F00
4000
4000
4000
4000
7E00
4000
4000
4000
4000
7F00
0000
0000
0000
0000
0000
0000
ENDCHAR
STARTCHAR 0389
ENCODING 905
SWIDTH 563 0
DWIDTH 9 0
BBX 9 24 0 -6
BITMAP
0000
0000
0000
2000
4000
0000
0000
4100
4100
4100
4100
4100
7F00
4100
4100
4100
4100
4100
0000
0000
0000
0000
0000
0000
ENDCHAR
STARTCHAR 038A
ENCODING 906
SWIDTH 313 0
DWIDTH 5 0
BBX 5 24 0 -6
BITMAP
00
00
00
20
40
00
00
70
20
20
20
20
20
20
20
20
20
70
00
00
00
00
00
00
ENDCHAR
STARTCHAR 038C
ENCODING 908
SWIDTH 563 0
DWIDTH 9 0
BBX 9 24 0 -6
BITMAP
0000
0000
0000
2000
4000
0000
0000
1C00
2200
4100
4100
4100
4100
4100
4100
4100
2200
1C00
0000
0000
0000
0000
0000
0000
ENDCHAR
STARTCHAR 038E
ENCODING 910
SWIDTH 563 0
DWIDTH 9 0
BBX 9 24 0 -6
BITMAP
0000
0000
0000
2000
4000
0000
0000
4100
4100
2200
2200
1400
1400
0800
0800
0800
0800
0800
0000
0000
0000
0000
0000
0000
ENDCHAR
STARTCHAR 038F
ENCODING 911
SWIDTH 625 0
DWIDTH 10 0
BBX 10 24 0 -6
BITMAP
0000
0000
0000
2000
4000
0000
0000
1E00
2100
4080
4080
4080
4080
4080
4080
2100
1200
7380
0000
0000
0000
0000
0000
0000
ENDCHAR
STARTCHAR 0390
ENCODING 912
SWIDTH 313 0
DWIDTH 5 0
BBX 5 24 0 -6
BITMAP
00
00
00
00
00
10
20
00
50
00
20
60
20
20
20
20
20
10
00
00
00
00
00
00
ENDCHAR
STARTCHAR 0391
ENCODING 913
SWIDTH 563 0
DWIDTH 9 0
BBX 9 24 0 -6
BITMAP
0000
0000
0000
0000
0000
0000
0000
0800
0800
1400
1400
1400
2200
2200
3E00
4100
4100
4100
0000
0000
0000
0000
0000
0000
ENDCHAR
STARTCHAR 0392
ENCODING 914
SWIDTH 563 0
DWIDTH 9 0
BBX 9 24 0 -6
BITMAP
0000
0000
0000
0000
0000
0000
0000
7C00
4200
4100
4100
4200
7C00
4200
4100
4100
4200
7C00
0000
0000
0000
0000
0000
0000
ENDCHAR
STARTCHAR 0393
ENCODING 915
SWIDTH 500 0
DWIDTH 8 0
BBX 8 24 0 -6
BITMAP
00
00
00
00
00
00
00
7E
40
40
40
40
40
40
40
40
40
40
00
00
00
00
00
00
ENDCHAR
STARTCHAR 0394
ENCODING 916
SWIDTH 563 0
DWIDTH 9 0
BBX 9 24 0 -6
BITMAP
0000
0000
0000
0000
0000
0000
0000
0800
0800
1400
1400
1400
2200
2200
2200
4100
4100
7F00
0000
0000
0000
0000
0000
0000
ENDCHAR
STARTCHAR 0395
ENCODING 917
SWIDTH 563 0
DWIDTH 9 0
BBX 9 24 0 -6
BITMAP
0000
0000
0000
0000
0000
0000
0000
7F00
4000
4000
4000
4000
7E00
4000
4000
4000
4000
7F00
0000
0000
0000
0000
0000
0000
ENDCHAR
STARTCHAR 0396
ENCODING 918
SWIDTH 563 0
DWIDTH 9 0
BBX 9 24 0 -6
BITMAP
0000
0000
0000
0000
0000
0000
0000
7F00
0100
0200
0400
0400
0800
1000
1000
2000
4000
7F00
0000
0000
0000
0000
0000
0000
ENDCHAR
STARTCHAR 0397
ENCODING 919
SWIDTH 563 0
DWIDTH 9 0
BBX 9 24 0 -6
BITMAP
0000
0000
0000
0000
0000
0000
0000
4100
4100
4100
4100
4100
7F00
4100
4100
4100
4100
4100
0000
0000
0000
0000
0000
0000
ENDCHAR
STARTCHAR 0398
ENCODING 920
SWIDTH 563 0
DWIDTH 9 0
BBX 9 24 0 -6
BITMAP
0000
0000
0000
0000
0000
0000
0000
1C00
2200
4100
4100
4100
5D00
4100
4100
4100
2200
1C00
0000
0000
0000
0000
0000
0000
ENDCHAR
STARTCHAR 0399
ENCODING 921
SWIDTH 313 0
DWIDTH 5 0
BBX 5 24 0 -6
BITMAP
00
00
00
00
00
00
00
70
20
20
20
20
20
20
20
20
20
70
00
00
00
00
00
00
ENDCHAR
STARTCHAR 039A
ENCODING 922
SWIDTH 563 0
DWIDTH 9 0
BBX 9 24 0 -6
BITMAP
0000
0000
0000
0000
0000
0000
0000
4100
4200
4400
4800
5000
6000
5000
4800
4400
4200
4100
0000
0000
0000
0000
0000
0000
ENDCHAR
STARTCHAR 039B
ENCODING 923
SWIDTH 563 0
DWIDTH 9 0
BBX 9 24 0 -6
BITMAP
0000
0000
0000
0000
0000
0000
0000
0800
0800
1400
1400
1400
2200
2200
2200
4100
4100
4100
0000
0000
0000
0000
0000
0000
ENDCHAR
STARTCHAR 039C
ENCODING 924
SWIDTH 813 0
DWIDTH 13 0
BBX 13 24 0 -6
BITMAP
0000
0000
0000
0000
0000
0000
0000
4010
6030
6030
5050
5050
4890
4890
4510
4510
4210
4210
0000
0000
0000
0000
0000
0000
ENDCHAR
STARTCHAR 039D
ENCODING 925
SWIDTH 563 0
DWIDTH 9 0
BBX 9 24 0 -6
BITMAP
0000
0000
0000
0000
0000
0000
0000
4100
6100
6100
5100
5100
4900
4500
4500
4300
4300
4100
0000
0000
0000
0000
0000
0000
ENDCHAR
STARTCHAR 039E
ENCODING 926
SWIDTH 500 0
DWIDTH 8 0
BBX 8 24 0 -6
BITMAP
00
00
00
00
00
00
00
7E
00
00
00
00
3C
00
00
00
00
7E
00
00
00
00
00
00
ENDCHAR
STARTCHAR 039F
ENCODING 927
SWIDTH 563 0
DWIDTH 9 0
BBX 9 24 0 -6
BITMAP
0000
0000
0000
0000
0000
0000
0000
1C00
2200
4100
4100
4100
4100
4100
4100
4100
2200
1C00
0000
0000
0000
0000
0000
0000
ENDCHAR
STARTCHAR 03A0
ENCODING 928
SWIDTH 563 0
DWIDTH 9 0
BBX 9 24 0 -6
BITMAP
0000
0000
0000
0000
0000
0000
0000
7F00
4100
4100
4100
4100
4100
4100
4100
4100
4100
4100
0000
0000
0000
0000
0000
0000
ENDCHAR
STARTCHAR 03A1
ENCODING 929
SWIDTH 563 0
DWIDTH 9 0
BBX 9 24 0 -6
BITMAP
0000
0000
0000
0000
0000
0000
0000
7E00
4100
4100
4100
4100
7E00
4000
4000
4000
4000
4000
0000
0000
0000
0000
0000
0000
ENDCHAR
STARTCHAR 03A3
ENCODING 931
SWIDTH 563 0
DWIDTH 9 0
BBX 9 24 0 -6
BITMAP
0000
0000
0000
0000
0000
0000
0000
7F00
2000
1000
0800
0400
0200
0400
0800
1000
2000
7F00
0000
0000
0000
0000
0000
0000
ENDCHAR
STARTCHAR 03A4
ENCODING 932
SWIDTH 563 0
DWIDTH 9 0
BBX 9 24 0 -6
BITMAP
0000
0000
0000
0000
0000
0000
0000
7F00
0800
0800
0800
0800
0800
0800
0800
0800
0800
0800
0000
0000
0000
0000
0000
0000
ENDCHAR
STARTCHAR 03A5
ENCODING 933
SWIDTH 563 0
DWIDTH 9 0
BBX 9 24 0 -6
BITMAP
0000
0000
0000
0000
0000
0000
0000
4100
4100
2200
2200
1400
1400
0800
0800
0800
0800
0800
0000
0000
0000
0000
0000
0000
ENDCHAR
STARTCHAR 03A6
ENCODING 934
SWIDTH 813 0
DWIDTH 13 0
BBX 13 24 0 -6
BITMAP
0000
0000
0000
0000
0000
0000
0000
0200
1FC0
2220
4210
4210
4210
4210
4210
2220
1FC0
0200
0000
0000
0000
0000
0000
0000
ENDCHAR
STARTCHAR 03A7
ENCODING 935
SWIDTH 563 0
DWIDTH 9 0
BBX 9 24 0 -6
BITMAP
0000
0000
0000
0000
0000
0000
0000
4100
4100
2200
2200
1400
0800
1400
2200
2200
4100
4100
0000
0000
0000
0000
0000
0000
ENDCHAR
STARTCHAR 03A8
ENCODING 936
SWIDTH 813 0
DWIDTH 13 0
BBX 13 24 0 -6
BITMAP
0000
0000
0000
0000
0000
0000
0000
4210
4210
4210
4210
4210
2220
1FC0
0200
0200
0200
0200
0000
0000
0000
0000
0000
0000
ENDCHAR
STARTCHAR 03A9
ENCODING 937
SWIDTH 625 0
DWIDTH 10 0
BBX 10 24 0 -6
BITMAP
0000
0000
0000
0000
0000
0000
0000
1E00
2100
4080
4080
4080
4080
4080
4080
2100
1200
7380
0000
0000
0000
0000
0000
0000
ENDCHAR
STARTCHAR 03AA
ENCODING 938
SWIDTH 313 0
DWIDTH 5 0
BBX 5 24 0 -6
BITMAP
00
00
00
00
50
00
00
70
20
20
20
20
20
20
20
20
20
70
00
00
00
00
00
00
ENDCHAR
STARTCHAR 03AB
ENCODING 939
SWIDTH 563 0
DWIDTH 9 0
BBX 9 24 0 -6
BITMAP
0000
0000
0000
0000
1400
0000
0000
4100
4100
2200
2200
1400
1400
0800
0800
0800
0800
0800
0000
0000
0000
0000
0000
0000
ENDCHAR
STARTCHAR 03AC
ENCODING 940
SWIDTH 500 0
DWIDTH 8 0
BBX 8 24 0 -6
BITMAP
00
00
00
00
00
00
08
10
00
00
3A
46
42
42
42
42
46
3A
00
00
00
00
00
00
ENDCHAR
STARTCHAR 03AD
ENCODING 941
SWIDTH 500 0
DWIDTH 8 0
BBX 8 24 0 -6
BITMAP
00
00
00
00
00
00
08
10
00
00
3C
42
40
38
40
40
42
3C
00
00
00
00
00
00
ENDCHAR
STARTCHAR 03AE
ENCODING 942
SWIDTH 500 0
DWIDTH 8 0
BBX 8 24 0 -6
BITMAP
00
00
00
00
00
00
08
10
00
00
5C
62
42
42
42
42
42
42
02
02
02
00
00
00
ENDCHAR
STARTCHAR 03AF
ENCODING 943
SWIDTH 313 0
DWIDTH 5 0
BBX 5 24 0 -6
BITMAP
00
00
00
00
00
00
10
20
00
00
20
60
20
20
20
20
20
10
00
00
00
00
00
00
ENDCHAR
STARTCHAR 03B0
ENCODING 944
SWIDTH 500 0
DWIDTH 8 0
BBX 8 24 0 -6
BITMAP
00
00
00
00
00
08
10
00
24
00
42
42
42
42
42
42
42
3C
00
00
00
00
00
00
ENDCHAR
STARTCHAR 03B1
ENCODING 945
SWIDTH 500 0
DWIDTH 8 0
BBX 8 24 0 -6
BITMAP
00
00
00
00
00
00
00
00
00
00
3A
46
42
42
42
42
46
3A
00
00
00
00
00
00
ENDCHAR
STARTCHAR 03B2
ENCODING 946
SWIDTH 500 0
DWIDTH 8 0
BBX 8 24 0 -6
BITMAP
00
00
00
00
00
00
00
38
44
44
44
58
44
42
42
42
62
5C
40
40
40
00
00
00
ENDCHAR
STARTCHAR 03B3
ENCODING 947
SWIDTH 563 0
DWIDTH 9 0
BBX 9 24 0 -6
BITMAP
0000
0000
0000
0000
0000
0000
0000
0000
0000
0000
4100
2100
2200
1200
1400
1400
0800
0800
1000
1000
2000
0000
0000
0000
ENDCHAR
STARTCHAR 03B4
ENCODING 948
SWIDTH 500 0
DWIDTH 8 0
BBX 8 24 0 -6
BITMAP
00
00
00
00
00
00
00
3E
40
20
10
28
44
42
42
42
42
3C
00
00
00
00
00
00
ENDCHAR
STARTCHAR 03B5
ENCODING 949
SWIDTH 500 0
DWIDTH 8 0
BBX 8 24 0 -6
BITMAP
00
00
00
00
00
00
00
00
00
00
3C
42
40
38
40
40
42
3C
00
00
00
00
00
00
ENDCHAR
STARTCHAR 03B6
ENCODING 950
SWIDTH 500 0
DWIDTH 8 0
BBX 8 24 0 -6
BITMAP
00
00
00
00
00
00
00
7E
04
08
10
20
40
40
40
40
20
1C
02
02
04
00
00
00
ENDCHAR
STARTCHAR 03B7
ENCODING 951
SWIDTH 500 0
DWIDTH 8 0
BBX 8 24 0 -6
BITMAP
00
00
00
00
00
00
00
00
00
00
5C
62
42
42
42
42
42
42
02
02
02
00
00
00
ENDCHAR
STARTCHAR 03B8
ENCODING 952
SWIDTH 500 0
DWIDTH 8 0
BBX 8 24 0 -6
BITMAP
00
00
00
00
00
00
00
18
24
42
42
42
7E
42
42
42
24
18
00
00
00
00
00
00
ENDCHAR
STARTCHAR 03B9
ENCODING 953
SWIDTH 313 0
DWIDTH 5 0
BBX 5 24 0 -6
BITMAP
00
00
00
00
00
00
00
00
00
00
20
60
20
20
20
20
20
10
00
00
00
00
00
00
ENDCHAR
STARTCHAR 03BA
ENCODING 954
SWIDTH 500 0
DWIDTH 8 0
BBX 8 24 0 -6
BITMAP
00
00
00
00
00
00
00
00
00
00
42
4C
50
60
50
48
44
42
00
00
00
00
00
00
ENDCHAR
STARTCHAR 03BB
ENCODING 955
SWIDTH 500 0
DWIDTH 8 0
BBX 8 24 0 -6
BITMAP
00
00
00
00
00
00
00
60
10
10
08
08
14
14
24
22
42
42
00
00
00
00
00
00
ENDCHAR
STARTCHAR 03BC
ENCODING 956
SWIDTH 500 0
DWIDTH 8 0
BBX 8 24 0 -6
BITMAP
00
00
00
00
00
00
00
00
00
00
42
42
42
42
42
42
66
5A
40
40
40
00
00
00
ENDCHAR
STARTCHAR 03BD
ENCODING 957
SWIDTH 563 0
DWIDTH 9 0
BBX 9 24 0 -6
BITMAP
0000
0000
0000
0000
0000
0000
0000
0000
0000
0000
4100
4100
2200
2200
1400
1400
0800
0800
0000
0000
0000
0000
0000
0000
ENDCHAR
STARTCHAR 03BE
ENCODING 958
SWIDTH 500 0
DWIDTH 8 0
BBX 8 24 0 -6
BITMAP
00
00
00
00
00
00
00
1E
20
40
40
20
1C
20
40
40
20
1C
02
02
04
00
00
00
ENDCHAR
STARTCHAR 03BF
ENCODING 959
SWIDTH 500 0
DWIDTH 8 0
BBX 8 24 0 -6
BITMAP
00
00
00
00
00
00
00
00
00
00
3C
42
42
42
42
42
42
3C
00
00
00
00
00
00
ENDCHAR
STARTCHAR 03C0
ENCODING 960
SWIDTH 563 0
DWIDTH 9 0
BBX 9 24 0 -6
BITMAP
0000
0000
0000
0000
0000
0000
0000
0000
0000
0000
7F00
2200
2200
2200
2200
2200
2200
4300
0000
0000
0000
0000
0000
0000
ENDCHAR
STARTCHAR 03C1
ENCODING 961
SWIDTH 500 0
DWIDTH 8 0
BBX 8 24 0 -6
BITMAP
00
00
00
00
00
00
00
00
00
00
3C
42
42
42
42
42
42
7C
40
40
40
00
00
00
ENDCHAR
STARTCHAR 03C2
ENCODING 962
SWIDTH 500 0
DWIDTH 8 0
BBX 8 24 0 -6
BITMAP
00
00
00
00
00
00
00
00
00
00
3C
42
40
40
40
40
40
38
04
04
08
00
00
00
ENDCHAR
STARTCHAR 03C3
ENCODING 963
SWIDTH 563 0
DWIDTH 9 0
BBX 9 24 0 -6
BITMAP
0000
0000
0000
0000
0000
0000
0000
0000
0000
0000
3F00
4400
4200
4200
4200
4200
4200
3C00
0000
0000
0000
0000
0000
0000
ENDCHAR
STARTCHAR 03C4
ENCODING 964
SWIDTH 500 0
DWIDTH 8 0
BBX 8 24 0 -6
BITMAP
00
00
00
00
00
00
00
00
00
00
7E
10
10
10
10
10
10
0C
00
00
00
00
00
00
ENDCHAR
STARTCHAR 03C5
ENCODING 965
SWIDTH 500 0
DWIDTH 8 0
BBX 8 24 0 -6
BITMAP
00
00
00
00
00
00
00
00
00
00
42
42
42
42
42
42
42
3C
00
00
00
00
00
00
ENDCHAR
STARTCHAR 03C6
ENCODING 966
SWIDTH 688 0
DWIDTH 11 0
BBX 11 24 0 -6
BITMAP
0000
0000
0000
0000
0000
0000
0000
0000
0000
0000
2300
4480
4440
4440
4440
4440
2480
1F00
0400
0400
0400
0000
0000
0000
ENDCHAR
STARTCHAR 03C7
ENCODING 967
SWIDTH 563 0
DWIDTH 9 0
BBX 9 24 0 -6
BITMAP
0000
0000
0000
0000
0000
0000
0000
0000
0000
0000
4100
2100
2200
1200
1400
0800
1400
2400
2200
4200
4100
0000
0000
0000
ENDCHAR
STARTCHAR 03C8
ENCODING 968
SWIDTH 688 0
DWIDTH 11 0
BBX 11 24 0 -6
BITMAP
0000
0000
0000
0000
0000
0000
0000
0000
0000
0000
4440
4440
4440
4440
4440
4440
2480
1F00
0400
0400
0400
0000
0000
0000
ENDCHAR
STARTCHAR 03C9
ENCODING 969
SWIDTH 688 0
DWIDTH 11 0
BBX 11 24 0 -6
BITMAP
0000
0000
0000
0000
0000
0000
0000
0000
0000
0000
2080
4040
4440
4440
4440
4440
4A40
3180
0000
0000
0000
0000
0000
0000
ENDCHAR
STARTCHAR 03CA
ENCODING 970
SWIDTH 313 0
DWIDTH 5 0
BBX 5 24 0 -6
BITMAP
00
00
00
00
00
00
00
50
00
00
20
60
20
20
20
20
20
10
00
00
00
00
00
00
ENDCHAR
STARTCHAR 03CB
ENCODING 971
SWIDTH 500 0
DWIDTH 8 0
BBX 8 24 0 -6
BITMAP
00
00
00
00
00
00
00
24
00
00
42
42
42
42
42
42
42
3C
00
00
00
00
00
00
ENDCHAR
STARTCHAR 03CC
ENCODING 972
SWIDTH 500 0
DWIDTH 8 0
BBX 8 24 0 -6
BITMAP
00
00
00
00
00
00
08
10
00
00
3C
42
42
42
42
42
42
3C
00
00
00
00
00
00
ENDCHAR
STARTCHAR 03CD
ENCODING 973
SWIDTH 500 0
DWIDTH 8 0
BBX 8 24 0 -6
BITMAP
00
00
00
00
00
00
08
10
00
00
42
42
42
42
42
42
42
3C
00
00
00
00
00
00
ENDCHAR
STARTCHAR 03CE
ENCODING 974
SWIDTH 688 0
DWIDTH 11 0
BBX 11 24 0 -6
BITMAP
0000
0000
0000
0000
0000
0000
0200
0400
0000
0000
2080
4040
4440
4440
4440
4440
4A40
3180
0000
0000
0000
0000
0000
0000
ENDCHAR
STARTCHAR 0400
ENCODING 1024
SWIDTH 563 0
DWIDTH 9 0
BBX 9 24 0 -6
BITMAP
0000
0000
0000
1000
0800
0000
0000
7F00
4000
4000
4000
4000
7E00
4000
4000
4000
4000
7F00
0000
0000
0000
0000
0000
0000
ENDCHAR
STARTCHAR 0401
ENCODING 1025
SWIDTH 563 0
DWIDTH 9 0
BBX 9 24 0 -6
BITMAP
0000
0000
0000
0000
1400
0000
0000
7F00
4000
4000
4000
4000
7E00
4000
4000
4000
4000
7F00
0000
0000
0000
0000
0000
0000
ENDCHAR
STARTCHAR 0403
ENCODING 1027
SWIDTH 500 0
DWIDTH 8 0
BBX 8 24 0 -6
BITMAP
00
00
00
08
10
00
00
7E
40
40
40
40
40
40
40
40
40
40
00
00
00
00
00
00
ENDCHAR
STARTCHAR 040C
ENCODING 1036
SWIDTH 563 0
DWIDTH 9 0
BBX 9 24 0 -6
BITMAP
0000
0000
0000
0400
0800
0000
0000
4100
4200
4400
4800
5000
6000
5000
4800
4400
4200
4100
0000
0000
0000
0000
0000
0000
ENDCHAR
STARTCHAR 040D
ENCODING 1037
SWIDTH 563 0
DWIDTH 9 0
BBX 9 24 0 -6
BITMAP
0000
0000
0000
1000
0800
0000
0000
4100
4300
4300
4500
4500
4900
5100
5100
6100
6100
4100
0000
0000
0000
0000
0000
0000
ENDCHAR
STARTCHAR 0410
ENCODING 1040
SWIDTH 563 0
DWIDTH 9 0
BBX 9 24 0 -6
BITMAP
0000
0000
0000
0000
0000
0000
0000
0800
0800
1400
1400
1400
2200
2200
3E00
4100
4100
4100
0000
0000
0000
0000
0000
0000
ENDCHAR
STARTCHAR 0411
ENCODING 1041
SWIDTH 563 0
DWIDTH 9 0
BBX 9 24 0 -6
BITMAP
0000
0000
0000
0000
0000
0000
0000
7E00
4000
4000
4000
4000
7E00
4100
4100
4100
4100
7E00
0000
0000
0000
0000
0000
0000
ENDCHAR
STARTCHAR 0412
ENCODING 1042
SWIDTH 563 0
DWIDTH 9 0
BBX 9 24 0 -6
BITMAP
0000
0000
0000
0000
0000
0000
0000
7C00
4200
4100
4100
4200
7C00
4200
4100
4100
4200
7C00
0000
0000
0000
0000
0000
0000
ENDCHAR
STARTCHAR 0413
ENCODING 1043
SWIDTH 500 0
DWIDTH 8 0
BBX 8 24 0 -6
BITMAP
00
00
00
00
00
00
00
7E
40
40
40
40
40
40
40
40
40
40
00
00
00
00
00
00
ENDCHAR
STARTCHAR 0414
ENCODING 1044
SWIDTH 625 0
DWIDTH 10 0
BBX 10 24 0 -6
BITMAP
0000
0000
0000
0000
0000
0000
0000
1F00
1100
1100
1100
1100
1100
2100
2100
2100
4100
7F80
4080
4080
4080
0000
0000
0000
ENDCHAR
STARTCHAR 0415
ENCODING 1045
SWIDTH 563 0
DWIDTH 9 0
BBX 9 24 0 -6
BITMAP
0000
0000
0000
0000
0000
0000
0000
7F00
4000
4000
4000
4000
7E00
4000
4000
4000
4000
7F00
0000
0000
0000
0000
0000
0000
ENDCHAR
STARTCHAR 0416
ENCODING 1046
SWIDTH 813 0
DWIDTH 13 0
BBX 13 24 0 -6
BITMAP
0000
0000
0000
0000
0000
0000
0000
4210
2220
2220
1240
0A80
0700
0A80
1240
2220
4210
4210
0000
0000
0000
0000
0000
0000
ENDCHAR
STARTCHAR 0417
ENCODING 1047
SWIDTH 563 0
DWIDTH 9 0
BBX 9 24 0 -6
BITMAP
0000
0000
0000
0000
0000
0000
0000
3C00
4200
0100
0100
0200
1C00
0200
0100
0100
4200
3C00
0000
0000
0000
0000
0000
0000
ENDCHAR
STARTCHAR 0418
ENCODING 1048
SWIDTH 563 0
DWIDTH 9 0
BBX 9 24 0 -6
BITMAP
0000
0000
0000
0000
0000
0000
0000
4100
4300
4300
4500
4500
4900
5100
5100
6100
6100
4100
0000
0000
0000
0000
0000
0000
ENDCHAR
STARTCHAR 0419
ENCODING 1049
SWIDTH 563 0
DWIDTH 9 0
BBX 9 24 0 -6
BITMAP
0000
0000
0000
1400
0800
0000
0000
4100
4300
4300
4500
4500
4900
5100
5100
6100
6100
4100
0000
0000
0000
0000
0000
0000
ENDCHAR
STARTCHAR 041A
ENCODING 1050
SWIDTH 563 0
DWIDTH 9 0
BBX 9 24 0 -6
BITMAP
0000
0000
0000
0000
0000
0000
0000
4100
4200
4400
4800
5000
6000
5000
4800
4400
4200
4100
0000
0000
0000
0000
0000
0000
ENDCHAR
STARTCHAR 041B
ENCODING 1051
SWIDTH 563 0
DWIDTH 9 0
BBX 9 24 0 -6
BITMAP
0000
0000
0000
0000
0000
0000
0000
1F00
1100
1100
1100
1100
1100
1100
1100
2100
2100
4100
0000
0000
0000
0000
0000
0000
ENDCHAR
STARTCHAR 041C
ENCODING 1052
SWIDTH 813 0
DWIDTH 13 0
BBX 13 24 0 -6
BITMAP
0000
0000
0000
0000
0000
0000
0000
4010
6030
6030
5050
5050
4890
4890
4510
4510
4210
4210
0000
0000
0000
0000
0000
0000
ENDCHAR
STARTCHAR 041D
ENCODING 1053
SWIDTH 563 0
DWIDTH 9 0
BBX 9 24 0 -6
BITMAP
0000
0000
0000
0000
0000
0000
0000
4100
4100
4100
4100
4100
7F00
4100
4100
4100
4100
4100
0000
0000
0000
0000
0000
0000
ENDCHAR
STARTCHAR 041E
ENCODING 1054
SWIDTH 563 0
DWIDTH 9 0
BBX 9 24 0 -6
BITMAP
0000
0000
0000
0000
0000
0000
0000
1C00
2200
4100
4100
4100
4100
4100
4100
4100
2200
1C00
0000
0000
0000
0000
0000
0000
ENDCHAR
STARTCHAR 041F
ENCODING 1055
SWIDTH 563 0
DWIDTH 9 0
BBX 9 24 0 -6
BITMAP
0000
0000
0000
0000
0000
0000
0000
7F00
4100
4100
4100
4100
4100
4100
4100
4100
4100
4100
0000
0000
0000
0000
0000
0000
ENDCHAR
STARTCHAR 0420
ENCODING 1056
SWIDTH 563 0
DWIDTH 9 0
BBX 9 24 0 -6
BITMAP
0000
0000
0000
0000
0000
0000
0000
7E00
4100
4100
4100
4100
7E00
4000
4000
4000
4000
4000
0000
0000
0000
0000
0000
0000
ENDCHAR
STARTCHAR 0421
ENCODING 1057
SWIDTH 563 0
DWIDTH 9 0
BBX 9 24 0 -6
BITMAP
0000
0000
0000
0000
0000
0000
0000
1E00
2100
4000
4000
4000
4000
4000
4000
4000
2100
1E00
0000
0000
0000
0000
0000
0000
ENDCHAR
STARTCHAR 0422
ENCODING 1058
SWIDTH 563 0
DWIDTH 9 0
BBX 9 24 0 -6
BITMAP
0000
0000
0000
0000
0000
0000
0000
7F00
0800
0800
0800
0800
0800
0800
0800
0800
0800
0800
0000
0000
0000
0000
0000
0000
ENDCHAR
STARTCHAR 0423
ENCODING 1059
SWIDTH 563 0
DWIDTH 9 0
BBX 9 24 0 -6
BITMAP
0000
0000
0000
0000
0000
0000
0000
4100
4100
2200
2200
2200
1400
1400
0800
0800
1000
6000
0000
0000
0000
0000
0000
0000
ENDCHAR
STARTCHAR 0424
ENCODING 1060
SWIDTH 813 0
DWIDTH 13 0
BBX 13 24 0 -6
BITMAP
0000
0000
0000
0000
0000
0000
0000
0200
1FC0
2220
4210
4210
4210
4210
4210
2220
1FC0
0200
0000
0000
0000
0000
0000
0000
ENDCHAR
STARTCHAR 0425
ENCODING 1061
SWIDTH 563 0
DWIDTH 9 0
BBX 9 24 0 -6
BITMAP
0000
0000
0000
0000
0000
0000
0000
4100
4100
2200
2200
1400
0800
1400
2200
2200
4100
4100
0000
0000
0000
0000
0000
0000
ENDCHAR
STARTCHAR 0426
ENCODING 1062
SWIDTH 625 0
DWIDTH 10 0
BBX 10 24 0 -6
BITMAP
0000
0000
0000
0000
0000
0000
0000
4100
4100
4100
4100
4100
4100
4100
4100
4100
4100
7F80
0080
0080
0000
0000
0000
0000
ENDCHAR
STARTCHAR 0427
ENCODING 1063
SWIDTH 563 0
DWIDTH 9 0
BBX 9 24 0 -6
BITMAP
0000
0000
0000
0000
0000
0000
0000
4100
4100
4100
4100
2300
1D00
0100
0100
0100
0100
0100
0000
0000
0000
0000
0000
0000
ENDCHAR
STARTCHAR 0428
ENCODING 1064
SWIDTH 813 0
DWIDTH 13 0
BBX 13 24 0 -6
BITMAP
0000
0000
0000
0000
0000
0000
0000
4210
4210
4210
4210
4210
4210
4210
4210
4210
4210
7FF0
0000
0000
0000
0000
0000
0000
ENDCHAR
STARTCHAR 0429
ENCODING 1065
SWIDTH 875 0
DWIDTH 14 0
BBX 14 24 0 -6
BITMAP
0000
0000
0000
0000
0000
0000
0000
4210
4210
4210
4210
4210
4210
4210
4210
4210
4210
7FF8
0008
0008
0000
0000
0000
0000
ENDCHAR
STARTCHAR 042A
ENCODING 1066
SWIDTH 688 0
DWIDTH 11 0
BBX 11 24 0 -6
BITMAP
0000
0000
0000
0000
0000
0000
0000
7000
1000
1000
1000
1000
1F80
1040
1040
1040
1040
1F80
0000
0000
0000
0000
0000
0000
ENDCHAR
STARTCHAR 042B
ENCODING 1067
SWIDTH 688 0
DWIDTH 11 0
BBX 11 24 0 -6
BITMAP
0000
0000
0000
0000
0000
0000
0000
4040
4040
4040
4040
4040
7E40
4140
4140
4140
4140
7E40
0000
0000
0000
0000
0000
0000
ENDCHAR
STARTCHAR 042C
ENCODING 1068
SWIDTH 563 0
DWIDTH 9 0
BBX 9 24 0 -6
BITMAP
0000
0000
0000
0000
0000
0000
0000
4000
4000
4000
4000
4000
7E00
4100
4100
4100
4100
7E00
0000
0000
0000
0000
0000
0000
ENDCHAR
STARTCHAR 042D
ENCODING 1069
SWIDTH 563 0
DWIDTH 9 0
BBX 9 24 0 -6
BITMAP
0000
0000
0000
0000
0000
0000
0000
3C00
4200
0100
0100
0100
1F00
0100
0100
0100
4200
3C00
0000
0000
0000
0000
0000
0000
ENDCHAR
STARTCHAR 042E
ENCODING 1070
SWIDTH 750 0
DWIDTH 12 0
BBX 12 24 0 -6
BITMAP
0000
0000
0000
0000
0000
0000
0000
4380
4440
4820
4820
4820
7820
4820
4820
4820
4440
4380
0000
0000
0000
0000
0000
0000
ENDCHAR
STARTCHAR 042F
ENCODING 1071
SWIDTH 563 0
DWIDTH 9 0
BBX 9 24 0 -6
BITMAP
0000
0000
0000
0000
0000
0000
0000
3F00
4100
4100
4100
4100
3F00
0900
1100
1100
2100
4100
0000
0000
0000
0000
0000
0000
ENDCHAR
STARTCHAR 0430
ENCODING 1072
SWIDTH 500 0
DWIDTH 8 0
BBX 8 24 0 -6
BITMAP
00
00
00
00
00
00
00
00
00
00
3C
02
02
3E
42
42
42
3E
00
00
00
00
00
00
ENDCHAR
STARTCHAR 0431
ENCODING 1073
SWIDTH 500 0
DWIDTH 8 0
BBX 8 24 0 -6
BITMAP
00
00
00
00
00
00
00
02
3C
40
40
7C
42
42
42
42
42
3C
00
00
00
00
00
00
ENDCHAR
STARTCHAR 0432
ENCODING 1074
SWIDTH 500 0
DWIDTH 8 0
BBX 8 24 0 -6
BITMAP
00
00
00
00
00
00
00
00
00
00
7C
42
42
7C
42
42
42
7C
00
00
00
00
00
00
ENDCHAR
STARTCHAR 0433
ENCODING 1075
SWIDTH 438 0
DWIDTH 7 0
BBX 7 24 0 -6
BITMAP
00
00
00
00
00
00
00
00
00
00
7C
40
40
40
40
40
40
40
00
00
00
00
00
00
ENDCHAR
STARTCHAR 0434
ENCODING 1076
SWIDTH 625 0
DWIDTH 10 0
BBX 10 24 0 -6
BITMAP
0000
0000
0000
0000
0000
0000
0000
0000
0000
0000
1F00
1100
1100
1100
2100
2100
4100
7F80
4080
4080
0000
0000
0000
0000
ENDCHAR
STARTCHAR 0435
ENCODING 1077
SWIDTH 500 0
DWIDTH 8 0
BBX 8 24 0 -6
BITMAP
00
00
00
00
00
00
00
00
00
00
3C
42
42
7E
40
40
42
3C
00
00
00
00
00
00
ENDCHAR
STARTCHAR 0436
ENCODING 1078
SWIDTH 688 0
DWIDTH 11 0
BBX 11 24 0 -6
BITMAP
0000
0000
0000
0000
0000
0000
0000
0000
0000
0000
4440
2480
1500
0E00
1500
2480
4440
4440
0000
0000
0000
0000
0000
0000
ENDCHAR
STARTCHAR 0437
ENCODING 1079
SWIDTH 500 0
DWIDTH 8 0
BBX 8 24 0 -6
BITMAP
00
00
00
00
00
00
00
00
00
00
3C
42
02
1C
02
02
42
3C
00
00
00
00
00
00
ENDCHAR
STARTCHAR 0438
ENCODING 1080
SWIDTH 500 0
DWIDTH 8 0
BBX 8 24 0 -6
BITMAP
00
00
00
00
00
00
00
00
00
00
42
46
4A
4A
52
52
62
42
00
00
00
00
00
00
ENDCHAR
STARTCHAR 0439
ENCODING 1081
SWIDTH 500 0
DWIDTH 8 0
BBX 8 24 0 -6
BITMAP
00
00
00
00
00
00
24
18
00
00
42
46
4A
4A
52
52
62
42
00
00
00
00
00
00
ENDCHAR
STARTCHAR 043A
ENCODING 1082
SWIDTH 500 0
DWIDTH 8 0
BBX 8 24 0 -6
BITMAP
00
00
00
00
00
00
00
00
00
00
42
4C
50
60
50
48
44
42
00
00
00
00
00
00
ENDCHAR
STARTCHAR 043B
ENCODING 1083
SWIDTH 500 0
DWIDTH 8 0
BBX 8 24 0 -6
BITMAP
00
00
00
00
00
00
00
00
00
00
3E
22
22
22
22
22
22
42
00
00
00
00
00
00
ENDCHAR
STARTCHAR 043C
ENCODING 1084
SWIDTH 688 0
DWIDTH 11 0
BBX 11 24 0 -6
BITMAP
0000
0000
0000
0000
0000
0000
0000
0000
0000
0000
4040
60C0
5140
5140
4A40
4A40
4440
4440
0000
0000
0000
0000
0000
0000
ENDCHAR
STARTCHAR 043D
ENCODING 1085
SWIDTH 500 0
DWIDTH 8 0
BBX 8 24 0 -6
BITMAP
00
00
00
00
00
00
00
00
00
00
42
42
42
7E
42
42
42
42
00
00
00
00
00
00
ENDCHAR
STARTCHAR 043E
ENCODING 1086
SWIDTH 500 0
DWIDTH 8 0
BBX 8 24 0 -6
BITMAP
00
00
00
00
00
00
00
00
00
00
3C
42
42
42
42
42
42
3C
00
00
00
00
00
00
ENDCHAR
STARTCHAR 043F
ENCODING 1087
SWIDTH 500 0
DWIDTH 8 0
BBX 8 24 0 -6
BITMAP
00
00
00
00
00
00
00
00
00
00
7E
42
42
42
42
42
42
42
00
00
00
00
00
00
ENDCHAR
STARTCHAR 0440
ENCODING 1088
SWIDTH 500 0
DWIDTH 8 0
BBX 8 24 0 -6
BITMAP
00
00
00
00
00
00
00
00
00
00
7C
42
42
42
42
42
42
7C
40
40
40
00
00
00
ENDCHAR
STARTCHAR 0441
ENCODING 1089
SWIDTH 500 0
DWIDTH 8 0
BBX 8 24 0 -6
BITMAP
00
00
00
00
00
00
00
00
00
00
3C
42
40
40
40
40
42
3C
00
00
00
00
00
00
ENDCHAR
STARTCHAR 0442
ENCODING 1090
SWIDTH 563 0
DWIDTH 9 0
BBX 9 24 0 -6
BITMAP
0000
0000
0000
0000
0000
0000
0000
0000
0000
0000
7F00
0800
0800
0800
0800
0800
0800
0800
0000
0000
0000
0000
0000
0000
ENDCHAR
STARTCHAR 0443
ENCODING 1091
SWIDTH 563 0
DWIDTH 9 0
BBX 9 24 0 -6
BITMAP
0000
0000
0000
0000
0000
0000
0000
0000
0000
0000
4100
4100
2200
2200
2200
1400
1400
0800
0800
1000
6000
0000
0000
0000
ENDCHAR
STARTCHAR 0444
ENCODING 1092
SWIDTH 688 0
DWIDTH 11 0
BBX 11 24 0 -6
BITMAP
0000
0000
0000
0000
0000
0000
0000
0400
0400
0400
3F80
4440
4440
4440
4440
4440
4440
3F80
0400
0400
0400
0000
0000
0000
ENDCHAR
STARTCHAR 0445
ENCODING 1093
SWIDTH 563 0
DWIDTH 9 0
BBX 9 24 0 -6
BITMAP
0000
0000
0000
0000
0000
0000
0000
0000
0000
0000
4100
2200
1400
0800
0800
1400
2200
4100
0000
0000
0000
0000
0000
0000
ENDCHAR
STARTCHAR 0446
ENCODING 1094
SWIDTH 563 0
DWIDTH 9 0
BBX 9 24 0 -6
BITMAP
0000
0000
0000
0000
0000
0000
0000
0000
0000
0000
4200
4200
4200
4200
4200
4200
4200
7F00
0100
0100
0000
0000
0000
0000
ENDCHAR
STARTCHAR 0447
ENCODING 1095
SWIDTH 500 0
DWIDTH 8 0
BBX 8 24 0 -6
BITMAP
00
00
00
00
00
00
00
00
00
00
42
42
42
46
3A
02
02
02
00
00
00
00
00
00
ENDCHAR
STARTCHAR 0448
ENCODING 1096
SWIDTH 688 0
DWIDTH 11 0
BBX 11 24 0 -6
BITMAP
0000
0000
0000
0000
0000
0000
0000
0000
0000
0000
4440
4440
4440
4440
4440
4440
4440
7FC0
0000
0000
0000
0000
0000
0000
ENDCHAR
STARTCHAR 0449
ENCODING 1097
SWIDTH 750 0
DWIDTH 12 0
BBX 12 24 0 -6
BITMAP
0000
0000
0000
0000
0000
0000
0000
0000
0000
0000
4440
4440
4440
4440
4440
4440
4440
7FE0
0020
0020
0000
0000
0000
0000
ENDCHAR
STARTCHAR 044A
ENCODING 1098
SWIDTH 625 0
DWIDTH 10 0
BBX 10 24 0 -6
BITMAP
0000
0000
0000
0000
0000
0000
0000
0000
0000
0000
7000
1000
1000
1F00
1080
1080
1080
1F00
0000
0000
0000
0000
0000
0000
ENDCHAR
STARTCHAR 044B
ENCODING 1099
SWIDTH 625 0
DWIDTH 10 0
BBX 10 24 0 -6
BITMAP
0000
0000
0000
0000
0000
0000
0000
0000
0000
0000
4080
4080
4080
7C80
4280
4280
4280
7C80
0000
0000
0000
0000
0000
0000
ENDCHAR
STARTCHAR 044C
ENCODING 1100
SWIDTH 500 0
DWIDTH 8 0
BBX 8 24 0 -6
BITMAP
00
00
00
00
00
00
00
00
00
00
40
40
40
7C
42
42
42
7C
00
00
00
00
00
00
ENDCHAR
STARTCHAR 044D
ENCODING 1101
SWIDTH 500 0
DWIDTH 8 0
BBX 8 24 0 -6
BITMAP
00
00
00
00
00
00
00
00
00
00
3C
42
02
1E
02
02
42
3C
00
00
00
00
00
00
ENDCHAR
STARTCHAR 044E
ENCODING 1102
SWIDTH 688 0
DWIDTH 11 0
BBX 11 24 0 -6
BITMAP
0000
0000
0000
0000
0000
0000
0000
0000
0000
0000
4780
4840
4840
7840
4840
4840
4840
4780
0000
0000
0000
0000
0000
0000
ENDCHAR
STARTCHAR 044F
ENCODING 1103
SWIDTH 500 0
DWIDTH 8 0
BBX 8 24 0 -6
BITMAP
00
00
00
00
00
00
00
00
00
00
3E
42
42
42
3E
12
22
42
00
00
00
00
00
00
ENDCHAR
STARTCHAR 0450
ENCODING 1104
SWIDTH 500 0
DWIDTH 8 0
BBX 8 24 0 -6
BITMAP
00
00
00
00
00
00
10
08
00
00
3C
42
42
7E
40
40
42
3C
00
00
00
00
00
00
ENDCHAR
STARTCHAR 0451
ENCODING 1105
SWIDTH 500 0
DWIDTH 8 0
BBX 8 24 0 -6
BITMAP
00
00
00
00
00
00
00
24
00
00
3C
42
42
7E
40
40
42
3C
00
00
00
00
00
00
ENDCHAR
STARTCHAR 0453
ENCODING 1107
SWIDTH 438 0
DWIDTH 7 0
BBX 7 24 0 -6
BITMAP
00
00
00
00
00
00
08
10
00
00
7C
40
40
40
40
40
40
40
00
00
00
00
00
00
ENDCHAR
STARTCHAR 045C
ENCODING 1116
SWIDTH 500 0
DWIDTH 8 0
BBX 8 24 0 -6
BITMAP
00
00
00
00
00
00
08
10
00
00
42
4C
50
60
50
48
44
42
00
00
00
00
00
00
ENDCHAR
STARTCHAR 045D
ENCODING 1117
SWIDTH 500 0
DWIDTH 8 0
BBX 8 24 0 -6
BITMAP
00
00
00
00
00
00
10
08
00
00
42
46
4A
4A
52
52
62
42
00
00
00
00
00
00
ENDCHAR
STARTCHAR 04E2
ENCODING 1250
SWIDTH 563 0
DWIDTH 9 0
BBX 9 24 0 -6
BITMAP
0000
0000
0000
0000
1C00
0000
0000
4100
4300
4300
4500
4500
4900
5100
5100
6100
6100
4100
0000
0000
0000
0000
0000
0000
ENDCHAR
STARTCHAR 04E3
ENCODING 1251
SWIDTH 500 0
DWIDTH 8 0
BBX 8 24 0 -6
BITMAP
00
00
00
00
00
00
00
3C
00
00
42
46
4A
4A
52
52
62
42
00
00
00
00
00
00
ENDCHAR
STARTCHAR 04EE
ENCODING 1262
SWIDTH 563 0
DWIDTH 9 0
BBX 9 24 0 -6
BITMAP
0000
0000
0000
0000
1C00
0000
0000
4100
4100
2200
2200
2200
1400
1400
0800
0800
1000
6000
0000
0000
0000
0000
0000
0000
ENDCHAR
STARTCHAR 04EF
ENCODING 1263
SWIDTH 563 0
DWIDTH 9 0
BBX 9 24 0 -6
BITMAP
0000
0000
0000
0000
0000
0000
0000
1C00
0000
0000
4100
4100
2200
2200
2200
1400
1400
0800
0800
1000
6000
0000
0000
0000
ENDCHAR
STARTCHAR 2010
ENCODING 8208
SWIDTH 1000 0
DWIDTH 16 0
BBX 16 16 0 -2
BITMAP
0000
0000
0000
0000
0000
0000
0000
0000
0FE0
0000
0000
0000
0000
0000
0000
0000
ENDCHAR
STARTCHAR 2011
ENCODING 8209
SWIDTH 500 0
DWIDTH 8 0
BBX 8 16 0 -2
BITMAP
00
00
00
00
00
00
00
00
FE
00
00
00
00
00
00
00
ENDCHAR
STARTCHAR 2012
ENCODING 8210
SWIDTH 500 0
DWIDTH 8 0
BBX 8 16 0 -2
BITMAP
00
00
00
00
00
00
00
00
FE
00
00
00
00
00
00
00
ENDCHAR
STARTCHAR 2013
ENCODING 8211
SWIDTH 500 0
DWIDTH 8 0
BBX 8 16 0 -2
BITMAP
00
00
00
00
00
00
00
00
FF
00
00
00
00
00
00
00
ENDCHAR
STARTCHAR 2014
ENCODING 8212
SWIDTH 1000 0
DWIDTH 16 0
BBX 16 16 0 -2
BITMAP
0000
0000
0000
0000
0000
0000
0000
0000
FFFE
0000
0000
0000
0000
0000
0000
0000
ENDCHAR
STARTCHAR 2015
ENCODING 8213
SWIDTH 1000 0
DWIDTH 16 0
BBX 16 16 0 -2
BITMAP
0000
0000
0000
0000
0000
0000
0000
0000
FFFF
0000
0000
0000
0000
0000
0000
0000
ENDCHAR
STARTCHAR 2016
ENCODING 8214
SWIDTH 1000 0
DWIDTH 16 0
BBX 16 16 0 -2
BITMAP
0000
0280
0280
0280
0280
0280
0280
0280
0280
0280
0280
0280
0280
0280
0280
0280
ENDCHAR
STARTCHAR 2017
ENCODING 8215
SWIDTH 1000 0
DWIDTH 16 0
BBX 16 16 0 -2
BITMAP
0000
0000
0000
0000
0000
0000
0000
0000
0000
0000
0000
0000
0000
FFFE
0000
FFFE
ENDCHAR
STARTCHAR 2018
ENCODING 8216
SWIDTH 375 0
DWIDTH 6 0
BBX 6 24 0 -6
BITMAP
00
00
00
00
00
00
00
10
20
30
30
00
00
00
00
00
00
00
00
00
00
00
00
00
ENDCHAR
STARTCHAR 2019
ENCODING 8217
SWIDTH 375 0
DWIDTH 6 0
BBX 6 24 0 -6
BITMAP
00
00
00
00
00
00
00
30
30
10
20
00
00
00
00
00
00
00
00
00
00
00
00
00
ENDCHAR
STARTCHAR 201A
ENCODING 8218
SWIDTH 375 0
DWIDTH 6 0
BBX 6 24 0 -6
BITMAP
00
00
00
00
00
00
00
00
00
00
00
00
00
00
00
00
30
30
10
20
00
00
00
00
ENDCHAR
STARTCHAR 201B
ENCODING 8219
SWIDTH 375 0
DWIDTH 6 0
BBX 6 24 0 -6
BITMAP
00
00
00
00
00
00
00
30
30
20
10
00
00
00
00
00
00
00
00
00
00
00
00
00
ENDCHAR
STARTCHAR 201C
ENCODING 8220
SWIDTH 563 0
DWIDTH 9 0
BBX 9 24 0 -6
BITMAP
0000
0000
0000
0000
0000
0000
0000
1200
2400
3600
3600
0000
0000
0000
0000
0000
0000
0000
0000
0000
0000
0000
0000
0000
ENDCHAR
STARTCHAR 201D
ENCODING 8221
SWIDTH 563 0
DWIDTH 9 0
BBX 9 24 0 -6
BITMAP
0000
0000
0000
0000
0000
0000
0000
3600
3600
1200
2400
0000
0000
0000
0000
0000
0000
0000
0000
0000
0000
0000
0000
0000
ENDCHAR
STARTCHAR 201E
ENCODING 8222
SWIDTH 563 0
DWIDTH 9 0
BBX 9 24 0 -6
BITMAP
0000
0000
0000
0000
0000
0000
0000
0000
0000
0000
0000
0000
0000
0000
0000
0000
3600
3600
1200
2400
0000
0000
0000
0000
ENDCHAR
STARTCHAR 201F
ENCODING 8223
SWIDTH 563 0
DWIDTH 9 0
BBX 9 24 0 -6
BITMAP
0000
0000
0000
0000
0000
0000
0000
3600
3600
2400
1200
0000
0000
0000
0000
0000
0000
0000
0000
0000
0000
0000
0000
0000
ENDCHAR
STARTCHAR 2020
ENCODING 8224
SWIDTH 1000 0
DWIDTH 16 0
BBX 16 16 0 -2
BITMAP
0000
0100
0100
0100
0100
1FF0
0100
0100
0100
0100
0100
0100
0100
0100
0100
0100
ENDCHAR
STARTCHAR 2021
ENCODING 8225
SWIDTH 1000 0
DWIDTH 16 0
BBX 16 16 0 -2
BITMAP
0000
0100
0100
0100
1FF0
0100
0100
0100
0100
0100
0100
0100
1FF0
0100
0100
0100
ENDCHAR
STARTCHAR 2022
ENCODING 8226
SWIDTH 1000 0
DWIDTH 16 0
BBX 16 16 0 -2
BITMAP
0000
0000
0000
0000
0000
0000
0380
07C0
07C0
07C0
0380
0000
0000
0000
0000
0000
ENDCHAR
STARTCHAR 2023
ENCODING 8227
SWIDTH 1000 0
DWIDTH 16 0
BBX 16 16 0 -2
BITMAP
0000
0000
0000
0000
0000
0600
0700
0780
07C0
0780
0700
0600
0000
0000
0000
0000
ENDCHAR
STARTCHAR 2024-123456
ENCODING 8228
SWIDTH 1000 0
DWIDTH 16 0
BBX 16 24 0 -6
BITMAP
0000
0000
0000
0000
0000
0000
0000
0000
0000
0000
0000
0000
0180
0180
0000
0000
0000
0000
0000
0000
0000
0000
0000
0000
ENDCHAR
STARTCHAR 2025-123456
ENCODING 8229
SWIDTH 1000 0
DWIDTH 16 0
BBX 16 24 0 -6
BITMAP
0000
0000
0000
0000
0000
0000
0000
0000
0000
0000
0000
0000
0C30
0C30
0000
0000
0000
0000
0000
0000
0000
0000
0000
0000
ENDCHAR
STARTCHAR 2026-123456
ENCODING 8230
SWIDTH 1000 0
DWIDTH 16 0
BBX 16 24 0 -6
BITMAP
0000
0000
0000
0000
0000
0000
0000
0000
0000
0000
0000
0000
318C
318C
0000
0000
0000
0000
0000
0000
0000
0000
0000
0000
ENDCHAR
STARTCHAR 2027-123456
ENCODING 8231
SWIDTH 1000 0
DWIDTH 16 0
BBX 16 24 0 -6
BITMAP
0000
0000
0000
0000
0000
0000
0000
0000
0000
0000
0000
0000
0180
0180
0000
0000
0000
0000
0000
0000
0000
0000
0000
0000
ENDCHAR
STARTCHAR 2030
ENCODING 8240
SWIDTH 1000 0
DWIDTH 16 0
BBX 16 16 0 -2
BITMAP
0000
0000
0000
1840
2480
2480
1900
0100
0200
0400
04D8
0924
0924
10D8
0000
0000
ENDCHAR
STARTCHAR 2031
ENCODING 8241
SWIDTH 1000 0
DWIDTH 16 0
BBX 16 16 0 -2
BITMAP
0000
0000
0000
6100
9200
9200
6400
0400
0800
1000
136C
2492
2492
436C
0000
0000
ENDCHAR
STARTCHAR 2032
ENCODING 8242
SWIDTH 313 0
DWIDTH 5 0
BBX 5 24 0 -6
BITMAP
00
00
00
00
00
00
20
20
20
00
00
00
00
00
00
00
00
00
00
00
00
00
00
00
ENDCHAR
STARTCHAR 2033
ENCODING 8243
SWIDTH 438 0
DWIDTH 7 0
BBX 7 24 0 -6
BITMAP
00
00
00
00
00
00
28
28
28
00
00
00
00
00
00
00
00
00
00
00
00
00
00
00
ENDCHAR
STARTCHAR 203B
ENCODING 8251
SWIDTH 1000 0
DWIDTH 16 0
BBX 16 16 0 -2
BITMAP
0000
0100
4384
2108
1010
0820
0440
4284
E10E
4284
0440
0820
1010
2108
4384
0100
ENDCHAR
STARTCHAR 203E
ENCODING 8254
SWIDTH 500 0
DWIDTH 8 0
BBX 8 16 0 -2
BITMAP
00
FE
00
00
00
00
00
00
00
00
00
00
00
00
00
00
ENDCHAR
STARTCHAR 204B
ENCODING 8267
SWIDTH 563 0
DWIDTH 9 0
BBX 9 24 0 -6
BITMAP
0000
0000
0000
0000
0000
0000
0000
7800
5E00
5F00
5F00
5F00
5F00
5E00
5800
5000
5000
5000
5000
5000
5000
0000
0000
0000
ENDCHAR
STARTCHAR 204C
ENCODING 8268
SWIDTH 563 0
DWIDTH 9 0
BBX 9 24 0 -6
BITMAP
0000
0000
0000
0000
0000
0000
0000
0000
0000
0000
0F00
3D00
7D00
7D00
7D00
7D00
3D00
0F00
0000
0000
0000
0000
0000
0000
ENDCHAR
STARTCHAR 204D
ENCODING 8269
SWIDTH 563 0
DWIDTH 9 0
BBX 9 24 0 -6
BITMAP
0000
0000
0000
0000
0000
0000
0000
0000
0000
0000
7800
5E00
5F00
5F00
5F00
5F00
5E00
7800
0000
0000
0000
0000
0000
0000
ENDCHAR
STARTCHAR 2070
ENCODING 8304
SWIDTH 438 0
DWIDTH 7 0
BBX 7 24 0 -6
BITMAP
00
00
00
00
00
38
44
4C
54
64
44
38
00
00
00
00
00
00
00
00
00
00
00
00
ENDCHAR
STARTCHAR 2071
ENCODING 8305
SWIDTH 438 0
DWIDTH 7 0
BBX 7 24 0 -6
BITMAP
00
00
00
00
00
10
00
30
10
10
10
38
00
00
00
00
00
00
00
00
00
00
00
00
ENDCHAR
STARTCHAR 2074
ENCODING 8308
SWIDTH 438 0
DWIDTH 7 0
BBX 7 24 0 -6
BITMAP
00
00
00
00
00
18
28
28
48
48
7C
08
00
00
00
00
00
00
00
00
00
00
00
00
ENDCHAR
STARTCHAR 2075
ENCODING 8309
SWIDTH 438 0
DWIDTH 7 0
BBX 7 24 0 -6
BITMAP
00
00
00
00
00
7C
40
40
78
04
44
38
00
00
00
00
00
00
00
00
00
00
00
00
ENDCHAR
STARTCHAR 2076
ENCODING 8310
SWIDTH 438 0
DWIDTH 7 0
BBX 7 24 0 -6
BITMAP
00
00
00
00
00
38
44
40
78
44
44
38
00
00
00
00
00
00
00
00
00
00
00
00
ENDCHAR
STARTCHAR 2077
ENCODING 8311
SWIDTH 438 0
DWIDTH 7 0
BBX 7 24 0 -6
BITMAP
00
00
00
00
00
7C
04
08
08
10
10
10
00
00
00
00
00
00
00
00
00
00
00
00
ENDCHAR
STARTCHAR 2078
ENCODING 8312
SWIDTH 438 0
DWIDTH 7 0
BBX 7 24 0 -6
BITMAP
00
00
00
00
00
38
44
44
38
44
44
38
00
00
00
00
00
00
00
00
00
00
00
00
ENDCHAR
STARTCHAR 2079
ENCODING 8313
SWIDTH 438 0
DWIDTH 7 0
BBX 7 24 0 -6
BITMAP
00
00
00
00
00
38
44
44
3C
04
44
38
00
00
00
00
00
00
00
00
00
00
00
00
ENDCHAR
STARTCHAR 207A
ENCODING 8314
SWIDTH 438 0
DWIDTH 7 0
BBX 7 24 0 -6
BITMAP
00
00
00
00
00
00
10
10
7C
10
10
00
00
00
00
00
00
00
00
00
00
00
00
00
ENDCHAR
STARTCHAR 207B
ENCODING 8315
SWIDTH 438 0
DWIDTH 7 0
BBX 7 24 0 -6
BITMAP
00
00
00
00
00
00
00
00
7C
00
00
00
00
00
00
00
00
00
00
00
00
00
00
00
ENDCHAR
STARTCHAR 207C
ENCODING 8316
SWIDTH 438 0
DWIDTH 7 0
BBX 7 24 0 -6
BITMAP
00
00
00
00
00
00
00
7C
00
7C
00
00
00
00
00
00
00
00
00
00
00
00
00
00
ENDCHAR
STARTCHAR 207D
ENCODING 8317
SWIDTH 250 0
DWIDTH 4 0
BBX 4 24 0 -6
BITMAP
00
00
00
00
00
20
40
40
40
40
40
20
00
00
00
00
00
00
00
00
00
00
00
00
ENDCHAR
STARTCHAR 207E
ENCODING 8318
SWIDTH 250 0
DWIDTH 4 0
BBX 4 24 0 -6
BITMAP
00
00
00
00
00
40
20
20
20
20
20
40
00
00
00
00
00
00
00
00
00
00
00
00
ENDCHAR
STARTCHAR 207F
ENCODING 8319
SWIDTH 438 0
DWIDTH 7 0
BBX 7 24 0 -6
BITMAP
00
00
00
00
00
00
00
58
64
44
44
44
00
00
00
00
00
00
00
00
00
00
00
00
ENDCHAR
STARTCHAR 2080
ENCODING 8320
SWIDTH 438 0
DWIDTH 7 0
BBX 7 24 0 -6
BITMAP
00
00
00
00
00
00
00
00
00
00
00
00
00
38
44
4C
54
64
44
38
00
00
00
00
ENDCHAR
STARTCHAR 2081
ENCODING 8321
SWIDTH 438 0
DWIDTH 7 0
BBX 7 24 0 -6
BITMAP
00
00
00
00
00
00
00
00
00
00
00
00
00
10
70
10
10
10
10
7C
00
00
00
00
ENDCHAR
STARTCHAR 2082
ENCODING 8322
SWIDTH 438 0
DWIDTH 7 0
BBX 7 24 0 -6
BITMAP
00
00
00
00
00
00
00
00
00
00
00
00
00
38
44
04
18
20
40
7C
00
00
00
00
ENDCHAR
STARTCHAR 2083
ENCODING 8323
SWIDTH 438 0
DWIDTH 7 0
BBX 7 24 0 -6
BITMAP
00
00
00
00
00
00
00
00
00
00
00
00
00
38
44
04
18
04
44
38
00
00
00
00
ENDCHAR
STARTCHAR 2084
ENCODING 8324
SWIDTH 438 0
DWIDTH 7 0
BBX 7 24 0 -6
BITMAP
00
00
00
00
00
00
00
00
00
00
00
00
00
18
28
28
48
48
7C
08
00
00
00
00
ENDCHAR
STARTCHAR 2085
ENCODING 8325
SWIDTH 438 0
DWIDTH 7 0
BBX 7 24 0 -6
BITMAP
00
00
00
00
00
00
00
00
00
00
00
00
00
7C
40
40
78
04
44
38
00
00
00
00
ENDCHAR
STARTCHAR 2086
ENCODING 8326
SWIDTH 438 0
DWIDTH 7 0
BBX 7 24 0 -6
BITMAP
00
00
00
00
00
00
00
00
00
00
00
00
00
38
44
40
78
44
44
38
00
00
00
00
ENDCHAR
STARTCHAR 2087
ENCODING 8327
SWIDTH 438 0
DWIDTH 7 0
BBX 7 24 0 -6
BITMAP
00
00
00
00
00
00
00
00
00
00
00
00
00
7C
04
08
08
10
10
10
00
00
00
00
ENDCHAR
STARTCHAR 2088
ENCODING 8328
SWIDTH 438 0
DWIDTH 7 0
BBX 7 24 0 -6
BITMAP
00
00
00
00
00
00
00
00
00
00
00
00
00
38
44
44
38
44
44
38
00
00
00
00
ENDCHAR
STARTCHAR 2089
ENCODING 8329
SWIDTH 438 0
DWIDTH 7 0
BBX 7 24 0 -6
BITMAP
00
00
00
00
00
00
00
00
00
00
00
00
00
38
44
44
3C
04
44
38
00
00
00
00
ENDCHAR
STARTCHAR 208A
ENCODING 8330
SWIDTH 438 0
DWIDTH 7 0
BBX 7 24 0 -6
BITMAP
00
00
00
00
00
00
00
00
00
00
00
00
00
00
10
10
7C
10
10
00
00
00
00
00
ENDCHAR
STARTCHAR 208B
ENCODING 8331
SWIDTH 438 0
DWIDTH 7 0
BBX 7 24 0 -6
BITMAP
00
00
00
00
00
00
00
00
00
00
00
00
00
00
00
00
7C
00
00
00
00
00
00
00
ENDCHAR
STARTCHAR 208C
ENCODING 8332
SWIDTH 438 0
DWIDTH 7 0
BBX 7 24 0 -6
BITMAP
00
00
00
00
00
00
00
00
00
00
00
00
00
00
00
7C
00
7C
00
00
00
00
00
00
ENDCHAR
STARTCHAR 208D
ENCODING 8333
SWIDTH 250 0
DWIDTH 4 0
BBX 4 24 0 -6
BITMAP
00
00
00
00
00
00
00
00
00
00
00
00
00
20
40
40
40
40
40
20
00
00
00
00
ENDCHAR
STARTCHAR 208E
ENCODING 8334
SWIDTH 250 0
DWIDTH 4 0
BBX 4 24 0 -6
BITMAP
00
00
00
00
00
00
00
00
00
00
00
00
00
40
20
20
20
20
20
40
00
00
00
00
ENDCHAR
STARTCHAR 2090
ENCODING 8336
SWIDTH 438 0
DWIDTH 7 0
BBX 7 24 0 -6
BITMAP
00
00
00
00
00
00
00
00
00
00
00
00
00
00
00
38
04
3C
44
3C
00
00
00
00
ENDCHAR
STARTCHAR 2091
ENCODING 8337
SWIDTH 438 0
DWIDTH 7 0
BBX 7 24 0 -6
BITMAP
00
00
00
00
00
00
00
00
00
00
00
00
00
00
00
38
44
7C
40
38
00
00
00
00
ENDCHAR
STARTCHAR 2092
ENCODING 8338
SWIDTH 438 0
DWIDTH 7 0
BBX 7 24 0 -6
BITMAP
00
00
00
00
00
00
00
00
00
00
00
00
00
00
00
38
44
44
44
38
00
00
00
00
ENDCHAR
STARTCHAR 2093
ENCODING 8339
SWIDTH 438 0
DWIDTH 7 0
BBX 7 24 0 -6
BITMAP
00
00
00
00
00
00
00
00
00
00
00
00
00
00
00
44
28
10
28
44
00
00
00
00
ENDCHAR
STARTCHAR 2094
ENCODING 8340
SWIDTH 438 0
DWIDTH 7 0
BBX 7 24 0 -6
BITMAP
00
00
00
00
00
00
00
00
00
00
00
00
00
00
00
38
04
7C
44
38
00
00
00
00
ENDCHAR
STARTCHAR 2095
ENCODING 8341
SWIDTH 438 0
DWIDTH 7 0
BBX 7 24 0 -6
BITMAP
00
00
00
00
00
00
00
00
00
00
00
00
00
40
40
58
64
44
44
44
00
00
00
00
ENDCHAR
STARTCHAR 2096
ENCODING 8342
SWIDTH 438 0
DWIDTH 7 0
BBX 7 24 0 -6
BITMAP
00
00
00
00
00
00
00
00
00
00
00
00
00
40
40
44
58
60
50
4C
00
00
00
00
ENDCHAR
STARTCHAR 2097
ENCODING 8343
SWIDTH 313 0
DWIDTH 5 0
BBX 5 24 0 -6
BITMAP
00
00
00
00
00
00
00
00
00
00
00
00
00
60
20
20
20
20
20
30
00
00
00
00
ENDCHAR
STARTCHAR 2098
ENCODING 8344
SWIDTH 563 0
DWIDTH 9 0
BBX 9 24 0 -6
BITMAP
0000
0000
0000
0000
0000
0000
0000
0000
0000
0000
0000
0000
0000
0000
0000
7600
4900
4900
4900
4900
0000
0000
0000
0000
ENDCHAR
STARTCHAR 2099
ENCODING 8345
SWIDTH 438 0
DWIDTH 7 0
BBX 7 24 0 -6
BITMAP
00
00
00
00
00
00
00
00
00
00
00
00
00
00
00
58
64
44
44
44
00
00
00
00
ENDCHAR
STARTCHAR 209A
ENCODING 8346
SWIDTH 438 0
DWIDTH 7 0
BBX 7 24 0 -6
BITMAP
00
00
00
00
00
00
00
00
00
00
00
00
00
00
00
78
44
44
44
78
40
40
00
00
ENDCHAR
STARTCHAR 209B
ENCODING 8347
SWIDTH 438 0
DWIDTH 7 0
BBX 7 24 0 -6
BITMAP
00
00
00
00
00
00
00
00
00
00
00
00
00
00
00
3C
40
38
04
78
00
00
00
00
ENDCHAR
STARTCHAR 209C
ENCODING 8348
SWIDTH 375 0
DWIDTH 6 0
BBX 6 24 0 -6
BITMAP
00
00
00
00
00
00
00
00
00
00
00
00
00
20
20
78
20
20
20
18
00
00
00
00
ENDCHAR
STARTCHAR 2103
ENCODING 8451
SWIDTH 875 0
DWIDTH 14 0
BBX 14 24 0 -6
BITMAP
0000
0000
0000
0000
0000
0000
3000
48F0
4908
3200
0200
0200
0200
0200
0200
0200
0108
00F0
0000
0000
0000
0000
0000
0000
ENDCHAR
STARTCHAR 2109
ENCODING 8457
SWIDTH 875 0
DWIDTH 14 0
BBX 14 24 0 -6
BITMAP
0000
0000
0000
0000
0000
0000
3000
4BF8
4A00
3200
0200
0200
03F0
0200
0200
0200
0200
0200
0000
0000
0000
0000
0000
0000
ENDCHAR
STARTCHAR 2116
ENCODING 8470
SWIDTH 1000 0
DWIDTH 16 0
BBX 16 16 0 -2
BITMAP
0000
0000
0000
4100
4100
6100
5100
5138
4944
4544
4544
4338
4100
417C
0000
0000
ENDCHAR
STARTCHAR 2122
ENCODING 8482
SWIDTH 1000 0
DWIDTH 16 0
BBX 16 16 0 -2
BITMAP
0000
FE82
10C6
10AA
1092
1082
1082
1082
0000
0000
0000
0000
0000
0000
0000
0000
ENDCHAR
STARTCHAR 2126
ENCODING 8486
SWIDTH 1000 0
DWIDTH 16 0
BBX 16 16 0 -2
BITMAP
0000
0000
07C0
0820
1010
2008
2008
2008
2008
2008
1010
0820
0440
0440
3C78
0000
ENDCHAR
STARTCHAR 2127
ENCODING 8487
SWIDTH 1000 0
DWIDTH 16 0
BBX 16 16 0 -2
BITMAP
0000
0000
3C78
0440
0440
0820
1010
2008
2008
2008
2008
2008
1010
0820
07C0
0000
ENDCHAR
STARTCHAR 212A
ENCODING 8490
SWIDTH 563 0
DWIDTH 9 0
BBX 9 24 0 -6
BITMAP
0000
0000
0000
0000
0000
0000
0000
4100
4200
4400
4800
5000
6000
5000
4800
4400
4200
4100
0000
0000
0000
0000
0000
0000
ENDCHAR
STARTCHAR 212B
ENCODING 8491
SWIDTH 563 0
DWIDTH 9 0
BBX 9 24 0 -6
BITMAP
0000
0000
0000
0800
1400
0800
0000
0800
0800
1400
1400
1400
2200
2200
3E00
4100
4100
4100
0000
0000
0000
0000
0000
0000
ENDCHAR
STARTCHAR 212E
ENCODING 8494
SWIDTH 1000 0
DWIDTH 16 0
BBX 16 16 0 -2
BITMAP
0000
0000
0000
07C0
0820
1010
3018
3018
3FF8
3000
3000
1010
0820
07C0
0000
0000
ENDCHAR
STARTCHAR 2150
ENCODING 8528
SWIDTH 1000 0
DWIDTH 16 0
BBX 16 16 0 -2
BITMAP
0000
1002
7004
1008
1010
1020
1040
7C80
0100
027C
0404
0808
1008
2010
4010
8010
ENDCHAR
STARTCHAR 2151
ENCODING 8529
SWIDTH 1000 0
DWIDTH 16 0
BBX 16 16 0 -2
BITMAP
0000
1002
7004
1008
1010
1020
1040
7C80
0100
0238
0444
0844
103C
2004
4044
8038
ENDCHAR
STARTCHAR 2152
ENCODING 8530
SWIDTH 1000 0
DWIDTH 16 0
BBX 16 16 0 -2
BITMAP
0000
1002
7004
1008
1010
1020
1040
7C80
0100
024C
04D2
0852
1052
2052
4052
80EC
ENDCHAR
STARTCHAR 2153
ENCODING 8531
SWIDTH 1000 0
DWIDTH 16 0
BBX 16 16 0 -2
BITMAP
0000
1002
7004
1008
1010
1020
1040
7C80
0100
0238
0444
0804
1018
2004
4044
8038
ENDCHAR
STARTCHAR 2154
ENCODING 8532
SWIDTH 1000 0
DWIDTH 16 0
BBX 16 16 0 -2
BITMAP
0000
3802
4404
0408
1810
2020
4040
7C80
0100
0238
0444
0804
1018
2004
4044
8038
ENDCHAR
STARTCHAR 2155
ENCODING 8533
SWIDTH 1000 0
DWIDTH 16 0
BBX 16 16 0 -2
BITMAP
0000
1002
7004
1008
1010
1020
1040
7C80
0100
027C
0440
0840
1078
2004
4044
8038
ENDCHAR
STARTCHAR 2156
ENCODING 8534
SWIDTH 1000 0
DWIDTH 16 0
BBX 16 16 0 -2
BITMAP
0000
3802
4404
0408
1810
2020
4040
7C80
0100
027C
0440
0840
1078
2004
4044
8038
ENDCHAR
STARTCHAR 2157
ENCODING 8535
SWIDTH 1000 0
DWIDTH 16 0
BBX 16 16 0 -2
BITMAP
0000
3802
4404
0408
1810
0420
4440
3880
0100
027C
0440
0840
1078
2004
4044
8038
ENDCHAR
STARTCHAR 2158
ENCODING 8536
SWIDTH 1000 0
DWIDTH 16 0
BBX 16 16 0 -2
BITMAP
0000
1802
2804
2808
4810
4820
7C40
0880
0100
027C
0440
0840
1078
2004
4044
8038
ENDCHAR
STARTCHAR 2159
ENCODING 8537
SWIDTH 1000 0
DWIDTH 16 0
BBX 16 16 0 -2
BITMAP
0000
1002
7004
1008
1010
1020
1040
7C80
0100
0238
0444
0840
1078
2044
4044
8038
ENDCHAR
STARTCHAR 215A
ENCODING 8538
SWIDTH 1000 0
DWIDTH 16 0
BBX 16 16 0 -2
BITMAP
0000
7C02
4004
4008
7810
0420
4440
3880
0100
0238
0444
0840
1078
2044
4044
8038
ENDCHAR
STARTCHAR 215B
ENCODING 8539
SWIDTH 1000 0
DWIDTH 16 0
BBX 16 16 0 -2
BITMAP
0000
1002
7004
1008
1010
1020
1040
7C80
0100
0238
0444
0844
1038
2044
4044
8038
ENDCHAR
STARTCHAR 215C
ENCODING 8540
SWIDTH 1000 0
DWIDTH 16 0
BBX 16 16 0 -2
BITMAP
0000
3802
4404
0408
1810
0420
4440
3880
0100
0238
0444
0844
1038
2044
4044
8038
ENDCHAR
STARTCHAR 215D
ENCODING 8541
SWIDTH 1000 0
DWIDTH 16 0
BBX 16 16 0 -2
BITMAP
0000
7C02
4004
4008
7810
0420
4440
3880
0100
0238
0444
0844
1038
2044
4044
8038
ENDCHAR
STARTCHAR 215E
ENCODING 8542
SWIDTH 1000 0
DWIDTH 16 0
BBX 16 16 0 -2
BITMAP
0000
7C02
0404
0808
0810
1020
1040
1080
0100
0238
0444
0844
1038
2044
4044
8038
ENDCHAR
STARTCHAR 215F
ENCODING 8543
SWIDTH 1000 0
DWIDTH 16 0
BBX 16 16 0 -2
BITMAP
0000
1002
7004
1008
1010
1020
1040
7C80
0100
0200
0400
0800
1000
2000
4000
8000
ENDCHAR
STARTCHAR 2160
ENCODING 8544
SWIDTH 1000 0
DWIDTH 16 0
BBX 16 16 0 -2
BITMAP
0000
0000
0000
0100
0100
0100
0100
0100
0100
0100
0100
0100
0100
0100
0000
0000
ENDCHAR
STARTCHAR 2161
ENCODING 8545
SWIDTH 1000 0
DWIDTH 16 0
BBX 16 16 0 -2
BITMAP
0000
0000
0000
0440
0440
0440
0440
0440
0440
0440
0440
0440
0440
0440
0000
0000
ENDCHAR
STARTCHAR 2162
ENCODING 8546
SWIDTH 1000 0
DWIDTH 16 0
BBX 16 16 0 -2
BITMAP
0000
0000
0000
1110
1110
1110
1110
1110
1110
1110
1110
1110
1110
1110
0000
0000
ENDCHAR
STARTCHAR 2163
ENCODING 8547
SWIDTH 1000 0
DWIDTH 16 0
BBX 16 16 0 -2
BITMAP
0000
0000
0000
1410
1410
1410
1220
1220
1220
1140
1140
1140
1080
1080
0000
0000
ENDCHAR
STARTCHAR 2164
ENCODING 8548
SWIDTH 1000 0
DWIDTH 16 0
BBX 16 16 0 -2
BITMAP
0000
0000
0000
0820
0820
0820
0440
0440
0440
0280
0280
0280
0100
0100
0000
0000
ENDCHAR
STARTCHAR 2165
ENCODING 8549
SWIDTH 1000 0
DWIDTH 16 0
BBX 16 16 0 -2
BITMAP
0000
0000
0000
1050
1050
1050
0890
0890
0890
0510
0510
0510
0210
0210
0000
0000
ENDCHAR
STARTCHAR 2166
ENCODING 8550
SWIDTH 1000 0
DWIDTH 16 0
BBX 16 16 0 -2
BITMAP
0000
0000
0000
20A8
20A8
20A8
1128
1128
1128
0A28
0A28
0A28
0428
0428
0000
0000
ENDCHAR
STARTCHAR 2167
ENCODING 8551
SWIDTH 1000 0
DWIDTH 16 0
BBX 16 16 0 -2
BITMAP
0000
0000
0000
4154
4154
4154
2254
2254
2254
1454
1454
1454
0854
0854
0000
0000
ENDCHAR
STARTCHAR 2168
ENCODING 8552
SWIDTH 1000 0
DWIDTH 16 0
BBX 16 16 0 -2
BITMAP
0000
0000
0000
1410
1410
1220
1220
1140
1080
1140
1220
1220
1410
1410
0000
0000
ENDCHAR
STARTCHAR 2169
ENCODING 8553
SWIDTH 1000 0
DWIDTH 16 0
BBX 16 16 0 -2
BITMAP
0000
0000
0000
0820
0820
0440
0440
0280
0100
0280
0440
0440
0820
0820
0000
0000
ENDCHAR
STARTCHAR 216A
ENCODING 8554
SWIDTH 1000 0
DWIDTH 16 0
BBX 16 16 0 -2
BITMAP
0000
0000
0000
1050
1050
0890
0890
0510
0210
0510
0890
0890
1050
1050
0000
0000
ENDCHAR
STARTCHAR 216B
ENCODING 8555
SWIDTH 1000 0
DWIDTH 16 0
BBX 16 16 0 -2
BITMAP
0000
0000
0000
20A8
20A8
1128
1128
0A28
0428
0A28
1128
1128
20A8
20A8
0000
0000
ENDCHAR
STARTCHAR 216C
ENCODING 8556
SWIDTH 1000 0
DWIDTH 16 0
BBX 16 16 0 -2
BITMAP
0000
0000
0000
0400
0400
0400
0400
0400
0400
0400
0400
0400
0400
07E0
0000
0000
ENDCHAR
STARTCHAR 216D
ENCODING 8557
SWIDTH 1000 0
DWIDTH 16 0
BBX 16 16 0 -2
BITMAP
0000
0000
0000
03C0
0420
0800
0800
0800
0800
0800
0800
0800
0420
03C0
0000
0000
ENDCHAR
STARTCHAR 216E
ENCODING 8558
SWIDTH 1000 0
DWIDTH 16 0
BBX 16 16 0 -2
BITMAP
0000
0000
0000
0F80
0840
0820
0820
0820
0820
0820
0820
0820
0840
0F80
0000
0000
ENDCHAR
STARTCHAR 216F
ENCODING 8559
SWIDTH 1000 0
DWIDTH 16 0
BBX 16 16 0 -2
BITMAP
0000
0000
0000
2008
3018
3018
2828
2828
2448
2448
2288
2288
2108
2108
0000
0000
ENDCHAR
STARTCHAR 2170
ENCODING 8560
SWIDTH 1000 0
DWIDTH 16 0
BBX 16 16 0 -2
BITMAP
0000
0000
0000
0100
0000
0000
0100
0100
0100
0100
0100
0100
0100
0100
0000
0000
ENDCHAR
STARTCHAR 2171
ENCODING 8561
SWIDTH 1000 0
DWIDTH 16 0
BBX 16 16 0 -2
BITMAP
0000
0000
0000
0440
0000
0000
0440
0440
0440
0440
0440
0440
0440
0440
0000
0000
ENDCHAR
STARTCHAR 2172
ENCODING 8562
SWIDTH 1000 0
DWIDTH 16 0
BBX 16 16 0 -2
BITMAP
0000
0000
0000
1110
0000
0000
1110
1110
1110
1110
1110
1110
1110
1110
0000
0000
ENDCHAR
STARTCHAR 2173
ENCODING 8563
SWIDTH 1000 0
DWIDTH 16 0
BBX 16 16 0 -2
BITMAP
0000
0000
0000
1000
0000
0000
1410
1410
1220
1220
1140
1140
1080
1080
0000
0000
ENDCHAR
STARTCHAR 2174
ENCODING 8564
SWIDTH 1000 0
DWIDTH 16 0
BBX 16 16 0 -2
BITMAP
0000
0000
0000
0000
0000
0000
0820
0820
0440
0440
0280
0280
0100
0100
0000
0000
ENDCHAR
STARTCHAR 2175
ENCODING 8565
SWIDTH 1000 0
DWIDTH 16 0
BBX 16 16 0 -2
BITMAP
0000
0000
0000
0010
0000
0000
1050
1050
0890
0890
0510
0510
0210
0210
0000
0000
ENDCHAR
STARTCHAR 2176
ENCODING 8566
SWIDTH 1000 0
DWIDTH 16 0
BBX 16 16 0 -2
BITMAP
0000
0000
0000
0028
0000
0000
20A8
20A8
1128
1128
0A28
0A28
0428
0428
0000
0000
ENDCHAR
STARTCHAR 2177
ENCODING 8567
SWIDTH 1000 0
DWIDTH 16 0
BBX 16 16 0 -2
BITMAP
0000
0000
0000
0054
0000
0000
4154
4154
2254
2254
1454
1454
0854
0854
0000
0000
ENDCHAR
STARTCHAR 2178
ENCODING 8568
SWIDTH 1000 0
DWIDTH 16 0
BBX 16 16 0 -2
BITMAP
0000
0000
0000
1000
0000
0000
1410
1220
1140
1080
1080
1140
1220
1410
0000
0000
ENDCHAR
STARTCHAR 2179
ENCODING 8569
SWIDTH 1000 0
DWIDTH 16 0
BBX 16 16 0 -2
BITMAP
0000
0000
0000
0000
0000
0000
0820
0440
0280
0100
0100
0280
0440
0820
0000
0000
ENDCHAR
STARTCHAR 217A
ENCODING 8570
SWIDTH 1000 0
DWIDTH 16 0
BBX 16 16 0 -2
BITMAP
0000
0000
0000
0010
0000
0000
1050
0890
0510
0210
0210
0510
0890
1050
0000
0000
ENDCHAR
STARTCHAR 217B
ENCODING 8571
SWIDTH 1000 0
DWIDTH 16 0
BBX 16 16 0 -2
BITMAP
0000
0000
0000
0028
0000
0000
20A8
1128
0A28
0428
0428
0A28
1128
20A8
0000
0000
ENDCHAR
STARTCHAR 217C
ENCODING 8572
SWIDTH 1000 0
DWIDTH 16 0
BBX 16 16 0 -2
BITMAP
0000
0000
0000
0300
0100
0100
0100
0100
0100
0100
0100
0100
0100
0180
0000
0000
ENDCHAR
STARTCHAR 217D
ENCODING 8573
SWIDTH 1000 0
DWIDTH 16 0
BBX 16 16 0 -2
BITMAP
0000
0000
0000
0000
0000
0000
03C0
0420
0400
0400
0400
0400
0420
03C0
0000
0000
ENDCHAR
STARTCHAR 217E
ENCODING 8574
SWIDTH 1000 0
DWIDTH 16 0
BBX 16 16 0 -2
BITMAP
0000
0000
0000
0020
0020
0020
03E0
0420
0420
0420
0420
0420
0420
03E0
0000
0000
ENDCHAR
STARTCHAR 217F
ENCODING 8575
SWIDTH 1000 0
DWIDTH 16 0
BBX 16 16 0 -2
BITMAP
0000
0000
0000
0000
0000
0000
2EF0
3108
2108
2108
2108
2108
2108
2108
0000
0000
ENDCHAR
STARTCHAR 2180
ENCODING 8576
SWIDTH 1000 0
DWIDTH 16 0
BBX 16 16 0 -2
BITMAP
0000
0000
0000
1FF0
2108
4104
4104
4104
4104
4104
4104
4104
2108
1FF0
0000
0000
ENDCHAR
STARTCHAR 2181
ENCODING 8577
SWIDTH 1000 0
DWIDTH 16 0
BBX 16 16 0 -2
BITMAP
0000
0000
0000
0F80
0840
0820
0E20
0920
0920
0920
0E20
0820
0840
0F80
0000
0000
ENDCHAR
STARTCHAR 2182
ENCODING 8578
SWIDTH 1000 0
DWIDTH 16 0
BBX 16 16 0 -2
BITMAP
0000
0000
0000
1FF0
2108
4104
47C4
4924
4924
4924
47C4
4104
2108
1FF0
0000
0000
ENDCHAR
STARTCHAR 2183
ENCODING 8579
SWIDTH 1000 0
DWIDTH 16 0
BBX 16 16 0 -2
BITMAP
0000
0000
0000
0780
0840
0020
0020
0020
0020
0020
0020
0020
0840
0780
0000
0000
ENDCHAR
STARTCHAR 2184
ENCODING 8580
SWIDTH 1000 0
DWIDTH 16 0
BBX 16 16 0 -2
BITMAP
0000
0000
0000
0000
0000
0000
03C0
0420
0020
0020
0020
0020
0420
03C0
0000
0000
ENDCHAR
STARTCHAR 2185
ENCODING 8581
SWIDTH 1000 0
DWIDTH 16 0
BBX 16 16 0 -2
BITMAP
0000
0000
0000
03C0
0420
0800
0800
0800
0800
0800
0800
0820
0460
03A0
0020
0000
ENDCHAR
STARTCHAR 2186
ENCODING 8582
SWIDTH 1000 0
DWIDTH 16 0
BBX 16 16 0 -2
BITMAP
0000
0000
0000
0100
0100
0100
0100
0100
0100
1110
0920
0540
0380
0100
0000
0000
ENDCHAR
STARTCHAR 2187
ENCODING 8583
SWIDTH 1000 0
DWIDTH 16 0
BBX 16 16 0 -2
BITMAP
0000
0000
0000
0F80
0840
0E20
0920
0CA0
0AA0
0CA0
0920
0E20
0840
0F80
0000
0000
ENDCHAR
STARTCHAR 2188
ENCODING 8584
SWIDTH 1000 0
DWIDTH 16 0
BBX 16 16 0 -2
BITMAP
0000
0000
0000
1FF0
2108
47C4
4924
5394
5554
5394
4924
47C4
2108
1FF0
0000
0000
ENDCHAR
STARTCHAR 2189
ENCODING 8585
SWIDTH 1000 0
DWIDTH 16 0
BBX 16 16 0 -2
BITMAP
0000
3802
4404
4C08
5410
6420
4440
3880
0100
0238
0444
0804
1018
2004
4044
8038
ENDCHAR
STARTCHAR 218A
ENCODING 8586
SWIDTH 1000 0
DWIDTH 16 0
BBX 16 16 0 -2
BITMAP
0000
0000
0000
07E0
0020
0040
0080
0100
0200
0400
0400
0400
0420
03C0
0000
0000
ENDCHAR
STARTCHAR 218B
ENCODING 8587
SWIDTH 1000 0
DWIDTH 16 0
BBX 16 16 0 -2
BITMAP
0000
0000
0000
03C0
0420
0400
0400
0400
0380
0400
0400
0400
0420
03C0
0000
0000
ENDCHAR
STARTCHAR 2190
ENCODING 8592
SWIDTH 1000 0
DWIDTH 16 0
BBX 16 16 0 -2
BITMAP
0000
0000
0000
0000
0000
0800
1000
2000
7FFC
2000
1000
0800
0000
0000
0000
0000
ENDCHAR
STARTCHAR 2191
ENCODING 8593
SWIDTH 1000 0
DWIDTH 16 0
BBX 16 16 0 -2
BITMAP
0000
0000
0100
0380
0540
0920
0100
0100
0100
0100
0100
0100
0100
0100
0100
0000
ENDCHAR
STARTCHAR 2192
ENCODING 8594
SWIDTH 1000 0
DWIDTH 16 0
BBX 16 16 0 -2
BITMAP
0000
0000
0000
0000
0000
0020
0010
0008
7FFC
0008
0010
0020
0000
0000
0000
0000
ENDCHAR
STARTCHAR 2193
ENCODING 8595
SWIDTH 1000 0
DWIDTH 16 0
BBX 16 16 0 -2
BITMAP
0000
0000
0100
0100
0100
0100
0100
0100
0100
0100
0100
0920
0540
0380
0100
0000
ENDCHAR
STARTCHAR 2194
ENCODING 8596
SWIDTH 1000 0
DWIDTH 16 0
BBX 16 16 0 -2
BITMAP
0000
0000
0000
0000
0000
1010
2008
4004
FFFE
4004
2008
1010
0000
0000
0000
0000
ENDCHAR
STARTCHAR 2195
ENCODING 8597
SWIDTH 1000 0
DWIDTH 16 0
BBX 16 16 0 -2
BITMAP
0000
0100
0380
0540
0920
0100
0100
0100
0100
0100
0100
0100
0920
0540
0380
0100
ENDCHAR
STARTCHAR 2196
ENCODING 8598
SWIDTH 1000 0
DWIDTH 16 0
BBX 16 16 0 -2
BITMAP
0000
0000
0000
3F00
3000
2800
2400
2200
2100
0080
0040
0020
0010
0008
0000
0000
ENDCHAR
STARTCHAR 2197
ENCODING 8599
SWIDTH 1000 0
DWIDTH 16 0
BBX 16 16 0 -2
BITMAP
0000
0000
0000
01F8
0018
0028
0048
0088
0108
0200
0400
0800
1000
2000
0000
0000
ENDCHAR
STARTCHAR 2198
ENCODING 8600
SWIDTH 1000 0
DWIDTH 16 0
BBX 16 16 0 -2
BITMAP
0000
0000
0000
2000
1000
0800
0400
0200
0108
0088
0048
0028
0018
01F8
0000
0000
ENDCHAR
STARTCHAR 2199
ENCODING 8601
SWIDTH 1000 0
DWIDTH 16 0
BBX 16 16 0 -2
BITMAP
0000
0000
0000
0008
0010
0020
0040
0080
2100
2200
2400
2800
3000
3F00
0000
0000
ENDCHAR
STARTCHAR 219A
ENCODING 8602
SWIDTH 1000 0
DWIDTH 16 0
BBX 16 16 0 -2
BITMAP
0000
0000
0000
0000
0010
1010
2010
4020
FFFE
4020
2040
1040
0040
0000
0000
0000
ENDCHAR
STARTCHAR 219B
ENCODING 8603
SWIDTH 1000 0
DWIDTH 16 0
BBX 16 16 0 -2
BITMAP
0000
0000
0000
0000
0400
0410
0408
0804
FFFE
0804
1008
1010
1000
0000
0000
0000
ENDCHAR
STARTCHAR 219C
ENCODING 8604
SWIDTH 1000 0
DWIDTH 16 0
BBX 16 16 0 -2
BITMAP
0000
0000
0000
0000
0000
7C00
6060
5090
4908
4604
0000
0000
0000
0000
0000
0000
ENDCHAR
STARTCHAR 219D
ENCODING 8605
SWIDTH 1000 0
DWIDTH 16 0
BBX 16 16 0 -2
BITMAP
0000
0000
0000
0000
0000
007C
0C0C
1214
2124
40C4
0000
0000
0000
0000
0000
0000
ENDCHAR
STARTCHAR 219E
ENCODING 8606
SWIDTH 1000 0
DWIDTH 16 0
BBX 16 16 0 -2
BITMAP
0000
0000
0000
0000
0000
0900
1200
2400
7FFC
2400
1200
0900
0000
0000
0000
0000
ENDCHAR
STARTCHAR 219F
ENCODING 8607
SWIDTH 1000 0
DWIDTH 16 0
BBX 16 16 0 -2
BITMAP
0000
0000
0100
0380
0540
0920
0380
0540
0920
0100
0100
0100
0100
0100
0100
0000
ENDCHAR
STARTCHAR 21A0
ENCODING 8608
SWIDTH 1000 0
DWIDTH 16 0
BBX 16 16 0 -2
BITMAP
0000
0000
0000
0000
0000
0120
0090
0048
7FFC
0048
0090
0120
0000
0000
0000
0000
ENDCHAR
STARTCHAR 21A1
ENCODING 8609
SWIDTH 1000 0
DWIDTH 16 0
BBX 16 16 0 -2
BITMAP
0000
0000
0100
0100
0100
0100
0100
0100
0920
0540
0380
0920
0540
0380
0100
0000
ENDCHAR
STARTCHAR 21A2
ENCODING 8610
SWIDTH 1000 0
DWIDTH 16 0
BBX 16 16 0 -2
BITMAP
0000
0000
0000
0000
0000
0804
1008
2010
7FE0
2010
1008
0804
0000
0000
0000
0000
ENDCHAR
STARTCHAR 21A3
ENCODING 8611
SWIDTH 1000 0
DWIDTH 16 0
BBX 16 16 0 -2
BITMAP
0000
0000
0000
0000
0000
4020
2010
1008
0FFC
1008
2010
4020
0000
0000
0000
0000
ENDCHAR
STARTCHAR 21A4
ENCODING 8612
SWIDTH 1000 0
DWIDTH 16 0
BBX 16 16 0 -2
BITMAP
0000
0000
0000
0000
0000
0804
1004
2004
7FFC
2004
1004
0804
0000
0000
0000
0000
ENDCHAR
STARTCHAR 21A5
ENCODING 8613
SWIDTH 1000 0
DWIDTH 16 0
BBX 16 16 0 -2
BITMAP
0000
0000
0100
0380
0540
0920
0100
0100
0100
0100
0100
0100
0100
0100
0FE0
0000
ENDCHAR
STARTCHAR 21A6
ENCODING 8614
SWIDTH 1000 0
DWIDTH 16 0
BBX 16 16 0 -2
BITMAP
0000
0000
0000
0000
0000
4020
4010
4008
7FFC
4008
4010
4020
0000
0000
0000
0000
ENDCHAR
STARTCHAR 21A7
ENCODING 8615
SWIDTH 1000 0
DWIDTH 16 0
BBX 16 16 0 -2
BITMAP
0000
0000
0FE0
0100
0100
0100
0100
0100
0100
0100
0100
0920
0540
0380
0100
0000
ENDCHAR
STARTCHAR 21A8
ENCODING 8616
SWIDTH 1000 0
DWIDTH 16 0
BBX 16 16 0 -2
BITMAP
0000
0100
0380
0540
0920
0100
0100
0100
0100
0100
0920
0540
0380
0100
0000
0FE0
ENDCHAR
STARTCHAR 21A9
ENCODING 8617
SWIDTH 1000 0
DWIDTH 16 0
BBX 16 16 0 -2
BITMAP
0000
0000
0FC0
0020
0010
0008
0008
0008
0008
0408
0810
1020
3FC0
1000
0800
0400
ENDCHAR
STARTCHAR 21AA
ENCODING 8618
SWIDTH 1000 0
DWIDTH 16 0
BBX 16 16 0 -2
BITMAP
0000
0000
07E0
0800
1000
2000
2000
2000
2000
2040
1020
0810
07F8
0010
0020
0040
ENDCHAR
STARTCHAR 21AB
ENCODING 8619
SWIDTH 1000 0
DWIDTH 16 0
BBX 16 16 0 -2
BITMAP
0000
0000
0000
0000
0038
0844
1044
2044
7FF8
2040
1040
0840
0000
0000
0000
0000
ENDCHAR
STARTCHAR 21AC
ENCODING 8620
SWIDTH 1000 0
DWIDTH 16 0
BBX 16 16 0 -2
BITMAP
0000
0000
0000
0000
3800
4420
4410
4408
3FFC
0408
0410
0420
0000
0000
0000
0000
ENDCHAR
STARTCHAR 21AD
ENCODING 8621
SWIDTH 1000 0
DWIDTH 16 0
BBX 16 16 0 -2
BITMAP
0000
0000
0000
0000
0000
1010
2008
4104
FABE
4444
2008
1010
0000
0000
0000
0000
ENDCHAR
STARTCHAR 21AE
ENCODING 8622
SWIDTH 1000 0
DWIDTH 16 0
BBX 16 16 0 -2
BITMAP
0000
0000
0000
0000
0080
1090
2088
4104
FFFE
4104
2208
1210
0200
0000
0000
0000
ENDCHAR
STARTCHAR 21AF
ENCODING 8623
SWIDTH 1000 0
DWIDTH 16 0
BBX 16 16 0 -2
BITMAP
0000
0000
0800
0800
0880
0980
0A80
0C80
0880
0080
0080
0490
02A0
01C0
0080
0000
ENDCHAR
STARTCHAR 21B0
ENCODING 8624
SWIDTH 1000 0
DWIDTH 16 0
BBX 16 16 0 -2
BITMAP
0000
1000
2000
4000
FFFC
4004
2004
1004
0004
0004
0004
0004
0004
0004
0004
0004
ENDCHAR
STARTCHAR 21B1
ENCODING 8625
SWIDTH 1000 0
DWIDTH 16 0
BBX 16 16 0 -2
BITMAP
0000
0010
0008
0004
7FFE
4004
4008
4010
4000
4000
4000
4000
4000
4000
4000
4000
ENDCHAR
STARTCHAR 21B2
ENCODING 8626
SWIDTH 1000 0
DWIDTH 16 0
BBX 16 16 0 -2
BITMAP
0000
0004
0004
0004
0004
0004
0004
0004
0004
1004
2004
4004
FFFC
4000
2000
1000
ENDCHAR
STARTCHAR 21B3
ENCODING 8627
SWIDTH 1000 0
DWIDTH 16 0
BBX 16 16 0 -2
BITMAP
0000
4000
4000
4000
4000
4000
4000
4000
4000
4010
4008
4004
7FFE
0004
0008
0010
ENDCHAR
STARTCHAR 21B4
ENCODING 8628
SWIDTH 1000 0
DWIDTH 16 0
BBX 16 16 0 -2
BITMAP
0000
0000
0000
0000
FFF0
0010
0010
0010
0010
0092
0054
0038
0010
0000
0000
0000
ENDCHAR
STARTCHAR 21B5
ENCODING 8629
SWIDTH 1000 0
DWIDTH 16 0
BBX 16 16 0 -2
BITMAP
0000
0000
0000
0000
0002
0002
1002
2002
4002
FFFE
4000
2000
1000
0000
0000
0000
ENDCHAR
STARTCHAR 21B6
ENCODING 8630
SWIDTH 1000 0
DWIDTH 16 0
BBX 16 16 0 -2
BITMAP
0000
0000
0000
03E0
0410
0808
1004
1004
1004
1004
9204
5404
3800
1000
0000
0000
ENDCHAR
STARTCHAR 21B7
ENCODING 8631
SWIDTH 1000 0
DWIDTH 16 0
BBX 16 16 0 -2
BITMAP
0000
0000
0000
0F80
1040
2020
4010
4010
4010
4010
4092
4054
0038
0010
0000
0000
ENDCHAR
STARTCHAR 21B8
ENCODING 8632
SWIDTH 1000 0
DWIDTH 16 0
BBX 16 16 0 -2
BITMAP
0000
0000
7FFC
0000
3F00
3000
2800
2400
2200
2100
0080
0040
0020
0010
0008
0000
ENDCHAR
STARTCHAR 21B9
ENCODING 8633
SWIDTH 1000 0
DWIDTH 16 0
BBX 16 16 0 -2
BITMAP
0000
0000
8800
9000
A000
FFFE
A000
9000
8822
0012
000A
FFFE
000A
0012
0022
0000
ENDCHAR
STARTCHAR 21BA
ENCODING 8634
SWIDTH 1000 0
DWIDTH 16 0
BBX 16 16 0 -2
BITMAP
0000
0000
007C
0860
1050
2048
2048
4004
4004
4004
2008
2008
1010
0C60
0380
0000
ENDCHAR
STARTCHAR 21BB
ENCODING 8635
SWIDTH 1000 0
DWIDTH 16 0
BBX 16 16 0 -2
BITMAP
0000
0000
7C00
0C20
1410
2408
2408
4004
4004
4004
2008
2008
1010
0C60
0380
0000
ENDCHAR
STARTCHAR 21BC
ENCODING 8636
SWIDTH 1000 0
DWIDTH 16 0
BBX 16 16 0 -2
BITMAP
0000
0000
0000
0000
0000
0800
1000
2000
7FFC
0000
0000
0000
0000
0000
0000
0000
ENDCHAR
STARTCHAR 21BD
ENCODING 8637
SWIDTH 1000 0
DWIDTH 16 0
BBX 16 16 0 -2
BITMAP
0000
0000
0000
0000
0000
0000
0000
0000
7FFC
2000
1000
0800
0000
0000
0000
0000
ENDCHAR
STARTCHAR 21BE
ENCODING 8638
SWIDTH 1000 0
DWIDTH 16 0
BBX 16 16 0 -2
BITMAP
0000
0000
0100
0180
0140
0120
0100
0100
0100
0100
0100
0100
0100
0100
0100
0000
ENDCHAR
STARTCHAR 21BF
ENCODING 8639
SWIDTH 1000 0
DWIDTH 16 0
BBX 16 16 0 -2
BITMAP
0000
0000
0100
0300
0500
0900
0100
0100
0100
0100
0100
0100
0100
0100
0100
0000
ENDCHAR
STARTCHAR 21C0
ENCODING 8640
SWIDTH 1000 0
DWIDTH 16 0
BBX 16 16 0 -2
BITMAP
0000
0000
0000
0000
0000
0020
0010
0008
7FFC
0000
0000
0000
0000
0000
0000
0000
ENDCHAR
STARTCHAR 21C1
ENCODING 8641
SWIDTH 1000 0
DWIDTH 16 0
BBX 16 16 0 -2
BITMAP
0000
0000
0000
0000
0000
0000
0000
0000
7FFC
0008
0010
0020
0000
0000
0000
0000
ENDCHAR
STARTCHAR 21C2
ENCODING 8642
SWIDTH 1000 0
DWIDTH 16 0
BBX 16 16 0 -2
BITMAP
0000
0000
0100
0100
0100
0100
0100
0100
0100
0100
0100
0120
0140
0180
0100
0000
ENDCHAR
STARTCHAR 21C3
ENCODING 8643
SWIDTH 1000 0
DWIDTH 16 0
BBX 16 16 0 -2
BITMAP
0000
0000
0100
0100
0100
0100
0100
0100
0100
0100
0100
0900
0500
0300
0100
0000
ENDCHAR
STARTCHAR 21C4
ENCODING 8644
SWIDTH 1000 0
DWIDTH 16 0
BBX 16 16 0 -2
BITMAP
0000
0000
0020
0010
0008
7FFC
0008
0010
0820
1000
2000
7FFC
2000
1000
0800
0000
ENDCHAR
STARTCHAR 21C5
ENCODING 8645
SWIDTH 1000 0
DWIDTH 16 0
BBX 16 16 0 -2
BITMAP
0000
0000
0820
1C20
2A20
4920
0820
0820
0820
0820
0820
0924
08A8
0870
0820
0000
ENDCHAR
STARTCHAR 21C6
ENCODING 8646
SWIDTH 1000 0
DWIDTH 16 0
BBX 16 16 0 -2
BITMAP
0000
0000
0800
1000
2000
7FFC
2000
1000
0820
0010
0008
7FFC
0008
0010
0020
0000
ENDCHAR
STARTCHAR 21C7
ENCODING 8647
SWIDTH 1000 0
DWIDTH 16 0
BBX 16 16 0 -2
BITMAP
0000
0000
0800
1000
2000
7FFC
2000
1000
0800
1000
2000
7FFC
2000
1000
0800
0000
ENDCHAR
STARTCHAR 21C8
ENCODING 8648
SWIDTH 1000 0
DWIDTH 16 0
BBX 16 16 0 -2
BITMAP
0000
0000
0820
1C70
2AA8
4924
0820
0820
0820
0820
0820
0820
0820
0820
0820
0000
ENDCHAR
STARTCHAR 21C9
ENCODING 8649
SWIDTH 1000 0
DWIDTH 16 0
BBX 16 16 0 -2
BITMAP
0000
0000
0020
0010
0008
7FFC
0008
0010
0020
0010
0008
7FFC
0008
0010
0020
0000
ENDCHAR
STARTCHAR 21CA
ENCODING 8650
SWIDTH 1000 0
DWIDTH 16 0
BBX 16 16 0 -2
BITMAP
0000
0000
0820
0820
0820
0820
0820
0820
0820
0820
0820
4924
2AA8
1C70
0820
0000
ENDCHAR
STARTCHAR 21CB
ENCODING 8651
SWIDTH 1000 0
DWIDTH 16 0
BBX 16 16 0 -2
BITMAP
0000
0000
0000
0800
1000
2000
7FFC
0000
0000
7FFC
0008
0010
0020
0000
0000
0000
ENDCHAR
STARTCHAR 21CC
ENCODING 8652
SWIDTH 1000 0
DWIDTH 16 0
BBX 16 16 0 -2
BITMAP
0000
0000
0000
0020
0010
0008
7FFC
0000
0000
7FFC
2000
1000
0800
0000
0000
0000
ENDCHAR
STARTCHAR 21CD
ENCODING 8653
SWIDTH 1000 0
DWIDTH 16 0
BBX 16 16 0 -2
BITMAP
0000
0000
0000
0000
0420
0820
1040
3FFC
4040
3FFC
1040
0880
0480
0000
0000
0000
ENDCHAR
STARTCHAR 21CE
ENCODING 8654
SWIDTH 1000 0
DWIDTH 16 0
BBX 16 16 0 -2
BITMAP
0000
0000
0000
0000
08A0
1090
2108
7FFC
8102
7FFC
2108
1210
0A20
0000
0000
0000
ENDCHAR
STARTCHAR 21CF
ENCODING 8655
SWIDTH 1000 0
DWIDTH 16 0
BBX 16 16 0 -2
BITMAP
0000
0000
0000
0000
0240
0220
0410
7FF8
0404
7FF8
0410
0820
0840
0000
0000
0000
ENDCHAR
STARTCHAR 21D0
ENCODING 8656
SWIDTH 1000 0
DWIDTH 16 0
BBX 16 16 0 -2
BITMAP
0000
0000
0000
0000
0400
0800
1000
3FFC
4000
3FFC
1000
0800
0400
0000
0000
0000
ENDCHAR
STARTCHAR 21D1
ENCODING 8657
SWIDTH 1000 0
DWIDTH 16 0
BBX 16 16 0 -2
BITMAP
0000
0000
0100
0280
06C0
0AA0
1290
0280
0280
0280
0280
0280
0280
0280
0280
0000
ENDCHAR
STARTCHAR 21D2
ENCODING 8658
SWIDTH 1000 0
DWIDTH 16 0
BBX 16 16 0 -2
BITMAP
0000
0000
0000
0000
0040
0020
0010
7FF8
0004
7FF8
0010
0020
0040
0000
0000
0000
ENDCHAR
STARTCHAR 21D3
ENCODING 8659
SWIDTH 1000 0
DWIDTH 16 0
BBX 16 16 0 -2
BITMAP
0000
0000
0280
0280
0280
0280
0280
0280
0280
0280
1290
0AA0
06C0
0280
0100
0000
ENDCHAR
STARTCHAR 21D4
ENCODING 8660
SWIDTH 1000 0
DWIDTH 16 0
BBX 16 16 0 -2
BITMAP
0000
0000
0000
0000
0820
1010
2008
7FFC
8002
7FFC
2008
1010
0820
0000
0000
0000
ENDCHAR
STARTCHAR 21D5
ENCODING 8661
SWIDTH 1000 0
DWIDTH 16 0
BBX 16 16 0 -2
BITMAP
0000
0100
0280
06C0
0AA0
1290
0280
0280
0280
0280
0280
1290
0AA0
06C0
0280
0100
ENDCHAR
STARTCHAR 21D6
ENCODING 8662
SWIDTH 1000 0
DWIDTH 16 0
BBX 16 16 0 -2
BITMAP
0000
0000
0000
3F80
2800
3400
2A00
2500
2280
2140
00A0
0050
0028
0010
0000
0000
ENDCHAR
STARTCHAR 21D7
ENCODING 8663
SWIDTH 1000 0
DWIDTH 16 0
BBX 16 16 0 -2
BITMAP
0000
0000
0000
03F8
0028
0058
00A8
0148
0288
0508
0A00
1400
2800
1000
0000
0000
ENDCHAR
STARTCHAR 21D8
ENCODING 8664
SWIDTH 1000 0
DWIDTH 16 0
BBX 16 16 0 -2
BITMAP
0000
0000
0000
1000
2800
1400
0A00
0508
0288
0148
00A8
0058
0028
03F8
0000
0000
ENDCHAR
STARTCHAR 21D9
ENCODING 8665
SWIDTH 1000 0
DWIDTH 16 0
BBX 16 16 0 -2
BITMAP
0000
0000
0000
0010
0028
0050
00A0
2140
2280
2500
2A00
3400
2800
3F80
0000
0000
ENDCHAR
STARTCHAR 21DA
ENCODING 8666
SWIDTH 1000 0
DWIDTH 16 0
BBX 16 16 0 -2
BITMAP
0000
0000
0000
0000
0400
0800
1FFC
2000
7FFC
2000
1FFC
0800
0400
0000
0000
0000
ENDCHAR
STARTCHAR 21DB
ENCODING 8667
SWIDTH 1000 0
DWIDTH 16 0
BBX 16 16 0 -2
BITMAP
0000
0000
0000
0000
0040
0020
7FF0
0008
7FFC
0008
7FF0
0020
0040
0000
0000
0000
ENDCHAR
STARTCHAR 21DC
ENCODING 8668
SWIDTH 1000 0
DWIDTH 16 0
BBX 16 16 0 -2
BITMAP
0000
0000
0000
0000
0000
0800
1000
2020
7C54
2288
1100
0800
0000
0000
0000
0000
ENDCHAR
STARTCHAR 21DD
ENCODING 8669
SWIDTH 1000 0
DWIDTH 16 0
BBX 16 16 0 -2
BITMAP
0000
0000
0000
0000
0000
0020
0010
0808
547C
2288
0110
0020
0000
0000
0000
0000
ENDCHAR
STARTCHAR 21DE
ENCODING 8670
SWIDTH 1000 0
DWIDTH 16 0
BBX 16 16 0 -2
BITMAP
0000
0000
0100
0380
0540
0920
0100
0100
0FE0
0100
0FE0
0100
0100
0100
0100
0000
ENDCHAR
STARTCHAR 21DF
ENCODING 8671
SWIDTH 1000 0
DWIDTH 16 0
BBX 16 16 0 -2
BITMAP
0000
0000
0100
0100
0100
0100
0FE0
0100
0FE0
0100
0100
0920
0540
0380
0100
0000
ENDCHAR
STARTCHAR 21E0
ENCODING 8672
SWIDTH 1000 0
DWIDTH 16 0
BBX 16 16 0 -2
BITMAP
0000
0000
0000
0000
0000
0800
1000
2000
7B6C
2000
1000
0800
0000
0000
0000
0000
ENDCHAR
STARTCHAR 21E1
ENCODING 8673
SWIDTH 1000 0
DWIDTH 16 0
BBX 16 16 0 -2
BITMAP
0000
0000
0100
0380
0540
0920
0000
0100
0100
0000
0100
0100
0000
0100
0100
0000
ENDCHAR
STARTCHAR 21E2
ENCODING 8674
SWIDTH 1000 0
DWIDTH 16 0
BBX 16 16 0 -2
BITMAP
0000
0000
0000
0000
0000
0020
0010
0008
6DBC
0008
0010
0020
0000
0000
0000
0000
ENDCHAR
STARTCHAR 21E3
ENCODING 8675
SWIDTH 1000 0
DWIDTH 16 0
BBX 16 16 0 -2
BITMAP
0000
0000
0100
0100
0000
0100
0100
0000
0100
0100
0000
0920
0540
0380
0100
0000
ENDCHAR
STARTCHAR 21E4
ENCODING 8676
SWIDTH 1000 0
DWIDTH 16 0
BBX 16 16 0 -2
BITMAP
0000
0000
0000
0000
0000
4200
4400
4800
5FFC
4800
4400
4200
0000
0000
0000
0000
ENDCHAR
STARTCHAR 21E5
ENCODING 8677
SWIDTH 1000 0
DWIDTH 16 0
BBX 16 16 0 -2
BITMAP
0000
0000
0000
0000
0000
0084
0044
0024
7FF4
0024
0044
0084
0000
0000
0000
0000
ENDCHAR
STARTCHAR 21E6
ENCODING 8678
SWIDTH 1000 0
DWIDTH 16 0
BBX 16 16 0 -2
BITMAP
0000
0000
0000
0200
0600
0A00
13FC
2004
4004
2004
13FC
0A00
0600
0200
0000
0000
ENDCHAR
STARTCHAR 21E7
ENCODING 8679
SWIDTH 1000 0
DWIDTH 16 0
BBX 16 16 0 -2
BITMAP
0000
0000
0100
0280
0440
0820
1010
3C78
0440
0440
0440
0440
0440
0440
07C0
0000
ENDCHAR
STARTCHAR 21E8
ENCODING 8680
SWIDTH 1000 0
DWIDTH 16 0
BBX 16 16 0 -2
BITMAP
0000
0000
0000
0080
00C0
00A0
7F90
4008
4004
4008
7F90
00A0
00C0
0080
0000
0000
ENDCHAR
STARTCHAR 21E9
ENCODING 8681
SWIDTH 1000 0
DWIDTH 16 0
BBX 16 16 0 -2
BITMAP
0000
0000
07C0
0440
0440
0440
0440
0440
0440
3C78
1010
0820
0440
0280
0100
0000
ENDCHAR
STARTCHAR 21EA
ENCODING 8682
SWIDTH 1000 0
DWIDTH 16 0
BBX 16 16 0 -2
BITMAP
0000
0000
0100
0280
0440
0820
1010
3C78
0440
0440
07C0
0000
07C0
0440
07C0
0000
ENDCHAR
STARTCHAR 21EB
ENCODING 8683
SWIDTH 1000 0
DWIDTH 16 0
BBX 16 16 0 -2
BITMAP
0000
0000
0100
0280
0440
0820
1010
3C78
0440
0440
0440
0440
1C70
1010
1FF0
0000
ENDCHAR
STARTCHAR 21EC
ENCODING 8684
SWIDTH 1000 0
DWIDTH 16 0
BBX 16 16 0 -2
BITMAP
0000
0000
0100
0280
07C0
0820
1010
3C78
0440
0440
0440
0440
1C70
1010
1FF0
0000
ENDCHAR
STARTCHAR 21ED
ENCODING 8685
SWIDTH 1000 0
DWIDTH 16 0
BBX 16 16 0 -2
BITMAP
0000
0000
0100
0380
0540
0920
1110
3D78
0540
0540
0540
0540
1D70
1110
1FF0
0000
ENDCHAR
STARTCHAR 21EE
ENCODING 8686
SWIDTH 1000 0
DWIDTH 16 0
BBX 16 16 0 -2
BITMAP
0000
0000
0100
0280
0540
0AA0
1450
2828
1010
3C78
0440
0440
0440
0440
07C0
0000
ENDCHAR
STARTCHAR 21EF
ENCODING 8687
SWIDTH 1000 0
DWIDTH 16 0
BBX 16 16 0 -2
BITMAP
0000
0000
0100
0280
0540
0AA0
1450
2828
1010
3C78
0440
0440
1C70
1010
1FF0
0000
ENDCHAR
STARTCHAR 21F0
ENCODING 8688
SWIDTH 1000 0
DWIDTH 16 0
BBX 16 16 0 -2
BITMAP
0000
0000
0000
0080
70C0
50A0
5F90
4008
4004
4008
5F90
50A0
70C0
0080
0000
0000
ENDCHAR
STARTCHAR 21F1
ENCODING 8689
SWIDTH 1000 0
DWIDTH 16 0
BBX 16 16 0 -2
BITMAP
0000
0000
7FFC
4000
5F80
5800
5400
5200
5100
5080
4040
4020
4010
4008
4004
0000
ENDCHAR
STARTCHAR 21F2
ENCODING 8690
SWIDTH 1000 0
DWIDTH 16 0
BBX 16 16 0 -2
BITMAP
0000
0000
4004
2004
1004
0804
0404
0214
0114
0094
0054
0034
03F4
0004
7FFC
0000
ENDCHAR
STARTCHAR 21F3
ENCODING 8691
SWIDTH 1000 0
DWIDTH 16 0
BBX 16 16 0 -2
BITMAP
0000
0100
0280
0440
0820
1C70
0440
0440
0440
0440
0440
1C70
0820
0440
0280
0100
ENDCHAR
STARTCHAR 21F4
ENCODING 8692
SWIDTH 1000 0
DWIDTH 16 0
BBX 16 16 0 -2
BITMAP
0000
0000
0000
0000
0000
0020
0E10
1108
7FFC
1108
0E10
0020
0000
0000
0000
0000
ENDCHAR
STARTCHAR 21F5
ENCODING 8693
SWIDTH 1000 0
DWIDTH 16 0
BBX 16 16 0 -2
BITMAP
0000
0000
0820
0870
08A8
0924
0820
0820
0820
0820
0820
4920
2A20
1C20
0820
0000
ENDCHAR
STARTCHAR 21F6
ENCODING 8694
SWIDTH 1000 0
DWIDTH 16 0
BBX 16 16 0 -2
BITMAP
0000
0000
0010
0008
7FFC
0008
0010
0008
7FFC
0008
0010
0008
7FFC
0008
0010
0000
ENDCHAR
STARTCHAR 21F7
ENCODING 8695
SWIDTH 1000 0
DWIDTH 16 0
BBX 16 16 0 -2
BITMAP
0000
0000
0000
0000
0000
0880
1080
2080
7FFC
2080
1080
0880
0000
0000
0000
0000
ENDCHAR
STARTCHAR 21F8
ENCODING 8696
SWIDTH 1000 0
DWIDTH 16 0
BBX 16 16 0 -2
BITMAP
0000
0000
0000
0000
0000
0220
0210
0208
7FFC
0208
0210
0220
0000
0000
0000
0000
ENDCHAR
STARTCHAR 21F9
ENCODING 8697
SWIDTH 1000 0
DWIDTH 16 0
BBX 16 16 0 -2
BITMAP
0000
0000
0000
0000
0000
1110
2108
4104
FFFE
4104
2108
1110
0000
0000
0000
0000
ENDCHAR
STARTCHAR 21FA
ENCODING 8698
SWIDTH 1000 0
DWIDTH 16 0
BBX 16 16 0 -2
BITMAP
0000
0000
0000
0000
0000
0940
1140
2140
7FFC
2140
1140
0940
0000
0000
0000
0000
ENDCHAR
STARTCHAR 21FB
ENCODING 8699
SWIDTH 1000 0
DWIDTH 16 0
BBX 16 16 0 -2
BITMAP
0000
0000
0000
0000
0000
0520
0510
0508
7FFC
0508
0510
0520
0000
0000
0000
0000
ENDCHAR
STARTCHAR 21FC
ENCODING 8700
SWIDTH 1000 0
DWIDTH 16 0
BBX 16 16 0 -2
BITMAP
0000
0000
0000
0000
0000
1290
2288
4284
FFFE
4284
2288
1290
0000
0000
0000
0000
ENDCHAR
STARTCHAR 21FD
ENCODING 8701
SWIDTH 1000 0
DWIDTH 16 0
BBX 16 16 0 -2
BITMAP
0000
0000
0000
0000
0000
0800
1800
2800
4FFC
2800
1800
0800
0000
0000
0000
0000
ENDCHAR
STARTCHAR 21FE
ENCODING 8702
SWIDTH 1000 0
DWIDTH 16 0
BBX 16 16 0 -2
BITMAP
0000
0000
0000
0000
0000
0020
0030
0028
7FE4
0028
0030
0020
0000
0000
0000
0000
ENDCHAR
STARTCHAR 21FF
ENCODING 8703
SWIDTH 1000 0
DWIDTH 16 0
BBX 16 16 0 -2
BITMAP
0000
0000
0000
0000
0000
1010
3018
5014
9FF2
5014
3018
1010
0000
0000
0000
0000
ENDCHAR
STARTCHAR 230C
ENCODING 8972
SWIDTH 1000 0
DWIDTH 16 0
BBX 16 16 0 -2
BITMAP
0000
0000
0000
0000
0000
0000
0000
0000
007C
0000
0100
0100
0100
0100
0100
0000
ENDCHAR
STARTCHAR 230D
ENCODING 8973
SWIDTH 1000 0
DWIDTH 16 0
BBX 16 16 0 -2
BITMAP
0000
0000
0000
0000
0000
0000
0000
0000
7C00
0000
0100
0100
0100
0100
0100
0000
ENDCHAR
STARTCHAR 230E
ENCODING 8974
SWIDTH 1000 0
DWIDTH 16 0
BBX 16 16 0 -2
BITMAP
0000
0000
0100
0100
0100
0100
0100
0000
007C
0000
0000
0000
0000
0000
0000
0000
ENDCHAR
STARTCHAR 230F
ENCODING 8975
SWIDTH 1000 0
DWIDTH 16 0
BBX 16 16 0 -2
BITMAP
0000
0000
0100
0100
0100
0100
0100
0000
7C00
0000
0000
0000
0000
0000
0000
0000
ENDCHAR
STARTCHAR 2310
ENCODING 8976
SWIDTH 1000 0
DWIDTH 16 0
BBX 16 16 0 -2
BITMAP
0000
0000
0000
0000
0000
0000
1FF0
1000
1000
1000
1000
0000
0000
0000
0000
0000
ENDCHAR
STARTCHAR 2311
ENCODING 8977
SWIDTH 1000 0
DWIDTH 16 0
BBX 16 16 0 -2
BITMAP
0000
0000
0000
3838
26C8
2108
1010
1010
0820
1010
1010
2108
26C8
3838
0000
0000
ENDCHAR
STARTCHAR 2312
ENCODING 8978
SWIDTH 1000 0
DWIDTH 16 0
BBX 16 16 0 -2
BITMAP
0000
0000
0000
0000
0000
0380
0C60
1010
2008
2008
4004
4004
0000
0000
0000
0000
ENDCHAR
STARTCHAR 2313
ENCODING 8979
SWIDTH 1000 0
DWIDTH 16 0
BBX 16 16 0 -2
BITMAP
0000
0000
0000
0000
0000
0380
0C60
1010
2008
2008
4004
7FFC
0000
0000
0000
0000
ENDCHAR
STARTCHAR 2314
ENCODING 8980
SWIDTH 1000 0
DWIDTH 16 0
BBX 16 16 0 -2
BITMAP
0000
0000
0380
0C60
1010
2008
1010
1010
0820
0820
0440
0440
0280
0280
0100
0000
ENDCHAR
STARTCHAR 2315
ENCODING 8981
SWIDTH 1000 0
DWIDTH 16 0
BBX 16 16 0 -2
BITMAP
0000
0000
01E0
0210
0408
0804
0804
0804
0804
0408
0610
09E0
1000
2000
4000
0000
ENDCHAR
STARTCHAR 2316
ENCODING 8982
SWIDTH 1000 0
DWIDTH 16 0
BBX 16 16 0 -2
BITMAP
0000
0000
0100
0100
07C0
0920
1110
1110
7FFC
1110
1110
0920
07C0
0100
0100
0000
ENDCHAR
STARTCHAR 2317
ENCODING 8983
SWIDTH 1000 0
DWIDTH 16 0
BBX 16 16 0 -2
BITMAP
0000
0000
0820
0820
0820
7FFC
0820
0820
0820
0820
0820
7FFC
0820
0820
0820
0000
ENDCHAR
STARTCHAR 2318
ENCODING 8984
SWIDTH 1000 0
DWIDTH 16 0
BBX 16 16 0 -2
BITMAP
0000
0000
3838
4444
4444
4444
3FF8
0440
0440
0440
3FF8
4444
4444
4444
3838
0000
ENDCHAR
STARTCHAR 2319
ENCODING 8985
SWIDTH 1000 0
DWIDTH 16 0
BBX 16 16 0 -2
BITMAP
0000
0000
0000
0000
0000
0000
1000
1000
1000
1000
1FF0
0000
0000
0000
0000
0000
ENDCHAR
STARTCHAR 231A
ENCODING 8986
SWIDTH 1000 0
DWIDTH 16 0
BBX 16 16 0 -2
BITMAP
0000
07C0
07C0
07C0
0FE0
1110
1110
1110
11F0
1010
1010
1010
0FE0
07C0
07C0
07C0
ENDCHAR
STARTCHAR 231B
ENCODING 8987
SWIDTH 1000 0
DWIDTH 16 0
BBX 16 16 0 -2
BITMAP
0000
3FF8
1010
1010
1010
1010
0820
0440
0280
07C0
0FE0
1FF0
1FF0
1FF0
1FF0
3FF8
ENDCHAR
STARTCHAR 231C
ENCODING 8988
SWIDTH 1000 0
DWIDTH 16 0
BBX 16 16 0 -2
BITMAP
0000
0000
7F00
4000
4000
4000
4000
4000
4000
0000
0000
0000
0000
0000
0000
0000
ENDCHAR
STARTCHAR 231D
ENCODING 8989
SWIDTH 1000 0
DWIDTH 16 0
BBX 16 16 0 -2
BITMAP
0000
0000
01FC
0004
0004
0004
0004
0004
0004
0000
0000
0000
0000
0000
0000
0000
ENDCHAR
STARTCHAR 231E
ENCODING 8990
SWIDTH 1000 0
DWIDTH 16 0
BBX 16 16 0 -2
BITMAP
0000
0000
0000
0000
0000
0000
0000
0000
4000
4000
4000
4000
4000
4000
7F00
0000
ENDCHAR
STARTCHAR 231F
ENCODING 8991
SWIDTH 1000 0
DWIDTH 16 0
BBX 16 16 0 -2
BITMAP
0000
0000
0000
0000
0000
0000
0000
0000
0004
0004
0004
0004
0004
0004
01FC
0000
ENDCHAR
STARTCHAR 23CE
ENCODING 9166
SWIDTH 1000 0
DWIDTH 16 0
BBX 16 16 0 -2
BITMAP
0000
003E
0022
0022
0022
0422
0C22
1422
27C2
4002
8002
4004
27F8
1400
0C00
0400
ENDCHAR
STARTCHAR 23CF
ENCODING 9167
SWIDTH 1000 0
DWIDTH 16 0
BBX 16 16 0 -2
BITMAP
0000
0000
0000
0000
0100
0380
07C0
0FE0
1FF0
3FF8
0000
3FF8
3FF8
0000
0000
0000
ENDCHAR
STARTCHAR 23E8
ENCODING 9192
SWIDTH 1000 0
DWIDTH 16 0
BBX 16 16 0 -2
BITMAP
0000
0000
0000
0000
0000
0000
0000
0000
0000
08E0
1910
0930
0950
0990
0910
1CE0
ENDCHAR
STARTCHAR 23E9
ENCODING 9193
SWIDTH 1000 0
DWIDTH 16 0
BBX 16 16 0 -2
BITMAP
0000
0000
0000
0000
2080
30C0
38E0
3CF0
3EF8
3CF0
38E0
30C0
2080
0000
0000
0000
ENDCHAR
STARTCHAR 23EA
ENCODING 9194
SWIDTH 1000 0
DWIDTH 16 0
BBX 16 16 0 -2
BITMAP
0000
0000
0000
0000
0208
0618
0E38
1E78
3EF8
1E78
0E38
0618
0208
0000
0000
0000
ENDCHAR
STARTCHAR 23EB
ENCODING 9195
SWIDTH 1000 0
DWIDTH 16 0
BBX 16 16 0 -2
BITMAP
0000
0000
0000
0100
0380
07C0
0FE0
1FF0
0000
0100
0380
07C0
0FE0
1FF0
0000
0000
ENDCHAR
STARTCHAR 23EC
ENCODING 9196
SWIDTH 1000 0
DWIDTH 16 0
BBX 16 16 0 -2
BITMAP
0000
0000
0000
1FF0
0FE0
07C0
0380
0100
0000
1FF0
0FE0
07C0
0380
0100
0000
0000
ENDCHAR
STARTCHAR 23ED
ENCODING 9197
SWIDTH 1000 0
DWIDTH 16 0
BBX 16 16 0 -2
BITMAP
0000
0000
0000
0000
210C
318C
39CC
3DEC
3FFC
3DEC
39CC
318C
210C
0000
0000
0000
ENDCHAR
STARTCHAR 23EE
ENCODING 9198
SWIDTH 1000 0
DWIDTH 16 0
BBX 16 16 0 -2
BITMAP
0000
0000
0000
0000
3084
318C
339C
37BC
3FFC
37BC
339C
318C
3084
0000
0000
0000
ENDCHAR
STARTCHAR 23EF
ENCODING 9199
SWIDTH 1000 0
DWIDTH 16 0
BBX 16 16 0 -2
BITMAP
0000
0000
0000
0000
20D8
30D8
38D8
3CD8
3ED8
3CD8
38D8
30D8
20D8
0000
0000
0000
ENDCHAR
STARTCHAR 23F3
ENCODING 9203
SWIDTH 1000 0
DWIDTH 16 0
BBX 16 16 0 -2
BITMAP
0000
3FF8
1010
1010
1010
1FF0
0FE0
07C0
0380
0540
0920
1110
1FF0
1FF0
1FF0
3FF8
ENDCHAR
STARTCHAR 23F4
ENCODING 9204
SWIDTH 1000 0
DWIDTH 16 0
BBX 16 16 0 -2
BITMAP
0000
0000
0000
0000
0040
00C0
01C0
03C0
07C0
03C0
01C0
00C0
0040
0000
0000
0000
ENDCHAR
STARTCHAR 23F5
ENCODING 9205
SWIDTH 1000 0
DWIDTH 16 0
BBX 16 16 0 -2
BITMAP
0000
0000
0000
0000
0400
0600
0700
0780
07C0
0780
0700
0600
0400
0000
0000
0000
ENDCHAR
STARTCHAR 23F6
ENCODING 9206
SWIDTH 1000 0
DWIDTH 16 0
BBX 16 16 0 -2
BITMAP
0000
0000
0000
0000
0000
0000
0100
0380
07C0
0FE0
1FF0
0000
0000
0000
0000
0000
ENDCHAR
STARTCHAR 23F7
ENCODING 9207
SWIDTH 1000 0
DWIDTH 16 0
BBX 16 16 0 -2
BITMAP
0000
0000
0000
0000
0000
0000
1FF0
0FE0
07C0
0380
0100
0000
0000
0000
0000
0000
ENDCHAR
STARTCHAR 23F8
ENCODING 9208
SWIDTH 1000 0
DWIDTH 16 0
BBX 16 16 0 -2
BITMAP
0000
0000
0000
0000
0000
0C60
0C60
0C60
0C60
0C60
0C60
0C60
0000
0000
0000
0000
ENDCHAR
STARTCHAR 23F9
ENCODING 9209
SWIDTH 1000 0
DWIDTH 16 0
BBX 16 16 0 -2
BITMAP
0000
0000
0000
0000
0000
0FE0
0FE0
0FE0
0FE0
0FE0
0FE0
0FE0
0000
0000
0000
0000
ENDCHAR
STARTCHAR 23FA
ENCODING 9210
SWIDTH 1000 0
DWIDTH 16 0
BBX 16 16 0 -2
BITMAP
0000
0000
0000
0000
0000
0380
07C0
0FE0
0FE0
0FE0
07C0
0380
0000
0000
0000
0000
ENDCHAR
STARTCHAR 23FB
ENCODING 9211
SWIDTH 1000 0
DWIDTH 16 0
BBX 16 16 0 -2
BITMAP
0000
0000
0100
0920
1110
2108
2108
4104
4104
4004
2008
2008
1010
0C60
0380
0000
ENDCHAR
STARTCHAR 23FC
ENCODING 9212
SWIDTH 1000 0
DWIDTH 16 0
BBX 16 16 0 -2
BITMAP
0000
0000
0380
0C60
1010
2108
2108
4104
4104
4104
2108
2108
1010
0C60
0380
0000
ENDCHAR
STARTCHAR 23FD
ENCODING 9213
SWIDTH 1000 0
DWIDTH 16 0
BBX 16 16 0 -2
BITMAP
0000
0000
0000
0100
0100
0100
0100
0100
0100
0100
0100
0100
0100
0100
0000
0000
ENDCHAR
STARTCHAR 23FE
ENCODING 9214
SWIDTH 1000 0
DWIDTH 16 0
BBX 16 16 0 -2
BITMAP
0000
0000
03C0
0F00
1E00
3C00
3C00
7800
7800
7C00
3C00
3E04
1F98
0FF0
03E0
0000
ENDCHAR
STARTCHAR 23FF
ENCODING 9215
SWIDTH 1000 0
DWIDTH 16 0
BBX 16 16 0 -2
BITMAP
0000
0000
0000
001C
0070
01A8
0644
1844
6044
1844
0644
01A8
0070
001C
0000
0000
ENDCHAR
STARTCHAR 2460
ENCODING 9312
SWIDTH 1000 0
DWIDTH 16 0
BBX 16 16 0 -2
BITMAP
0000
07C0
1830
2008
4104
4304
8502
8102
8102
8102
8102
4104
47C4
2008
1830
07C0
ENDCHAR
STARTCHAR 2461
ENCODING 9313
SWIDTH 1000 0
DWIDTH 16 0
BBX 16 16 0 -2
BITMAP
0000
07C0
1830
2008
4384
4444
8042
8042
8082
8102
8202
4404
47C4
2008
1830
07C0
ENDCHAR
STARTCHAR 2462
ENCODING 9314
SWIDTH 1000 0
DWIDTH 16 0
BBX 16 16 0 -2
BITMAP
0000
07C0
1830
2008
4384
4444
8042
8042
8182
8042
8042
4444
4384
2008
1830
07C0
ENDCHAR
STARTCHAR 2463
ENCODING 9315
SWIDTH 1000 0
DWIDTH 16 0
BBX 16 16 0 -2
BITMAP
0000
07C0
1830
2008
4184
4284
8282
8282
8482
8482
87C2
4084
4084
2008
1830
07C0
ENDCHAR
STARTCHAR 2464
ENCODING 9316
SWIDTH 1000 0
DWIDTH 16 0
BBX 16 16 0 -2
BITMAP
0000
07C0
1830
2008
47C4
4404
8402
8402
8782
8042
8042
4444
4384
2008
1830
07C0
ENDCHAR
STARTCHAR 2465
ENCODING 9317
SWIDTH 1000 0
DWIDTH 16 0
BBX 16 16 0 -2
BITMAP
0000
07C0
1830
2008
4384
4444
8402
8402
8782
8442
8442
4444
4384
2008
1830
07C0
ENDCHAR
STARTCHAR 2466
ENCODING 9318
SWIDTH 1000 0
DWIDTH 16 0
BBX 16 16 0 -2
BITMAP
0000
07C0
1830
2008
47C4
4044
8042
8082
8082
8102
8102
4104
4104
2008
1830
07C0
ENDCHAR
STARTCHAR 2467
ENCODING 9319
SWIDTH 1000 0
DWIDTH 16 0
BBX 16 16 0 -2
BITMAP
0000
07C0
1830
2008
4384
4444
8442
8442
8382
8442
8442
4444
4384
2008
1830
07C0
ENDCHAR
STARTCHAR 2468
ENCODING 9320
SWIDTH 1000 0
DWIDTH 16 0
BBX 16 16 0 -2
BITMAP
0000
07C0
1830
2008
4384
4444
8442
8442
83C2
8042
8042
4444
4384
2008
1830
07C0
ENDCHAR
STARTCHAR 2469
ENCODING 9321
SWIDTH 1000 0
DWIDTH 16 0
BBX 16 16 0 -2
BITMAP
0000
07C0
1830
2008
48E4
5914
8912
8932
8952
8992
8912
4914
5CE4
2008
1830
07C0
ENDCHAR
STARTCHAR 246A
ENCODING 9322
SWIDTH 1000 0
DWIDTH 16 0
BBX 16 16 0 -2
BITMAP
0000
07C0
1830
2008
4824
5864
8822
8822
8822
8822
8822
4824
5C74
2008
1830
07C0
ENDCHAR
STARTCHAR 246B
ENCODING 9323
SWIDTH 1000 0
DWIDTH 16 0
BBX 16 16 0 -2
BITMAP
0000
07C0
1830
2008
48E4
5914
8812
8812
8822
8842
8882
4904
5DF4
2008
1830
07C0
ENDCHAR
STARTCHAR 246C
ENCODING 9324
SWIDTH 1000 0
DWIDTH 16 0
BBX 16 16 0 -2
BITMAP
0000
07C0
1830
2008
48E4
5914
8812
8812
8862
8812
8812
4914
5CE4
2008
1830
07C0
ENDCHAR
STARTCHAR 246D
ENCODING 9325
SWIDTH 1000 0
DWIDTH 16 0
BBX 16 16 0 -2
BITMAP
0000
07C0
1830
2008
4864
58A4
88A2
88A2
8922
8922
89F2
4824
5C24
2008
1830
07C0
ENDCHAR
STARTCHAR 246E
ENCODING 9326
SWIDTH 1000 0
DWIDTH 16 0
BBX 16 16 0 -2
BITMAP
0000
07C0
1830
2008
49F4
5904
8902
8902
89E2
8812
8812
4914
5CE4
2008
1830
07C0
ENDCHAR
STARTCHAR 246F
ENCODING 9327
SWIDTH 1000 0
DWIDTH 16 0
BBX 16 16 0 -2
BITMAP
0000
07C0
1830
2008
48E4
5914
8902
8902
89E2
8912
8912
4914
5CE4
2008
1830
07C0
ENDCHAR
STARTCHAR 2470
ENCODING 9328
SWIDTH 1000 0
DWIDTH 16 0
BBX 16 16 0 -2
BITMAP
0000
07C0
1830
2008
49F4
5814
8812
8822
8822
8842
8842
4844
5C44
2008
1830
07C0
ENDCHAR
STARTCHAR 2471
ENCODING 9329
SWIDTH 1000 0
DWIDTH 16 0
BBX 16 16 0 -2
BITMAP
0000
07C0
1830
2008
48E4
5914
8912
8912
88E2
8912
8912
4914
5CE4
2008
1830
07C0
ENDCHAR
STARTCHAR 2472
ENCODING 9330
SWIDTH 1000 0
DWIDTH 16 0
BBX 16 16 0 -2
BITMAP
0000
07C0
1830
2008
48E4
5914
8912
8912
88F2
8812
8812
4914
5CE4
2008
1830
07C0
ENDCHAR
STARTCHAR 2473
ENCODING 9331
SWIDTH 1000 0
DWIDTH 16 0
BBX 16 16 0 -2
BITMAP
0000
07C0
1830
2008
4C64
5294
8292
82B2
84D2
8492
8892
5094
5E64
2008
1830
07C0
ENDCHAR
STARTCHAR 2474
ENCODING 9332
SWIDTH 1000 0
DWIDTH 16 0
BBX 16 16 0 -2
BITMAP
0000
1010
2008
4004
4104
8302
8502
8102
8102
8102
8102
8102
47C4
4004
2008
1010
ENDCHAR
STARTCHAR 2475
ENCODING 9333
SWIDTH 1000 0
DWIDTH 16 0
BBX 16 16 0 -2
BITMAP
0000
1010
2008
4004
4384
8442
8042
8042
8082
8102
8202
8402
47C4
4004
2008
1010
ENDCHAR
STARTCHAR 2476
ENCODING 9334
SWIDTH 1000 0
DWIDTH 16 0
BBX 16 16 0 -2
BITMAP
0000
1010
2008
4004
4384
8442
8042
8042
8182
8042
8042
8442
4384
4004
2008
1010
ENDCHAR
STARTCHAR 2477
ENCODING 9335
SWIDTH 1000 0
DWIDTH 16 0
BBX 16 16 0 -2
BITMAP
0000
1010
2008
4004
4184
8282
8282
8282
8482
8482
87C2
8082
4084
4004
2008
1010
ENDCHAR
STARTCHAR 2478
ENCODING 9336
SWIDTH 1000 0
DWIDTH 16 0
BBX 16 16 0 -2
BITMAP
0000
1010
2008
4004
47C4
8402
8402
8402
8782
8042
8042
8442
4384
4004
2008
1010
ENDCHAR
STARTCHAR 2479
ENCODING 9337
SWIDTH 1000 0
DWIDTH 16 0
BBX 16 16 0 -2
BITMAP
0000
1010
2008
4004
4384
8442
8402
8402
8782
8442
8442
8442
4384
4004
2008
1010
ENDCHAR
STARTCHAR 247A
ENCODING 9338
SWIDTH 1000 0
DWIDTH 16 0
BBX 16 16 0 -2
BITMAP
0000
1010
2008
4004
47C4
8042
8042
8082
8082
8102
8102
8102
4104
4004
2008
1010
ENDCHAR
STARTCHAR 247B
ENCODING 9339
SWIDTH 1000 0
DWIDTH 16 0
BBX 16 16 0 -2
BITMAP
0000
1010
2008
4004
4384
8442
8442
8442
8382
8442
8442
8442
4384
4004
2008
1010
ENDCHAR
STARTCHAR 247C
ENCODING 9340
SWIDTH 1000 0
DWIDTH 16 0
BBX 16 16 0 -2
BITMAP
0000
1010
2008
4004
4384
8442
8442
8442
83C2
8042
8042
8442
4384
4004
2008
1010
ENDCHAR
STARTCHAR 247D
ENCODING 9341
SWIDTH 1000 0
DWIDTH 16 0
BBX 16 16 0 -2
BITMAP
0000
1010
2008
4004
48E4
9912
8912
8932
8952
8992
8912
8912
5CE4
4004
2008
1010
ENDCHAR
STARTCHAR 247E
ENCODING 9342
SWIDTH 1000 0
DWIDTH 16 0
BBX 16 16 0 -2
BITMAP
0000
1010
2008
4004
4824
9862
8822
8822
8822
8822
8822
8822
5C74
4004
2008
1010
ENDCHAR
STARTCHAR 247F
ENCODING 9343
SWIDTH 1000 0
DWIDTH 16 0
BBX 16 16 0 -2
BITMAP
0000
1010
2008
4004
48E4
9912
8812
8812
8822
8842
8882
8902
5DF4
4004
2008
1010
ENDCHAR
STARTCHAR 2480
ENCODING 9344
SWIDTH 1000 0
DWIDTH 16 0
BBX 16 16 0 -2
BITMAP
0000
1010
2008
4004
48E4
9912
8812
8812
8862
8812
8812
8912
5CE4
4004
2008
1010
ENDCHAR
STARTCHAR 2481
ENCODING 9345
SWIDTH 1000 0
DWIDTH 16 0
BBX 16 16 0 -2
BITMAP
0000
1010
2008
4004
4864
98A2
88A2
88A2
8922
8922
89F2
8822
5C24
4004
2008
1010
ENDCHAR
STARTCHAR 2482
ENCODING 9346
SWIDTH 1000 0
DWIDTH 16 0
BBX 16 16 0 -2
BITMAP
0000
1010
2008
4004
49F4
9902
8902
8902
89E2
8812
8812
8912
5CE4
4004
2008
1010
ENDCHAR
STARTCHAR 2483
ENCODING 9347
SWIDTH 1000 0
DWIDTH 16 0
BBX 16 16 0 -2
BITMAP
0000
1010
2008
4004
48E4
9912
8902
8902
89E2
8912
8912
8912
5CE4
4004
2008
1010
ENDCHAR
STARTCHAR 2484
ENCODING 9348
SWIDTH 1000 0
DWIDTH 16 0
BBX 16 16 0 -2
BITMAP
0000
1010
2008
4004
49F4
9812
8812
8822
8822
8842
8842
8842
5C44
4004
2008
1010
ENDCHAR
STARTCHAR 2485
ENCODING 9349
SWIDTH 1000 0
DWIDTH 16 0
BBX 16 16 0 -2
BITMAP
0000
1010
2008
4004
48E4
9912
8912
8912
88E2
8912
8912
8912
5CE4
4004
2008
1010
ENDCHAR
STARTCHAR 2486
ENCODING 9350
SWIDTH 1000 0
DWIDTH 16 0
BBX 16 16 0 -2
BITMAP
0000
1010
2008
4004
48E4
9912
8912
8912
88F2
8812
8812
8912
5CE4
4004
2008
1010
ENDCHAR
STARTCHAR 2487
ENCODING 9351
SWIDTH 1000 0
DWIDTH 16 0
BBX 16 16 0 -2
BITMAP
0000
1010
2008
4004
4C64
9292
8292
82B2
84D2
8492
8892
9092
5E64
4004
2008
1010
ENDCHAR
STARTCHAR 2488
ENCODING 9352
SWIDTH 1000 0
DWIDTH 16 0
BBX 16 24 0 -6
BITMAP
0000
0000
0000
0000
0000
0000
0000
0200
0600
0A00
0200
0200
0200
0200
0200
0200
0230
0FB0
0000
0000
0000
0000
0000
0000
ENDCHAR
STARTCHAR 2489
ENCODING 9353
SWIDTH 1000 0
DWIDTH 16 0
BBX 16 24 0 -6
BITMAP
0000
0000
0000
0000
0000
0000
0000
0F00
1080
0080
0080
0080
0100
0200
0400
0800
1030
1FB0
0000
0000
0000
0000
0000
0000
ENDCHAR
STARTCHAR 248A
ENCODING 9354
SWIDTH 1000 0
DWIDTH 16 0
BBX 16 24 0 -6
BITMAP
0000
0000
0000
0000
0000
0000
0000
0F00
1080
0080
0080
0080
0700
0080
0080
0080
10B0
0F30
0000
0000
0000
0000
0000
0000
ENDCHAR
STARTCHAR 248B
ENCODING 9355
SWIDTH 1000 0
DWIDTH 16 0
BBX 16 24 0 -6
BITMAP
0000
0000
0000
0000
0000
0000
0000
0300
0500
0500
0900
0900
0900
1100
1100
1F80
0130
0130
0000
0000
0000
0000
0000
0000
ENDCHAR
STARTCHAR 248C
ENCODING 9356
SWIDTH 1000 0
DWIDTH 16 0
BBX 16 24 0 -6
BITMAP
0000
0000
0000
0000
0000
0000
0000
1F80
1000
1000
1000
1000
1F00
0080
0080
0080
10B0
0F30
0000
0000
0000
0000
0000
0000
ENDCHAR
STARTCHAR 248D
ENCODING 9357
SWIDTH 1000 0
DWIDTH 16 0
BBX 16 24 0 -6
BITMAP
0000
0000
0000
0000
0000
0000
0000
0F00
1080
1000
1000
1000
1F00
1080
1080
1080
10B0
0F30
0000
0000
0000
0000
0000
0000
ENDCHAR
STARTCHAR 248E
ENCODING 9358
SWIDTH 1000 0
DWIDTH 16 0
BBX 16 24 0 -6
BITMAP
0000
0000
0000
0000
0000
0000
0000
1F80
0080
0080
0100
0100
0100
0200
0200
0200
0230
0230
0000
0000
0000
0000
0000
0000
ENDCHAR
STARTCHAR 248F
ENCODING 9359
SWIDTH 1000 0
DWIDTH 16 0
BBX 16 24 0 -6
BITMAP
0000
0000
0000
0000
0000
0000
0000
0F00
1080
1080
1080
1080
0F00
1080
1080
1080
10B0
0F30
0000
0000
0000
0000
0000
0000
ENDCHAR
STARTCHAR 2490
ENCODING 9360
SWIDTH 1000 0
DWIDTH 16 0
BBX 16 24 0 -6
BITMAP
0000
0000
0000
0000
0000
0000
0000
0F00
1080
1080
1080
1080
0F80
0080
0080
0080
10B0
0F30
0000
0000
0000
0000
0000
0000
ENDCHAR
STARTCHAR 2491
ENCODING 9361
SWIDTH 1000 0
DWIDTH 16 0
BBX 16 24 0 -6
BITMAP
0000
0000
0000
0000
0000
0000
0000
21E0
6210
2210
2210
2230
22D0
2310
2210
2210
2216
71E6
0000
0000
0000
0000
0000
0000
ENDCHAR
STARTCHAR 2492
ENCODING 9362
SWIDTH 1000 0
DWIDTH 16 0
BBX 16 24 0 -6
BITMAP
0000
0000
0000
0000
0000
0000
0000
1040
30C0
5140
1040
1040
1040
1040
1040
1040
1046
7DF6
0000
0000
0000
0000
0000
0000
ENDCHAR
STARTCHAR 2493
ENCODING 9363
SWIDTH 1000 0
DWIDTH 16 0
BBX 16 24 0 -6
BITMAP
0000
0000
0000
0000
0000
0000
0000
21E0
6210
2010
2010
2010
2020
2040
2080
2100
2206
73F6
0000
0000
0000
0000
0000
0000
ENDCHAR
STARTCHAR 2494
ENCODING 9364
SWIDTH 1000 0
DWIDTH 16 0
BBX 16 24 0 -6
BITMAP
0000
0000
0000
0000
0000
0000
0000
21E0
6210
2010
2010
2010
2060
2010
2010
2010
2216
71E6
0000
0000
0000
0000
0000
0000
ENDCHAR
STARTCHAR 2495
ENCODING 9365
SWIDTH 1000 0
DWIDTH 16 0
BBX 16 24 0 -6
BITMAP
0000
0000
0000
0000
0000
0000
0000
2060
60A0
20A0
2120
2120
2120
2220
2220
23F0
2026
7026
0000
0000
0000
0000
0000
0000
ENDCHAR
STARTCHAR 2496
ENCODING 9366
SWIDTH 1000 0
DWIDTH 16 0
BBX 16 24 0 -6
BITMAP
0000
0000
0000
0000
0000
0000
0000
23F0
6200
2200
2200
2200
23E0
2010
2010
2010
2216
71E6
0000
0000
0000
0000
0000
0000
ENDCHAR
STARTCHAR 2497
ENCODING 9367
SWIDTH 1000 0
DWIDTH 16 0
BBX 16 24 0 -6
BITMAP
0000
0000
0000
0000
0000
0000
0000
21E0
6210
2200
2200
2200
23E0
2210
2210
2210
2216
71E6
0000
0000
0000
0000
0000
0000
ENDCHAR
STARTCHAR 2498
ENCODING 9368
SWIDTH 1000 0
DWIDTH 16 0
BBX 16 24 0 -6
BITMAP
0000
0000
0000
0000
0000
0000
0000
23F0
6010
2010
2020
2020
2020
2040
2040
2040
2046
7046
0000
0000
0000
0000
0000
0000
ENDCHAR
STARTCHAR 2499
ENCODING 9369
SWIDTH 1000 0
DWIDTH 16 0
BBX 16 24 0 -6
BITMAP
0000
0000
0000
0000
0000
0000
0000
21E0
6210
2210
2210
2210
21E0
2210
2210
2210
2216
71E6
0000
0000
0000
0000
0000
0000
ENDCHAR
STARTCHAR 249A
ENCODING 9370
SWIDTH 1000 0
DWIDTH 16 0
BBX 16 24 0 -6
BITMAP
0000
0000
0000
0000
0000
0000
0000
21E0
6210
2210
2210
2210
21F0
2010
2010
2010
2216
71E6
0000
0000
0000
0000
0000
0000
ENDCHAR
STARTCHAR 249B
ENCODING 9371
SWIDTH 1000 0
DWIDTH 16 0
BBX 16 24 0 -6
BITMAP
0000
0000
0000
0000
0000
0000
0000
38E0
4510
0510
0510
0930
0950
1190
1110
2110
4116
7CE6
0000
0000
0000
0000
0000
0000
ENDCHAR
STARTCHAR 249C
ENCODING 9372
SWIDTH 1000 0
DWIDTH 16 0
BBX 16 16 0 -2
BITMAP
0000
1010
2008
4004
4004
8002
8382
8042
83C2
8442
8442
83C2
4004
4004
2008
1010
ENDCHAR
STARTCHAR 249D
ENCODING 9373
SWIDTH 1000 0
DWIDTH 16 0
BBX 16 16 0 -2
BITMAP
0000
1010
2008
4404
4404
8402
8782
8442
8442
8442
8442
8782
4004
4004
2008
1010
ENDCHAR
STARTCHAR 249E
ENCODING 9374
SWIDTH 1000 0
DWIDTH 16 0
BBX 16 16 0 -2
BITMAP
0000
1010
2008
4004
4004
8002
8382
8442
8402
8402
8442
8382
4004
4004
2008
1010
ENDCHAR
STARTCHAR 249F
ENCODING 9375
SWIDTH 1000 0
DWIDTH 16 0
BBX 16 16 0 -2
BITMAP
0000
1010
2008
4044
4044
8042
83C2
8442
8442
8442
8442
83C2
4004
4004
2008
1010
ENDCHAR
STARTCHAR 24A0
ENCODING 9376
SWIDTH 1000 0
DWIDTH 16 0
BBX 16 16 0 -2
BITMAP
0000
1010
2008
4004
4004
8002
8382
8442
87C2
8402
8442
8382
4004
4004
2008
1010
ENDCHAR
STARTCHAR 24A1
ENCODING 9377
SWIDTH 1000 0
DWIDTH 16 0
BBX 16 16 0 -2
BITMAP
0000
1010
2008
4004
40C4
8102
8102
87C2
8102
8102
8102
8102
4104
4004
2008
1010
ENDCHAR
STARTCHAR 24A2
ENCODING 9378
SWIDTH 1000 0
DWIDTH 16 0
BBX 16 16 0 -2
BITMAP
0000
1010
2008
4004
4004
83C2
8442
8442
8442
8442
83C2
8042
4044
4384
2008
1010
ENDCHAR
STARTCHAR 24A3
ENCODING 9379
SWIDTH 1000 0
DWIDTH 16 0
BBX 16 16 0 -2
BITMAP
0000
1010
2008
4404
4404
8402
8582
8642
8442
8442
8442
8442
4004
4004
2008
1010
ENDCHAR
STARTCHAR 24A4
ENCODING 9380
SWIDTH 1000 0
DWIDTH 16 0
BBX 16 16 0 -2
BITMAP
0000
1010
2008
4004
4104
8002
8302
8102
8102
8102
8102
8382
4004
4004
2008
1010
ENDCHAR
STARTCHAR 24A5
ENCODING 9381
SWIDTH 1000 0
DWIDTH 16 0
BBX 16 16 0 -2
BITMAP
0000
1010
2008
4004
4084
8002
8382
8082
8082
8082
8082
8082
4084
4304
2008
1010
ENDCHAR
STARTCHAR 24A6
ENCODING 9382
SWIDTH 1000 0
DWIDTH 16 0
BBX 16 16 0 -2
BITMAP
0000
1010
2008
4004
4404
8402
8402
8442
8582
8602
8502
8482
4444
4004
2008
1010
ENDCHAR
STARTCHAR 24A7
ENCODING 9383
SWIDTH 1000 0
DWIDTH 16 0
BBX 16 16 0 -2
BITMAP
0000
1010
2008
4004
4304
8102
8102
8102
8102
8102
8102
8102
4184
4004
2008
1010
ENDCHAR
STARTCHAR 24A8
ENCODING 9384
SWIDTH 1000 0
DWIDTH 16 0
BBX 16 16 0 -2
BITMAP
0000
1010
2008
4004
4004
8002
8EC2
8922
8922
8922
8922
8922
4004
4004
2008
1010
ENDCHAR
STARTCHAR 24A9
ENCODING 9385
SWIDTH 1000 0
DWIDTH 16 0
BBX 16 16 0 -2
BITMAP
0000
1010
2008
4004
4004
8002
8582
8642
8442
8442
8442
8442
4004
4004
2008
1010
ENDCHAR
STARTCHAR 24AA
ENCODING 9386
SWIDTH 1000 0
DWIDTH 16 0
BBX 16 16 0 -2
BITMAP
0000
1010
2008
4004
4004
8002
8382
8442
8442
8442
8442
8382
4004
4004
2008
1010
ENDCHAR
STARTCHAR 24AB
ENCODING 9387
SWIDTH 1000 0
DWIDTH 16 0
BBX 16 16 0 -2
BITMAP
0000
1010
2008
4004
4004
8782
8442
8442
8442
8442
8782
8402
4404
4404
2008
1010
ENDCHAR
STARTCHAR 24AC
ENCODING 9388
SWIDTH 1000 0
DWIDTH 16 0
BBX 16 16 0 -2
BITMAP
0000
1010
2008
4004
4004
83C2
8442
8442
8442
8442
83C2
8042
4044
4044
2008
1010
ENDCHAR
STARTCHAR 24AD
ENCODING 9389
SWIDTH 1000 0
DWIDTH 16 0
BBX 16 16 0 -2
BITMAP
0000
1010
2008
4004
4004
8002
85C2
8602
8402
8402
8402
8402
4004
4004
2008
1010
ENDCHAR
STARTCHAR 24AE
ENCODING 9390
SWIDTH 1000 0
DWIDTH 16 0
BBX 16 16 0 -2
BITMAP
0000
1010
2008
4004
4004
8002
8382
8442
8302
8082
8442
8382
4004
4004
2008
1010
ENDCHAR
STARTCHAR 24AF
ENCODING 9391
SWIDTH 1000 0
DWIDTH 16 0
BBX 16 16 0 -2
BITMAP
0000
1010
2008
4004
4104
8102
8102
87C2
8102
8102
8102
8102
40C4
4004
2008
1010
ENDCHAR
STARTCHAR 24B0
ENCODING 9392
SWIDTH 1000 0
DWIDTH 16 0
BBX 16 16 0 -2
BITMAP
0000
1010
2008
4004
4004
8002
8442
8442
8442
8442
84C2
8342
4004
4004
2008
1010
ENDCHAR
STARTCHAR 24B1
ENCODING 9393
SWIDTH 1000 0
DWIDTH 16 0
BBX 16 16 0 -2
BITMAP
0000
1010
2008
4004
4004
8002
8442
8442
8282
8282
8102
8102
4004
4004
2008
1010
ENDCHAR
STARTCHAR 24B2
ENCODING 9394
SWIDTH 1000 0
DWIDTH 16 0
BBX 16 16 0 -2
BITMAP
0000
1010
2008
4004
4004
8002
8922
8922
8AA2
8AA2
8442
8442
4004
4004
2008
1010
ENDCHAR
STARTCHAR 24B3
ENCODING 9395
SWIDTH 1000 0
DWIDTH 16 0
BBX 16 16 0 -2
BITMAP
0000
1010
2008
4004
4004
8002
8442
8282
8102
8102
8282
8442
4004
4004
2008
1010
ENDCHAR
STARTCHAR 24B4
ENCODING 9396
SWIDTH 1000 0
DWIDTH 16 0
BBX 16 16 0 -2
BITMAP
0000
1010
2008
4004
4004
8002
8442
8442
8442
8282
8282
8102
4104
4604
2008
1010
ENDCHAR
STARTCHAR 24B5
ENCODING 9397
SWIDTH 1000 0
DWIDTH 16 0
BBX 16 16 0 -2
BITMAP
0000
1010
2008
4004
4004
8002
87C2
8082
8102
8202
8402
87C2
4004
4004
2008
1010
ENDCHAR
STARTCHAR 24B6
ENCODING 9398
SWIDTH 1000 0
DWIDTH 16 0
BBX 16 16 0 -2
BITMAP
0000
07C0
1830
2008
4104
4104
8282
8282
8282
8382
8442
4444
4444
2008
1830
07C0
ENDCHAR
STARTCHAR 24B7
ENCODING 9399
SWIDTH 1000 0
DWIDTH 16 0
BBX 16 16 0 -2
BITMAP
0000
07C0
1830
2008
4784
4444
8442
8442
8782
8442
8442
4444
4784
2008
1830
07C0
ENDCHAR
STARTCHAR 24B8
ENCODING 9400
SWIDTH 1000 0
DWIDTH 16 0
BBX 16 16 0 -2
BITMAP
0000
07C0
1830
2008
4384
4444
8402
8402
8402
8402
8402
4444
4384
2008
1830
07C0
ENDCHAR
STARTCHAR 24B9
ENCODING 9401
SWIDTH 1000 0
DWIDTH 16 0
BBX 16 16 0 -2
BITMAP
0000
07C0
1830
2008
4704
4484
8442
8442
8442
8442
8442
4484
4704
2008
1830
07C0
ENDCHAR
STARTCHAR 24BA
ENCODING 9402
SWIDTH 1000 0
DWIDTH 16 0
BBX 16 16 0 -2
BITMAP
0000
07C0
1830
2008
47C4
4404
8402
8402
8782
8402
8402
4404
47C4
2008
1830
07C0
ENDCHAR
STARTCHAR 24BB
ENCODING 9403
SWIDTH 1000 0
DWIDTH 16 0
BBX 16 16 0 -2
BITMAP
0000
07C0
1830
2008
47C4
4404
8402
8402
8782
8402
8402
4404
4404
2008
1830
07C0
ENDCHAR
STARTCHAR 24BC
ENCODING 9404
SWIDTH 1000 0
DWIDTH 16 0
BBX 16 16 0 -2
BITMAP
0000
07C0
1830
2008
4384
4444
8402
8402
8402
84C2
8442
4444
43C4
2008
1830
07C0
ENDCHAR
STARTCHAR 24BD
ENCODING 9405
SWIDTH 1000 0
DWIDTH 16 0
BBX 16 16 0 -2
BITMAP
0000
07C0
1830
2008
4444
4444
8442
8442
87C2
8442
8442
4444
4444
2008
1830
07C0
ENDCHAR
STARTCHAR 24BE
ENCODING 9406
SWIDTH 1000 0
DWIDTH 16 0
BBX 16 16 0 -2
BITMAP
0000
07C0
1830
2008
4384
4104
8102
8102
8102
8102
8102
4104
4384
2008
1830
07C0
ENDCHAR
STARTCHAR 24BF
ENCODING 9407
SWIDTH 1000 0
DWIDTH 16 0
BBX 16 16 0 -2
BITMAP
0000
07C0
1830
2008
4044
4044
8042
8042
8042
8042
8442
4444
4384
2008
1830
07C0
ENDCHAR
STARTCHAR 24C0
ENCODING 9408
SWIDTH 1000 0
DWIDTH 16 0
BBX 16 16 0 -2
BITMAP
0000
07C0
1830
2008
4444
4484
8482
8502
8602
8502
8482
4484
4444
2008
1830
07C0
ENDCHAR
STARTCHAR 24C1
ENCODING 9409
SWIDTH 1000 0
DWIDTH 16 0
BBX 16 16 0 -2
BITMAP
0000
07C0
1830
2008
4404
4404
8402
8402
8402
8402
8402
4404
47C4
2008
1830
07C0
ENDCHAR
STARTCHAR 24C2
ENCODING 9410
SWIDTH 1000 0
DWIDTH 16 0
BBX 16 16 0 -2
BITMAP
0000
07C0
1830
2008
4824
4C64
8C62
8AA2
8AA2
8922
8922
4824
4824
2008
1830
07C0
ENDCHAR
STARTCHAR 24C3
ENCODING 9411
SWIDTH 1000 0
DWIDTH 16 0
BBX 16 16 0 -2
BITMAP
0000
07C0
1830
2008
4444
4644
8642
8542
8542
8542
84C2
44C4
4444
2008
1830
07C0
ENDCHAR
STARTCHAR 24C4
ENCODING 9412
SWIDTH 1000 0
DWIDTH 16 0
BBX 16 16 0 -2
BITMAP
0000
07C0
1830
2008
4384
4444
8442
8442
8442
8442
8442
4444
4384
2008
1830
07C0
ENDCHAR
STARTCHAR 24C5
ENCODING 9413
SWIDTH 1000 0
DWIDTH 16 0
BBX 16 16 0 -2
BITMAP
0000
07C0
1830
2008
4784
4444
8442
8442
8782
8402
8402
4404
4404
2008
1830
07C0
ENDCHAR
STARTCHAR 24C6
ENCODING 9414
SWIDTH 1000 0
DWIDTH 16 0
BBX 16 16 0 -2
BITMAP
0000
07C0
1830
2008
4384
4444
8442
8442
8442
8442
8542
4484
4344
2008
1830
07C0
ENDCHAR
STARTCHAR 24C7
ENCODING 9415
SWIDTH 1000 0
DWIDTH 16 0
BBX 16 16 0 -2
BITMAP
0000
07C0
1830
2008
4784
4444
8442
8442
8782
8502
8482
4484
4444
2008
1830
07C0
ENDCHAR
STARTCHAR 24C8
ENCODING 9416
SWIDTH 1000 0
DWIDTH 16 0
BBX 16 16 0 -2
BITMAP
0000
07C0
1830
2008
4384
4444
8402
8402
8382
8042
8042
4444
4384
2008
1830
07C0
ENDCHAR
STARTCHAR 24C9
ENCODING 9417
SWIDTH 1000 0
DWIDTH 16 0
BBX 16 16 0 -2
BITMAP
0000
07C0
1830
2008
47C4
4104
8102
8102
8102
8102
8102
4104
4104
2008
1830
07C0
ENDCHAR
STARTCHAR 24CA
ENCODING 9418
SWIDTH 1000 0
DWIDTH 16 0
BBX 16 16 0 -2
BITMAP
0000
07C0
1830
2008
4444
4444
8442
8442
8442
8442
8442
4444
4384
2008
1830
07C0
ENDCHAR
STARTCHAR 24CB
ENCODING 9419
SWIDTH 1000 0
DWIDTH 16 0
BBX 16 16 0 -2
BITMAP
0000
07C0
1830
2008
4444
4444
8442
8442
8282
8282
8282
4104
4104
2008
1830
07C0
ENDCHAR
STARTCHAR 24CC
ENCODING 9420
SWIDTH 1000 0
DWIDTH 16 0
BBX 16 16 0 -2
BITMAP
0000
07C0
1830
2008
4924
4924
8922
8922
8AA2
8AA2
8AA2
4444
4444
2008
1830
07C0
ENDCHAR
STARTCHAR 24CD
ENCODING 9421
SWIDTH 1000 0
DWIDTH 16 0
BBX 16 16 0 -2
BITMAP
0000
07C0
1830
2008
4444
4444
8282
8282
8102
8282
8282
4444
4444
2008
1830
07C0
ENDCHAR
STARTCHAR 24CE
ENCODING 9422
SWIDTH 1000 0
DWIDTH 16 0
BBX 16 16 0 -2
BITMAP
0000
07C0
1830
2008
4444
4444
8282
8282
8102
8102
8102
4104
4104
2008
1830
07C0
ENDCHAR
STARTCHAR 24CF
ENCODING 9423
SWIDTH 1000 0
DWIDTH 16 0
BBX 16 16 0 -2
BITMAP
0000
07C0
1830
2008
47C4
4044
8082
8082
8102
8202
8202
4404
47C4
2008
1830
07C0
ENDCHAR
STARTCHAR 24D0
ENCODING 9424
SWIDTH 1000 0
DWIDTH 16 0
BBX 16 16 0 -2
BITMAP
0000
07C0
1830
2008
4004
4004
8382
8042
83C2
8442
8442
43C4
4004
2008
1830
07C0
ENDCHAR
STARTCHAR 24D1
ENCODING 9425
SWIDTH 1000 0
DWIDTH 16 0
BBX 16 16 0 -2
BITMAP
0000
07C0
1830
2408
4404
4404
8782
8442
8442
8442
8442
4784
4004
2008
1830
07C0
ENDCHAR
STARTCHAR 24D2
ENCODING 9426
SWIDTH 1000 0
DWIDTH 16 0
BBX 16 16 0 -2
BITMAP
0000
07C0
1830
2008
4004
4004
8382
8442
8402
8402
8442
4384
4004
2008
1830
07C0
ENDCHAR
STARTCHAR 24D3
ENCODING 9427
SWIDTH 1000 0
DWIDTH 16 0
BBX 16 16 0 -2
BITMAP
0000
07C0
1830
2048
4044
4044
83C2
8442
8442
8442
8442
43C4
4004
2008
1830
07C0
ENDCHAR
STARTCHAR 24D4
ENCODING 9428
SWIDTH 1000 0
DWIDTH 16 0
BBX 16 16 0 -2
BITMAP
0000
07C0
1830
2008
4004
4004
8382
8442
87C2
8402
8442
4384
4004
2008
1830
07C0
ENDCHAR
STARTCHAR 24D5
ENCODING 9429
SWIDTH 1000 0
DWIDTH 16 0
BBX 16 16 0 -2
BITMAP
0000
07C0
1830
2008
40C4
4104
8102
87C2
8102
8102
8102
4104
4104
2008
1830
07C0
ENDCHAR
STARTCHAR 24D6
ENCODING 9430
SWIDTH 1000 0
DWIDTH 16 0
BBX 16 16 0 -2
BITMAP
0000
07C0
1830
2008
4004
43C4
8442
8442
8442
8442
83C2
4044
4044
2388
1830
07C0
ENDCHAR
STARTCHAR 24D7
ENCODING 9431
SWIDTH 1000 0
DWIDTH 16 0
BBX 16 16 0 -2
BITMAP
0000
07C0
1830
2408
4404
4404
8582
8642
8442
8442
8442
4444
4004
2008
1830
07C0
ENDCHAR
STARTCHAR 24D8
ENCODING 9432
SWIDTH 1000 0
DWIDTH 16 0
BBX 16 16 0 -2
BITMAP
0000
07C0
1830
2008
4104
4004
8302
8102
8102
8102
8102
4384
4004
2008
1830
07C0
ENDCHAR
STARTCHAR 24D9
ENCODING 9433
SWIDTH 1000 0
DWIDTH 16 0
BBX 16 16 0 -2
BITMAP
0000
07C0
1830
2008
4084
4004
8382
8082
8082
8082
8082
4084
4084
2308
1830
07C0
ENDCHAR
STARTCHAR 24DA
ENCODING 9434
SWIDTH 1000 0
DWIDTH 16 0
BBX 16 16 0 -2
BITMAP
0000
07C0
1830
2008
4404
4404
8402
8442
8582
8602
8502
4484
4444
2008
1830
07C0
ENDCHAR
STARTCHAR 24DB
ENCODING 9435
SWIDTH 1000 0
DWIDTH 16 0
BBX 16 16 0 -2
BITMAP
0000
07C0
1830
2008
4304
4104
8102
8102
8102
8102
8102
4104
4184
2008
1830
07C0
ENDCHAR
STARTCHAR 24DC
ENCODING 9436
SWIDTH 1000 0
DWIDTH 16 0
BBX 16 16 0 -2
BITMAP
0000
07C0
1830
2008
4004
4004
8EC2
8922
8922
8922
8922
4924
4004
2008
1830
07C0
ENDCHAR
STARTCHAR 24DD
ENCODING 9437
SWIDTH 1000 0
DWIDTH 16 0
BBX 16 16 0 -2
BITMAP
0000
07C0
1830
2008
4004
4004
8582
8642
8442
8442
8442
4444
4004
2008
1830
07C0
ENDCHAR
STARTCHAR 24DE
ENCODING 9438
SWIDTH 1000 0
DWIDTH 16 0
BBX 16 16 0 -2
BITMAP
0000
07C0
1830
2008
4004
4004
8382
8442
8442
8442
8442
4384
4004
2008
1830
07C0
ENDCHAR
STARTCHAR 24DF
ENCODING 9439
SWIDTH 1000 0
DWIDTH 16 0
BBX 16 16 0 -2
BITMAP
0000
07C0
1830
2008
4004
4784
8442
8442
8442
8442
8782
4404
4404
2408
1830
07C0
ENDCHAR
STARTCHAR 24E0
ENCODING 9440
SWIDTH 1000 0
DWIDTH 16 0
BBX 16 16 0 -2
BITMAP
0000
07C0
1830
2008
4004
43C4
8442
8442
8442
8442
83C2
4044
4044
2048
1830
07C0
ENDCHAR
STARTCHAR 24E1
ENCODING 9441
SWIDTH 1000 0
DWIDTH 16 0
BBX 16 16 0 -2
BITMAP
0000
07C0
1830
2008
4004
4004
85C2
8602
8402
8402
8402
4404
4004
2008
1830
07C0
ENDCHAR
STARTCHAR 24E2
ENCODING 9442
SWIDTH 1000 0
DWIDTH 16 0
BBX 16 16 0 -2
BITMAP
0000
07C0
1830
2008
4004
4004
8382
8442
8302
8082
8442
4384
4004
2008
1830
07C0
ENDCHAR
STARTCHAR 24E3
ENCODING 9443
SWIDTH 1000 0
DWIDTH 16 0
BBX 16 16 0 -2
BITMAP
0000
07C0
1830
2008
4104
4104
8102
87C2
8102
8102
8102
4104
40C4
2008
1830
07C0
ENDCHAR
STARTCHAR 24E4
ENCODING 9444
SWIDTH 1000 0
DWIDTH 16 0
BBX 16 16 0 -2
BITMAP
0000
07C0
1830
2008
4004
4004
8442
8442
8442
8442
84C2
4344
4004
2008
1830
07C0
ENDCHAR
STARTCHAR 24E5
ENCODING 9445
SWIDTH 1000 0
DWIDTH 16 0
BBX 16 16 0 -2
BITMAP
0000
07C0
1830
2008
4004
4004
8442
8442
8282
8282
8102
4104
4004
2008
1830
07C0
ENDCHAR
STARTCHAR 24E6
ENCODING 9446
SWIDTH 1000 0
DWIDTH 16 0
BBX 16 16 0 -2
BITMAP
0000
07C0
1830
2008
4004
4004
8922
8922
8AA2
8AA2
8442
4444
4004
2008
1830
07C0
ENDCHAR
STARTCHAR 24E7
ENCODING 9447
SWIDTH 1000 0
DWIDTH 16 0
BBX 16 16 0 -2
BITMAP
0000
07C0
1830
2008
4004
4004
8442
8282
8102
8102
8282
4444
4004
2008
1830
07C0
ENDCHAR
STARTCHAR 24E8
ENCODING 9448
SWIDTH 1000 0
DWIDTH 16 0
BBX 16 16 0 -2
BITMAP
0000
07C0
1830
2008
4004
4004
8442
8442
8442
8282
8282
4104
4104
2608
1830
07C0
ENDCHAR
STARTCHAR 24E9
ENCODING 9449
SWIDTH 1000 0
DWIDTH 16 0
BBX 16 16 0 -2
BITMAP
0000
07C0
1830
2008
4004
4004
87C2
8082
8102
8202
8402
47C4
4004
2008
1830
07C0
ENDCHAR
STARTCHAR 24EA
ENCODING 9450
SWIDTH 1000 0
DWIDTH 16 0
BBX 16 16 0 -2
BITMAP
0000
07C0
1830
2008
4384
4444
8442
84C2
8542
8642
8442
4444
4384
2008
1830
07C0
ENDCHAR
STARTCHAR 24EB
ENCODING 9451
SWIDTH 1000 0
DWIDTH 16 0
BBX 16 16 0 -2
BITMAP
0000
07C0
1FF0
3FF8
77DC
679C
F7DE
F7DE
F7DE
F7DE
F7DE
77DC
638C
3FF8
1FF0
07C0
ENDCHAR
STARTCHAR 24EC
ENCODING 9452
SWIDTH 1000 0
DWIDTH 16 0
BBX 16 16 0 -2
BITMAP
0000
07C0
1FF0
3FF8
771C
66EC
F7EE
F7EE
F7DE
F7BE
F77E
76FC
620C
3FF8
1FF0
07C0
ENDCHAR
STARTCHAR 24ED
ENCODING 9453
SWIDTH 1000 0
DWIDTH 16 0
BBX 16 16 0 -2
BITMAP
0000
07C0
1FF0
3FF8
771C
66EC
F7EE
F7EE
F79E
F7EE
F7EE
76EC
631C
3FF8
1FF0
07C0
ENDCHAR
STARTCHAR 24EE
ENCODING 9454
SWIDTH 1000 0
DWIDTH 16 0
BBX 16 16 0 -2
BITMAP
0000
07C0
1FF0
3FF8
779C
675C
F75E
F75E
F6DE
F6DE
F60E
77DC
63DC
3FF8
1FF0
07C0
ENDCHAR
STARTCHAR 24EF
ENCODING 9455
SWIDTH 1000 0
DWIDTH 16 0
BBX 16 16 0 -2
BITMAP
0000
07C0
1FF0
3FF8
760C
66FC
F6FE
F6FE
F61E
F7EE
F7EE
76EC
631C
3FF8
1FF0
07C0
ENDCHAR
STARTCHAR 24F0
ENCODING 9456
SWIDTH 1000 0
DWIDTH 16 0
BBX 16 16 0 -2
BITMAP
0000
07C0
1FF0
3FF8
771C
66EC
F6FE
F6FE
F61E
F6EE
F6EE
76EC
631C
3FF8
1FF0
07C0
ENDCHAR
STARTCHAR 24F1
ENCODING 9457
SWIDTH 1000 0
DWIDTH 16 0
BBX 16 16 0 -2
BITMAP
0000
07C0
1FF0
3FF8
760C
67EC
F7EE
F7DE
F7DE
F7BE
F7BE
77BC
63BC
3FF8
1FF0
07C0
ENDCHAR
STARTCHAR 24F2
ENCODING 9458
SWIDTH 1000 0
DWIDTH 16 0
BBX 16 16 0 -2
BITMAP
0000
07C0
1FF0
3FF8
771C
66EC
F6EE
F6EE
F71E
F6EE
F6EE
76EC
631C
3FF8
1FF0
07C0
ENDCHAR
STARTCHAR 24F3
ENCODING 9459
SWIDTH 1000 0
DWIDTH 16 0
BBX 16 16 0 -2
BITMAP
0000
07C0
1FF0
3FF8
771C
66EC
F6EE
F6EE
F70E
F7EE
F7EE
76EC
631C
3FF8
1FF0
07C0
ENDCHAR
STARTCHAR 24F4
ENCODING 9460
SWIDTH 1000 0
DWIDTH 16 0
BBX 16 16 0 -2
BITMAP
0000
07C0
1FF0
3FF8
739C
6D6C
FD6E
FD4E
FB2E
FB6E
F76E
6F6C
619C
3FF8
1FF0
07C0
ENDCHAR
STARTCHAR 24F5
ENCODING 9461
SWIDTH 1000 0
DWIDTH 16 0
BBX 16 16 0 -2
BITMAP
0000
07C0
1830
27C8
5834
5114
A70A
A10A
A10A
A10A
A10A
57D4
5834
27C8
1830
07C0
ENDCHAR
STARTCHAR 24F6
ENCODING 9462
SWIDTH 1000 0
DWIDTH 16 0
BBX 16 16 0 -2
BITMAP
0000
07C0
1830
27C8
5834
5394
A44A
A04A
A18A
A20A
A40A
57D4
5834
27C8
1830
07C0
ENDCHAR
STARTCHAR 24F7
ENCODING 9463
SWIDTH 1000 0
DWIDTH 16 0
BBX 16 16 0 -2
BITMAP
0000
07C0
1830
27C8
5834
5394
A44A
A04A
A18A
A04A
A44A
5394
5834
27C8
1830
07C0
ENDCHAR
STARTCHAR 24F8
ENCODING 9464
SWIDTH 1000 0
DWIDTH 16 0
BBX 16 16 0 -2
BITMAP
0000
07C0
1830
27C8
5834
5194
A28A
A28A
A48A
A48A
A7CA
5094
5834
27C8
1830
07C0
ENDCHAR
STARTCHAR 24F9
ENCODING 9465
SWIDTH 1000 0
DWIDTH 16 0
BBX 16 16 0 -2
BITMAP
0000
07C0
1830
27C8
5834
57D4
A40A
A40A
A78A
A04A
A04A
5794
5834
27C8
1830
07C0
ENDCHAR
STARTCHAR 24FA
ENCODING 9466
SWIDTH 1000 0
DWIDTH 16 0
BBX 16 16 0 -2
BITMAP
0000
07C0
1830
27C8
5834
5394
A44A
A40A
A78A
A44A
A44A
5394
5834
27C8
1830
07C0
ENDCHAR
STARTCHAR 24FB
ENCODING 9467
SWIDTH 1000 0
DWIDTH 16 0
BBX 16 16 0 -2
BITMAP
0000
07C0
1830
27C8
5834
57D4
A04A
A08A
A08A
A10A
A10A
5114
5834
27C8
1830
07C0
ENDCHAR
STARTCHAR 24FC
ENCODING 9468
SWIDTH 1000 0
DWIDTH 16 0
BBX 16 16 0 -2
BITMAP
0000
07C0
1830
27C8
5834
5394
A44A
A44A
A38A
A44A
A44A
5394
5834
27C8
1830
07C0
ENDCHAR
STARTCHAR 24FD
ENCODING 9469
SWIDTH 1000 0
DWIDTH 16 0
BBX 16 16 0 -2
BITMAP
0000
07C0
1830
27C8
5834
5394
A44A
A44A
A3CA
A04A
A44A
5394
5834
27C8
1830
07C0
ENDCHAR
STARTCHAR 24FE
ENCODING 9470
SWIDTH 1000 0
DWIDTH 16 0
BBX 16 16 0 -2
BITMAP
0000
07C0
1830
27C8
5834
54D4
AD2A
A52A
A52A
A52A
A52A
5ED4
5834
27C8
1830
07C0
ENDCHAR
STARTCHAR 24FF
ENCODING 9471
SWIDTH 1000 0
DWIDTH 16 0
BBX 16 16 0 -2
BITMAP
0000
07C0
1FF0
3FF8
7C7C
7BBC
FBBE
FB3E
FABE
F9BE
FBBE
7BBC
7C7C
3FF8
1FF0
07C0
ENDCHAR
STARTCHAR 2500
ENCODING 9472
SWIDTH 1000 0
DWIDTH 16 0
BBX 16 16 0 -2
BITMAP
0000
0000
0000
0000
0000
0000
0000
0000
FFFF
0000
0000
0000
0000
0000
0000
0000
ENDCHAR
STARTCHAR 2501
ENCODING 9473
SWIDTH 1000 0
DWIDTH 16 0
BBX 16 16 0 -2
BITMAP
0000
0000
0000
0000
0000
0000
0000
FFFF
FFFF
FFFF
0000
0000
0000
0000
0000
0000
ENDCHAR
STARTCHAR 2502
ENCODING 9474
SWIDTH 1000 0
DWIDTH 16 0
BBX 16 16 0 -2
BITMAP
0100
0100
0100
0100
0100
0100
0100
0100
0100
0100
0100
0100
0100
0100
0100
0100
ENDCHAR
STARTCHAR 2503
ENCODING 9475
SWIDTH 1000 0
DWIDTH 16 0
BBX 16 16 0 -2
BITMAP
0380
0380
0380
0380
0380
0380
0380
0380
0380
0380
0380
0380
0380
0380
0380
0380
ENDCHAR
STARTCHAR 2504
ENCODING 9476
SWIDTH 1000 0
DWIDTH 16 0
BBX 16 16 0 -2
BITMAP
0000
0000
0000
0000
0000
0000
0000
0000
F7DE
0000
0000
0000
0000
0000
0000
0000
ENDCHAR
STARTCHAR 2505
ENCODING 9477
SWIDTH 1000 0
DWIDTH 16 0
BBX 16 16 0 -2
BITMAP
0000
0000
0000
0000
0000
0000
0000
F7DE
F7DE
F7DE
0000
0000
0000
0000
0000
0000
ENDCHAR
STARTCHAR 2506
ENCODING 9478
SWIDTH 1000 0
DWIDTH 16 0
BBX 16 16 0 -2
BITMAP
0000
0100
0100
0100
0100
0000
0100
0100
0100
0100
0100
0000
0100
0100
0100
0100
ENDCHAR
STARTCHAR 2507
ENCODING 9479
SWIDTH 1000 0
DWIDTH 16 0
BBX 16 16 0 -2
BITMAP
0000
0380
0380
0380
0380
0000
0380
0380
0380
0380
0380
0000
0380
0380
0380
0380
ENDCHAR
STARTCHAR 2508
ENCODING 9480
SWIDTH 1000 0
DWIDTH 16 0
BBX 16 16 0 -2
BITMAP
0000
0000
0000
0000
0000
0000
0000
0000
EEEE
0000
0000
0000
0000
0000
0000
0000
ENDCHAR
STARTCHAR 2509
ENCODING 9481
SWIDTH 1000 0
DWIDTH 16 0
BBX 16 16 0 -2
BITMAP
0000
0000
0000
0000
0000
0000
0000
EEEE
EEEE
EEEE
0000
0000
0000
0000
0000
0000
ENDCHAR
STARTCHAR 250A
ENCODING 9482
SWIDTH 1000 0
DWIDTH 16 0
BBX 16 16 0 -2
BITMAP
0000
0100
0100
0100
0000
0100
0100
0100
0000
0100
0100
0100
0000
0100
0100
0100
ENDCHAR
STARTCHAR 250B
ENCODING 9483
SWIDTH 1000 0
DWIDTH 16 0
BBX 16 16 0 -2
BITMAP
0000
0380
0380
0380
0000
0380
0380
0380
0000
0380
0380
0380
0000
0380
0380
0380
ENDCHAR
STARTCHAR 250C
ENCODING 9484
SWIDTH 1000 0
DWIDTH 16 0
BBX 16 16 0 -2
BITMAP
0000
0000
0000
0000
0000
0000
0000
0000
01FF
0100
0100
0100
0100
0100
0100
0100
ENDCHAR
STARTCHAR 250D
ENCODING 9485
SWIDTH 1000 0
DWIDTH 16 0
BBX 16 16 0 -2
BITMAP
0000
0000
0000
0000
0000
0000
0000
01FF
01FF
01FF
0100
0100
0100
0100
0100
0100
ENDCHAR
STARTCHAR 250E
ENCODING 9486
SWIDTH 1000 0
DWIDTH 16 0
BBX 16 16 0 -2
BITMAP
0000
0000
0000
0000
0000
0000
0000
0000
03FF
0380
0380
0380
0380
0380
0380
0380
ENDCHAR
STARTCHAR 250F
ENCODING 9487
SWIDTH 1000 0
DWIDTH 16 0
BBX 16 16 0 -2
BITMAP
0000
0000
0000
0000
0000
0000
0000
03FF
03FF
03FF
0380
0380
0380
0380
0380
0380
ENDCHAR
STARTCHAR 2510
ENCODING 9488
SWIDTH 1000 0
DWIDTH 16 0
BBX 16 16 0 -2
BITMAP
0000
0000
0000
0000
0000
0000
0000
0000
FF00
0100
0100
0100
0100
0100
0100
0100
ENDCHAR
STARTCHAR 2511
ENCODING 9489
SWIDTH 1000 0
DWIDTH 16 0
BBX 16 16 0 -2
BITMAP
0000
0000
0000
0000
0000
0000
0000
FF00
FF00
FF00
0100
0100
0100
0100
0100
0100
ENDCHAR
STARTCHAR 2512
ENCODING 9490
SWIDTH 1000 0
DWIDTH 16 0
BBX 16 16 0 -2
BITMAP
0000
0000
0000
0000
0000
0000
0000
0000
FF80
0380
0380
0380
0380
0380
0380
0380
ENDCHAR
STARTCHAR 2513
ENCODING 9491
SWIDTH 1000 0
DWIDTH 16 0
BBX 16 16 0 -2
BITMAP
0000
0000
0000
0000
0000
0000
0000
FF80
FF80
FF80
0380
0380
0380
0380
0380
0380
ENDCHAR
STARTCHAR 2514
ENCODING 9492
SWIDTH 1000 0
DWIDTH 16 0
BBX 16 16 0 -2
BITMAP
0100
0100
0100
0100
0100
0100
0100
0100
01FF
0000
0000
0000
0000
0000
0000
0000
ENDCHAR
STARTCHAR 2515
ENCODING 9493
SWIDTH 1000 0
DWIDTH 16 0
BBX 16 16 0 -2
BITMAP
0100
0100
0100
0100
0100
0100
0100
01FF
01FF
01FF
0000
0000
0000
0000
0000
0000
ENDCHAR
STARTCHAR 2516
ENCODING 9494
SWIDTH 1000 0
DWIDTH 16 0
BBX 16 16 0 -2
BITMAP
0380
0380
0380
0380
0380
0380
0380
0380
03FF
0000
0000
0000
0000
0000
0000
0000
ENDCHAR
STARTCHAR 2517
ENCODING 9495
SWIDTH 1000 0
DWIDTH 16 0
BBX 16 16 0 -2
BITMAP
0380
0380
0380
0380
0380
0380
0380
03FF
03FF
03FF
0000
0000
0000
0000
0000
0000
ENDCHAR
STARTCHAR 2518
ENCODING 9496
SWIDTH 1000 0
DWIDTH 16 0
BBX 16 16 0 -2
BITMAP
0100
0100
0100
0100
0100
0100
0100
0100
FF00
0000
0000
0000
0000
0000
0000
0000
ENDCHAR
STARTCHAR 2519
ENCODING 9497
SWIDTH 1000 0
DWIDTH 16 0
BBX 16 16 0 -2
BITMAP
0100
0100
0100
0100
0100
0100
0100
FF00
FF00
FF00
0000
0000
0000
0000
0000
0000
ENDCHAR
STARTCHAR 251A
ENCODING 9498
SWIDTH 1000 0
DWIDTH 16 0
BBX 16 16 0 -2
BITMAP
0380
0380
0380
0380
0380
0380
0380
0380
FF80
0000
0000
0000
0000
0000
0000
0000
ENDCHAR
STARTCHAR 251B
ENCODING 9499
SWIDTH 1000 0
DWIDTH 16 0
BBX 16 16 0 -2
BITMAP
0380
0380
0380
0380
0380
0380
0380
FF80
FF80
FF80
0000
0000
0000
0000
0000
0000
ENDCHAR
STARTCHAR 251C
ENCODING 9500
SWIDTH 1000 0
DWIDTH 16 0
BBX 16 16 0 -2
BITMAP
0100
0100
0100
0100
0100
0100
0100
0100
01FF
0100
0100
0100
0100
0100
0100
0100
ENDCHAR
STARTCHAR 251D
ENCODING 9501
SWIDTH 1000 0
DWIDTH 16 0
BBX 16 16 0 -2
BITMAP
0100
0100
0100
0100
0100
0100
0100
01FF
01FF
01FF
0100
0100
0100
0100
0100
0100
ENDCHAR
STARTCHAR 251E
ENCODING 9502
SWIDTH 1000 0
DWIDTH 16 0
BBX 16 16 0 -2
BITMAP
0380
0380
0380
0380
0380
0380
0380
0380
03FF
0100
0100
0100
0100
0100
0100
0100
ENDCHAR
STARTCHAR 251F
ENCODING 9503
SWIDTH 1000 0
DWIDTH 16 0
BBX 16 16 0 -2
BITMAP
0100
0100
0100
0100
0100
0100
0100
0100
03FF
0380
0380
0380
0380
0380
0380
0380
ENDCHAR
STARTCHAR 2520
ENCODING 9504
SWIDTH 1000 0
DWIDTH 16 0
BBX 16 16 0 -2
BITMAP
0380
0380
0380
0380
0380
0380
0380
0380
03FF
0380
0380
0380
0380
0380
0380
0380
ENDCHAR
STARTCHAR 2521
ENCODING 9505
SWIDTH 1000 0
DWIDTH 16 0
BBX 16 16 0 -2
BITMAP
0380
0380
0380
0380
0380
0380
0380
03FF
03FF
03FF
0100
0100
0100
0100
0100
0100
ENDCHAR
STARTCHAR 2522
ENCODING 9506
SWIDTH 1000 0
DWIDTH 16 0
BBX 16 16 0 -2
BITMAP
0100
0100
0100
0100
0100
0100
0100
03FF
03FF
03FF
0380
0380
0380
0380
0380
0380
ENDCHAR
STARTCHAR 2523
ENCODING 9507
SWIDTH 1000 0
DWIDTH 16 0
BBX 16 16 0 -2
BITMAP
0380
0380
0380
0380
0380
0380
0380
03FF
03FF
03FF
0380
0380
0380
0380
0380
0380
ENDCHAR
STARTCHAR 2524
ENCODING 9508
SWIDTH 1000 0
DWIDTH 16 0
BBX 16 16 0 -2
BITMAP
0100
0100
0100
0100
0100
0100
0100
0100
FF00
0100
0100
0100
0100
0100
0100
0100
ENDCHAR
STARTCHAR 2525
ENCODING 9509
SWIDTH 1000 0
DWIDTH 16 0
BBX 16 16 0 -2
BITMAP
0100
0100
0100
0100
0100
0100
0100
FF00
FF00
FF00
0100
0100
0100
0100
0100
0100
ENDCHAR
STARTCHAR 2526
ENCODING 9510
SWIDTH 1000 0
DWIDTH 16 0
BBX 16 16 0 -2
BITMAP
0380
0380
0380
0380
0380
0380
0380
0380
FF80
0100
0100
0100
0100
0100
0100
0100
ENDCHAR
STARTCHAR 2527
ENCODING 9511
SWIDTH 1000 0
DWIDTH 16 0
BBX 16 16 0 -2
BITMAP
0100
0100
0100
0100
0100
0100
0100
0100
FF80
0380
0380
0380
0380
0380
0380
0380
ENDCHAR
STARTCHAR 2528
ENCODING 9512
SWIDTH 1000 0
DWIDTH 16 0
BBX 16 16 0 -2
BITMAP
0380
0380
0380
0380
0380
0380
0380
0380
FF80
0380
0380
0380
0380
0380
0380
0380
ENDCHAR
STARTCHAR 2529
ENCODING 9513
SWIDTH 1000 0
DWIDTH 16 0
BBX 16 16 0 -2
BITMAP
0380
0380
0380
0380
0380
0380
0380
FF80
FF80
FF80
0100
0100
0100
0100
0100
0100
ENDCHAR
STARTCHAR 252A
ENCODING 9514
SWIDTH 1000 0
DWIDTH 16 0
BBX 16 16 0 -2
BITMAP
0100
0100
0100
0100
0100
0100
0100
FF80
FF80
FF80
0380
0380
0380
0380
0380
0380
ENDCHAR
STARTCHAR 252B
ENCODING 9515
SWIDTH 1000 0
DWIDTH 16 0
BBX 16 16 0 -2
BITMAP
0380
0380
0380
0380
0380
0380
0380
FF80
FF80
FF80
0380
0380
0380
0380
0380
0380
ENDCHAR
STARTCHAR 252C
ENCODING 9516
SWIDTH 1000 0
DWIDTH 16 0
BBX 16 16 0 -2
BITMAP
0000
0000
0000
0000
0000
0000
0000
0000
FFFF
0100
0100
0100
0100
0100
0100
0100
ENDCHAR
STARTCHAR 252D
ENCODING 9517
SWIDTH 1000 0
DWIDTH 16 0
BBX 16 16 0 -2
BITMAP
0000
0000
0000
0000
0000
0000
0000
FF00
FFFF
FF00
0100
0100
0100
0100
0100
0100
ENDCHAR
STARTCHAR 252E
ENCODING 9518
SWIDTH 1000 0
DWIDTH 16 0
BBX 16 16 0 -2
BITMAP
0000
0000
0000
0000
0000
0000
0000
01FF
FFFF
01FF
0100
0100
0100
0100
0100
0100
ENDCHAR
STARTCHAR 252F
ENCODING 9519
SWIDTH 1000 0
DWIDTH 16 0
BBX 16 16 0 -2
BITMAP
0000
0000
0000
0000
0000
0000
0000
FFFF
FFFF
FFFF
0100
0100
0100
0100
0100
0100
ENDCHAR
STARTCHAR 2530
ENCODING 9520
SWIDTH 1000 0
DWIDTH 16 0
BBX 16 16 0 -2
BITMAP
0000
0000
0000
0000
0000
0000
0000
0000
FFFF
0380
0380
0380
0380
0380
0380
0380
ENDCHAR
STARTCHAR 2531
ENCODING 9521
SWIDTH 1000 0
DWIDTH 16 0
BBX 16 16 0 -2
BITMAP
0000
0000
0000
0000
0000
0000
0000
FF80
FFFF
FF80
0380
0380
0380
0380
0380
0380
ENDCHAR
STARTCHAR 2532
ENCODING 9522
SWIDTH 1000 0
DWIDTH 16 0
BBX 16 16 0 -2
BITMAP
0000
0000
0000
0000
0000
0000
0000
03FF
FFFF
03FF
0380
0380
0380
0380
0380
0380
ENDCHAR
STARTCHAR 2533
ENCODING 9523
SWIDTH 1000 0
DWIDTH 16 0
BBX 16 16 0 -2
BITMAP
0000
0000
0000
0000
0000
0000
0000
FFFF
FFFF
FFFF
0380
0380
0380
0380
0380
0380
ENDCHAR
STARTCHAR 2534
ENCODING 9524
SWIDTH 1000 0
DWIDTH 16 0
BBX 16 16 0 -2
BITMAP
0100
0100
0100
0100
0100
0100
0100
0100
FFFF
0000
0000
0000
0000
0000
0000
0000
ENDCHAR
STARTCHAR 2535
ENCODING 9525
SWIDTH 1000 0
DWIDTH 16 0
BBX 16 16 0 -2
BITMAP
0100
0100
0100
0100
0100
0100
0100
FF00
FFFF
FF00
0000
0000
0000
0000
0000
0000
ENDCHAR
STARTCHAR 2536
ENCODING 9526
SWIDTH 1000 0
DWIDTH 16 0
BBX 16 16 0 -2
BITMAP
0100
0100
0100
0100
0100
0100
0100
01FF
FFFF
01FF
0000
0000
0000
0000
0000
0000
ENDCHAR
STARTCHAR 2537
ENCODING 9527
SWIDTH 1000 0
DWIDTH 16 0
BBX 16 16 0 -2
BITMAP
0100
0100
0100
0100
0100
0100
0100
FFFF
FFFF
FFFF
0000
0000
0000
0000
0000
0000
ENDCHAR
STARTCHAR 2538
ENCODING 9528
SWIDTH 1000 0
DWIDTH 16 0
BBX 16 16 0 -2
BITMAP
0380
0380
0380
0380
0380
0380
0380
0380
FFFF
0000
0000
0000
0000
0000
0000
0000
ENDCHAR
STARTCHAR 2539
ENCODING 9529
SWIDTH 1000 0
DWIDTH 16 0
BBX 16 16 0 -2
BITMAP
0380
0380
0380
0380
0380
0380
0380
FF80
FFFF
FF80
0000
0000
0000
0000
0000
0000
ENDCHAR
STARTCHAR 253A
ENCODING 9530
SWIDTH 1000 0
DWIDTH 16 0
BBX 16 16 0 -2
BITMAP
0380
0380
0380
0380
0380
0380
0380
03FF
FFFF
03FF
0000
0000
0000
0000
0000
0000
ENDCHAR
STARTCHAR 253B
ENCODING 9531
SWIDTH 1000 0
DWIDTH 16 0
BBX 16 16 0 -2
BITMAP
0380
0380
0380
0380
0380
0380
0380
FFFF
FFFF
FFFF
0000
0000
0000
0000
0000
0000
ENDCHAR
STARTCHAR 253C
ENCODING 9532
SWIDTH 1000 0
DWIDTH 16 0
BBX 16 16 0 -2
BITMAP
0100
0100
0100
0100
0100
0100
0100
0100
FFFF
0100
0100
0100
0100
0100
0100
0100
ENDCHAR
STARTCHAR 253D
ENCODING 9533
SWIDTH 1000 0
DWIDTH 16 0
BBX 16 16 0 -2
BITMAP
0100
0100
0100
0100
0100
0100
0100
FF00
FFFF
FF00
0100
0100
0100
0100
0100
0100
ENDCHAR
STARTCHAR 253E
ENCODING 9534
SWIDTH 1000 0
DWIDTH 16 0
BBX 16 16 0 -2
BITMAP
0100
0100
0100
0100
0100
0100
0100
01FF
FFFF
01FF
0100
0100
0100
0100
0100
0100
ENDCHAR
STARTCHAR 253F
ENCODING 9535
SWIDTH 1000 0
DWIDTH 16 0
BBX 16 16 0 -2
BITMAP
0100
0100
0100
0100
0100
0100
0100
FFFF
FFFF
FFFF
0100
0100
0100
0100
0100
0100
ENDCHAR
STARTCHAR 2540
ENCODING 9536
SWIDTH 1000 0
DWIDTH 16 0
BBX 16 16 0 -2
BITMAP
0380
0380
0380
0380
0380
0380
0380
0380
FFFF
0100
0100
0100
0100
0100
0100
0100
ENDCHAR
STARTCHAR 2541
ENCODING 9537
SWIDTH 1000 0
DWIDTH 16 0
BBX 16 16 0 -2
BITMAP
0100
0100
0100
0100
0100
0100
0100
0100
FFFF
0380
0380
0380
0380
0380
0380
0380
ENDCHAR
STARTCHAR 2542
ENCODING 9538
SWIDTH 1000 0
DWIDTH 16 0
BBX 16 16 0 -2
BITMAP
0380
0380
0380
0380
0380
0380
0380
0380
FFFF
0380
0380
0380
0380
0380
0380
0380
ENDCHAR
STARTCHAR 2543
ENCODING 9539
SWIDTH 1000 0
DWIDTH 16 0
BBX 16 16 0 -2
BITMAP
0380
0380
0380
0380
0380
0380
0380
FF80
FFFF
FF80
0100
0100
0100
0100
0100
0100
ENDCHAR
STARTCHAR 2544
ENCODING 9540
SWIDTH 1000 0
DWIDTH 16 0
BBX 16 16 0 -2
BITMAP
0380
0380
0380
0380
0380
0380
0380
03FF
FFFF
03FF
0100
0100
0100
0100
0100
0100
ENDCHAR
STARTCHAR 2545
ENCODING 9541
SWIDTH 1000 0
DWIDTH 16 0
BBX 16 16 0 -2
BITMAP
0100
0100
0100
0100
0100
0100
0100
FF80
FFFF
FF80
0380
0380
0380
0380
0380
0380
ENDCHAR
STARTCHAR 2546
ENCODING 9542
SWIDTH 1000 0
DWIDTH 16 0
BBX 16 16 0 -2
BITMAP
0100
0100
0100
0100
0100
0100
0100
03FF
FFFF
03FF
0380
0380
0380
0380
0380
0380
ENDCHAR
STARTCHAR 2547
ENCODING 9543
SWIDTH 1000 0
DWIDTH 16 0
BBX 16 16 0 -2
BITMAP
0380
0380
0380
0380
0380
0380
0380
FFFF
FFFF
FFFF
0100
0100
0100
0100
0100
0100
ENDCHAR
STARTCHAR 2548
ENCODING 9544
SWIDTH 1000 0
DWIDTH 16 0
BBX 16 16 0 -2
BITMAP
0100
0100
0100
0100
0100
0100
0100
FFFF
FFFF
FFFF
0380
0380
0380
0380
0380
0380
ENDCHAR
STARTCHAR 2549
ENCODING 9545
SWIDTH 1000 0
DWIDTH 16 0
BBX 16 16 0 -2
BITMAP
0380
0380
0380
0380
0380
0380
0380
FF80
FFFF
FF80
0380
0380
0380
0380
0380
0380
ENDCHAR
STARTCHAR 254A
ENCODING 9546
SWIDTH 1000 0
DWIDTH 16 0
BBX 16 16 0 -2
BITMAP
0380
0380
0380
0380
0380
0380
0380
03FF
FFFF
03FF
0380
0380
0380
0380
0380
0380
ENDCHAR
STARTCHAR 254B
ENCODING 9547
SWIDTH 1000 0
DWIDTH 16 0
BBX 16 16 0 -2
BITMAP
0380
0380
0380
0380
0380
0380
0380
FFFF
FFFF
FFFF
0380
0380
0380
0380
0380
0380
ENDCHAR
STARTCHAR 254C
ENCODING 9548
SWIDTH 1000 0
DWIDTH 16 0
BBX 16 16 0 -2
BITMAP
0000
0000
0000
0000
0000
0000
0000
0000
7E7E
0000
0000
0000
0000
0000
0000
0000
ENDCHAR
STARTCHAR 254D
ENCODING 9549
SWIDTH 1000 0
DWIDTH 16 0
BBX 16 16 0 -2
BITMAP
0000
0000
0000
0000
0000
0000
0000
7E7E
7E7E
7E7E
0000
0000
0000
0000
0000
0000
ENDCHAR
STARTCHAR 254E
ENCODING 9550
SWIDTH 1000 0
DWIDTH 16 0
BBX 16 16 0 -2
BITMAP
0000
0100
0100
0100
0100
0100
0100
0000
0000
0100
0100
0100
0100
0100
0100
0000
ENDCHAR
STARTCHAR 254F
ENCODING 9551
SWIDTH 1000 0
DWIDTH 16 0
BBX 16 16 0 -2
BITMAP
0000
0380
0380
0380
0380
0380
0380
0000
0000
0380
0380
0380
0380
0380
0380
0000
ENDCHAR
STARTCHAR 2550
ENCODING 9552
SWIDTH 1000 0
DWIDTH 16 0
BBX 16 16 0 -2
BITMAP
0000
0000
0000
0000
0000
0000
0000
FFFF
0000
FFFF
0000
0000
0000
0000
0000
0000
ENDCHAR
STARTCHAR 2551
ENCODING 9553
SWIDTH 1000 0
DWIDTH 16 0
BBX 16 16 0 -2
BITMAP
0280
0280
0280
0280
0280
0280
0280
0280
0280
0280
0280
0280
0280
0280
0280
0280
ENDCHAR
STARTCHAR 2552
ENCODING 9554
SWIDTH 1000 0
DWIDTH 16 0
BBX 16 16 0 -2
BITMAP
0000
0000
0000
0000
0000
0000
0000
01FF
0100
01FF
0100
0100
0100
0100
0100
0100
ENDCHAR
STARTCHAR 2553
ENCODING 9555
SWIDTH 1000 0
DWIDTH 16 0
BBX 16 16 0 -2
BITMAP
0000
0000
0000
0000
0000
0000
0000
0000
03FF
0280
0280
0280
0280
0280
0280
0280
ENDCHAR
STARTCHAR 2554
ENCODING 9556
SWIDTH 1000 0
DWIDTH 16 0
BBX 16 16 0 -2
BITMAP
0000
0000
0000
0000
0000
0000
0000
03FF
0200
02FF
0280
0280
0280
0280
0280
0280
ENDCHAR
STARTCHAR 2555
ENCODING 9557
SWIDTH 1000 0
DWIDTH 16 0
BBX 16 16 0 -2
BITMAP
0000
0000
0000
0000
0000
0000
0000
FF00
0100
FF00
0100
0100
0100
0100
0100
0100
ENDCHAR
STARTCHAR 2556
ENCODING 9558
SWIDTH 1000 0
DWIDTH 16 0
BBX 16 16 0 -2
BITMAP
0000
0000
0000
0000
0000
0000
0000
0000
FF80
0280
0280
0280
0280
0280
0280
0280
ENDCHAR
STARTCHAR 2557
ENCODING 9559
SWIDTH 1000 0
DWIDTH 16 0
BBX 16 16 0 -2
BITMAP
0000
0000
0000
0000
0000
0000
0000
FF80
0080
FE80
0280
0280
0280
0280
0280
0280
ENDCHAR
STARTCHAR 2558
ENCODING 9560
SWIDTH 1000 0
DWIDTH 16 0
BBX 16 16 0 -2
BITMAP
0100
0100
0100
0100
0100
0100
0100
01FF
0100
01FF
0000
0000
0000
0000
0000
0000
ENDCHAR
STARTCHAR 2559
ENCODING 9561
SWIDTH 1000 0
DWIDTH 16 0
BBX 16 16 0 -2
BITMAP
0280
0280
0280
0280
0280
0280
0280
0280
03FF
0000
0000
0000
0000
0000
0000
0000
ENDCHAR
STARTCHAR 255A
ENCODING 9562
SWIDTH 1000 0
DWIDTH 16 0
BBX 16 16 0 -2
BITMAP
0280
0280
0280
0280
0280
0280
0280
02FF
0200
03FF
0000
0000
0000
0000
0000
0000
ENDCHAR
STARTCHAR 255B
ENCODING 9563
SWIDTH 1000 0
DWIDTH 16 0
BBX 16 16 0 -2
BITMAP
0100
0100
0100
0100
0100
0100
0100
FF00
0100
FF00
0000
0000
0000
0000
0000
0000
ENDCHAR
STARTCHAR 255C
ENCODING 9564
SWIDTH 1000 0
DWIDTH 16 0
BBX 16 16 0 -2
BITMAP
0280
0280
0280
0280
0280
0280
0280
0280
FF80
0000
0000
0000
0000
0000
0000
0000
ENDCHAR
STARTCHAR 255D
ENCODING 9565
SWIDTH 1000 0
DWIDTH 16 0
BBX 16 16 0 -2
BITMAP
0280
0280
0280
0280
0280
0280
0280
FE80
0080
FF80
0000
0000
0000
0000
0000
0000
ENDCHAR
STARTCHAR 255E
ENCODING 9566
SWIDTH 1000 0
DWIDTH 16 0
BBX 16 16 0 -2
BITMAP
0100
0100
0100
0100
0100
0100
0100
01FF
0100
01FF
0100
0100
0100
0100
0100
0100
ENDCHAR
STARTCHAR 255F
ENCODING 9567
SWIDTH 1000 0
DWIDTH 16 0
BBX 16 16 0 -2
BITMAP
0280
0280
0280
0280
0280
0280
0280
0280
02FF
0280
0280
0280
0280
0280
0280
0280
ENDCHAR
STARTCHAR 2560
ENCODING 9568
SWIDTH 1000 0
DWIDTH 16 0
BBX 16 16 0 -2
BITMAP
0280
0280
0280
0280
0280
0280
0280
02FF
0200
02FF
0280
0280
0280
0280
0280
0280
ENDCHAR
STARTCHAR 2561
ENCODING 9569
SWIDTH 1000 0
DWIDTH 16 0
BBX 16 16 0 -2
BITMAP
0100
0100
0100
0100
0100
0100
0100
FF00
0100
FF00
0100
0100
0100
0100
0100
0100
ENDCHAR
STARTCHAR 2562
ENCODING 9570
SWIDTH 1000 0
DWIDTH 16 0
BBX 16 16 0 -2
BITMAP
0280
0280
0280
0280
0280
0280
0280
0280
FE80
0280
0280
0280
0280
0280
0280
0280
ENDCHAR
STARTCHAR 2563
ENCODING 9571
SWIDTH 1000 0
DWIDTH 16 0
BBX 16 16 0 -2
BITMAP
0280
0280
0280
0280
0280
0280
0280
FE80
0080
FE80
0280
0280
0280
0280
0280
0280
ENDCHAR
STARTCHAR 2564
ENCODING 9572
SWIDTH 1000 0
DWIDTH 16 0
BBX 16 16 0 -2
BITMAP
0000
0000
0000
0000
0000
0000
0000
FFFF
0000
FFFF
0100
0100
0100
0100
0100
0100
ENDCHAR
STARTCHAR 2565
ENCODING 9573
SWIDTH 1000 0
DWIDTH 16 0
BBX 16 16 0 -2
BITMAP
0000
0000
0000
0000
0000
0000
0000
0000
FFFF
0280
0280
0280
0280
0280
0280
0280
ENDCHAR
STARTCHAR 2566
ENCODING 9574
SWIDTH 1000 0
DWIDTH 16 0
BBX 16 16 0 -2
BITMAP
0000
0000
0000
0000
0000
0000
0000
FFFF
0000
FEFF
0280
0280
0280
0280
0280
0280
ENDCHAR
STARTCHAR 2567
ENCODING 9575
SWIDTH 1000 0
DWIDTH 16 0
BBX 16 16 0 -2
BITMAP
0100
0100
0100
0100
0100
0100
0100
FFFF
0000
FFFF
0000
0000
0000
0000
0000
0000
ENDCHAR
STARTCHAR 2568
ENCODING 9576
SWIDTH 1000 0
DWIDTH 16 0
BBX 16 16 0 -2
BITMAP
0280
0280
0280
0280
0280
0280
0280
0280
FFFF
0000
0000
0000
0000
0000
0000
0000
ENDCHAR
STARTCHAR 2569
ENCODING 9577
SWIDTH 1000 0
DWIDTH 16 0
BBX 16 16 0 -2
BITMAP
0280
0280
0280
0280
0280
0280
0280
FEFF
0000
FFFF
0000
0000
0000
0000
0000
0000
ENDCHAR
STARTCHAR 256A
ENCODING 9578
SWIDTH 1000 0
DWIDTH 16 0
BBX 16 16 0 -2
BITMAP
0100
0100
0100
0100
0100
0100
0100
FFFF
0100
FFFF
0100
0100
0100
0100
0100
0100
ENDCHAR
STARTCHAR 256B
ENCODING 9579
SWIDTH 1000 0
DWIDTH 16 0
BBX 16 16 0 -2
BITMAP
0280
0280
0280
0280
0280
0280
0280
0280
FFFF
0280
0280
0280
0280
0280
0280
0280
ENDCHAR
STARTCHAR 256C
ENCODING 9580
SWIDTH 1000 0
DWIDTH 16 0
BBX 16 16 0 -2
BITMAP
0280
0280
0280
0280
0280
0280
0280
FEFF
0000
FEFF
0280
0280
0280
0280
0280
0280
ENDCHAR
STARTCHAR 256D
ENCODING 9581
SWIDTH 1000 0
DWIDTH 16 0
BBX 16 16 0 -2
BITMAP
0000
0000
0000
0000
0000
0000
0000
0000
0007
0018
0020
0040
0080
0080
0100
0100
ENDCHAR
STARTCHAR 256E
ENCODING 9582
SWIDTH 1000 0
DWIDTH 16 0
BBX 16 16 0 -2
BITMAP
0000
0000
0000
0000
0000
0000
0000
0000
C000
3000
0800
0400
0200
0200
0100
0100
ENDCHAR
STARTCHAR 256F
ENCODING 9583
SWIDTH 1000 0
DWIDTH 16 0
BBX 16 16 0 -2
BITMAP
0100
0100
0100
0200
0200
0400
0800
3000
C000
0000
0000
0000
0000
0000
0000
0000
ENDCHAR
STARTCHAR 2570
ENCODING 9584
SWIDTH 1000 0
DWIDTH 16 0
BBX 16 16 0 -2
BITMAP
0100
0100
0100
0080
0080
0040
0020
0018
0007
0000
0000
0000
0000
0000
0000
0000
ENDCHAR
STARTCHAR 2571
ENCODING 9585
SWIDTH 1000 0
DWIDTH 16 0
BBX 16 16 0 -2
BITMAP
0001
0002
0004
0008
0010
0020
0040
0080
0100
0200
0400
0800
1000
2000
4000
8000
ENDCHAR
STARTCHAR 2572
ENCODING 9586
SWIDTH 1000 0
DWIDTH 16 0
BBX 16 16 0 -2
BITMAP
8000
4000
2000
1000
0800
0400
0200
0100
0080
0040
0020
0010
0008
0004
0002
0001
ENDCHAR
STARTCHAR 2573
ENCODING 9587
SWIDTH 1000 0
DWIDTH 16 0
BBX 16 16 0 -2
BITMAP
8001
4002
2004
1008
0810
0420
0240
0180
0180
0240
0420
0810
1008
2004
4002
8001
ENDCHAR
STARTCHAR 2574
ENCODING 9588
SWIDTH 1000 0
DWIDTH 16 0
BBX 16 16 0 -2
BITMAP
0000
0000
0000
0000
0000
0000
0000
0000
FF00
0000
0000
0000
0000
0000
0000
0000
ENDCHAR
STARTCHAR 2575
ENCODING 9589
SWIDTH 1000 0
DWIDTH 16 0
BBX 16 16 0 -2
BITMAP
0100
0100
0100
0100
0100
0100
0100
0100
0100
0000
0000
0000
0000
0000
0000
0000
ENDCHAR
STARTCHAR 2576
ENCODING 9590
SWIDTH 1000 0
DWIDTH 16 0
BBX 16 16 0 -2
BITMAP
0000
0000
0000
0000
0000
0000
0000
0000
01FF
0000
0000
0000
0000
0000
0000
0000
ENDCHAR
STARTCHAR 2577
ENCODING 9591
SWIDTH 1000 0
DWIDTH 16 0
BBX 16 16 0 -2
BITMAP
0000
0000
0000
0000
0000
0000
0000
0000
0100
0100
0100
0100
0100
0100
0100
0100
ENDCHAR
STARTCHAR 2578
ENCODING 9592
SWIDTH 1000 0
DWIDTH 16 0
BBX 16 16 0 -2
BITMAP
0000
0000
0000
0000
0000
0000
0000
FF00
FF00
FF00
0000
0000
0000
0000
0000
0000
ENDCHAR
STARTCHAR 2579
ENCODING 9593
SWIDTH 1000 0
DWIDTH 16 0
BBX 16 16 0 -2
BITMAP
0380
0380
0380
0380
0380
0380
0380
0380
0380
0000
0000
0000
0000
0000
0000
0000
ENDCHAR
STARTCHAR 257A
ENCODING 9594
SWIDTH 1000 0
DWIDTH 16 0
BBX 16 16 0 -2
BITMAP
0000
0000
0000
0000
0000
0000
0000
01FF
01FF
01FF
0000
0000
0000
0000
0000
0000
ENDCHAR
STARTCHAR 257B
ENCODING 9595
SWIDTH 1000 0
DWIDTH 16 0
BBX 16 16 0 -2
BITMAP
0000
0000
0000
0000
0000
0000
0000
0000
0380
0380
0380
0380
0380
0380
0380
0380
ENDCHAR
STARTCHAR 257C
ENCODING 9596
SWIDTH 1000 0
DWIDTH 16 0
BBX 16 16 0 -2
BITMAP
0000
0000
0000
0000
0000
0000
0000
01FF
FFFF
01FF
0000
0000
0000
0000
0000
0000
ENDCHAR
STARTCHAR 257D
ENCODING 9597
SWIDTH 1000 0
DWIDTH 16 0
BBX 16 16 0 -2
BITMAP
0100
0100
0100
0100
0100
0100
0100
0100
0380
0380
0380
0380
0380
0380
0380
0380
ENDCHAR
STARTCHAR 257E
ENCODING 9598
SWIDTH 1000 0
DWIDTH 16 0
BBX 16 16 0 -2
BITMAP
0000
0000
0000
0000
0000
0000
0000
FF00
FFFF
FF00
0000
0000
0000
0000
0000
0000
ENDCHAR
STARTCHAR 257F
ENCODING 9599
SWIDTH 1000 0
DWIDTH 16 0
BBX 16 16 0 -2
BITMAP
0380
0380
0380
0380
0380
0380
0380
0380
0380
0100
0100
0100
0100
0100
0100
0100
ENDCHAR
STARTCHAR 2580
ENCODING 9600
SWIDTH 1000 0
DWIDTH 16 0
BBX 16 16 0 -2
BITMAP
FFFF
FFFF
FFFF
FFFF
FFFF
FFFF
FFFF
FFFF
0000
0000
0000
0000
0000
0000
0000
0000
ENDCHAR
STARTCHAR 2581
ENCODING 9601
SWIDTH 1000 0
DWIDTH 16 0
BBX 16 16 0 -2
BITMAP
0000
0000
0000
0000
0000
0000
0000
0000
0000
0000
0000
0000
0000
0000
FFFF
FFFF
ENDCHAR
STARTCHAR 2582
ENCODING 9602
SWIDTH 1000 0
DWIDTH 16 0
BBX 16 16 0 -2
BITMAP
0000
0000
0000
0000
0000
0000
0000
0000
0000
0000
0000
0000
FFFF
FFFF
FFFF
FFFF
ENDCHAR
STARTCHAR 2583
ENCODING 9603
SWIDTH 1000 0
DWIDTH 16 0
BBX 16 16 0 -2
BITMAP
0000
0000
0000
0000
0000
0000
0000
0000
0000
0000
FFFF
FFFF
FFFF
FFFF
FFFF
FFFF
ENDCHAR
STARTCHAR 2584
ENCODING 9604
SWIDTH 1000 0
DWIDTH 16 0
BBX 16 16 0 -2
BITMAP
0000
0000
0000
0000
0000
0000
0000
0000
FFFF
FFFF
FFFF
FFFF
FFFF
FFFF
FFFF
FFFF
ENDCHAR
STARTCHAR 2585
ENCODING 9605
SWIDTH 1000 0
DWIDTH 16 0
BBX 16 16 0 -2
BITMAP
0000
0000
0000
0000
0000
0000
FFFF
FFFF
FFFF
FFFF
FFFF
FFFF
FFFF
FFFF
FFFF
FFFF
ENDCHAR
STARTCHAR 2586
ENCODING 9606
SWIDTH 1000 0
DWIDTH 16 0
BBX 16 16 0 -2
BITMAP
0000
0000
0000
0000
FFFF
FFFF
FFFF
FFFF
FFFF
FFFF
FFFF
FFFF
FFFF
FFFF
FFFF
FFFF
ENDCHAR
STARTCHAR 2587
ENCODING 9607
SWIDTH 1000 0
DWIDTH 16 0
BBX 16 16 0 -2
BITMAP
0000
0000
FFFF
FFFF
FFFF
FFFF
FFFF
FFFF
FFFF
FFFF
FFFF
FFFF
FFFF
FFFF
FFFF
FFFF
ENDCHAR
STARTCHAR 2588
ENCODING 9608
SWIDTH 1000 0
DWIDTH 16 0
BBX 16 16 0 -2
BITMAP
FFFF
FFFF
FFFF
FFFF
FFFF
FFFF
FFFF
FFFF
FFFF
FFFF
FFFF
FFFF
FFFF
FFFF
FFFF
FFFF
ENDCHAR
STARTCHAR 2589
ENCODING 9609
SWIDTH 1000 0
DWIDTH 16 0
BBX 16 16 0 -2
BITMAP
FFFC
FFFC
FFFC
FFFC
FFFC
FFFC
FFFC
FFFC
FFFC
FFFC
FFFC
FFFC
FFFC
FFFC
FFFC
FFFC
ENDCHAR
STARTCHAR 258A
ENCODING 9610
SWIDTH 1000 0
DWIDTH 16 0
BBX 16 16 0 -2
BITMAP
FFF0
FFF0
FFF0
FFF0
FFF0
FFF0
FFF0
FFF0
FFF0
FFF0
FFF0
FFF0
FFF0
FFF0
FFF0
FFF0
ENDCHAR
STARTCHAR 258B
ENCODING 9611
SWIDTH 1000 0
DWIDTH 16 0
BBX 16 16 0 -2
BITMAP
FFC0
FFC0
FFC0
FFC0
FFC0
FFC0
FFC0
FFC0
FFC0
FFC0
FFC0
FFC0
FFC0
FFC0
FFC0
FFC0
ENDCHAR
STARTCHAR 258C
ENCODING 9612
SWIDTH 1000 0
DWIDTH 16 0
BBX 16 16 0 -2
BITMAP
FF00
FF00
FF00
FF00
FF00
FF00
FF00
FF00
FF00
FF00
FF00
FF00
FF00
FF00
FF00
FF00
ENDCHAR
STARTCHAR 258D
ENCODING 9613
SWIDTH 1000 0
DWIDTH 16 0
BBX 16 16 0 -2
BITMAP
FC00
FC00
FC00
FC00
FC00
FC00
FC00
FC00
FC00
FC00
FC00
FC00
FC00
FC00
FC00
FC00
ENDCHAR
STARTCHAR 258E
ENCODING 9614
SWIDTH 1000 0
DWIDTH 16 0
BBX 16 16 0 -2
BITMAP
F000
F000
F000
F000
F000
F000
F000
F000
F000
F000
F000
F000
F000
F000
F000
F000
ENDCHAR
STARTCHAR 258F
ENCODING 9615
SWIDTH 1000 0
DWIDTH 16 0
BBX 16 16 0 -2
BITMAP
C000
C000
C000
C000
C000
C000
C000
C000
C000
C000
C000
C000
C000
C000
C000
C000
ENDCHAR
STARTCHAR 2590
ENCODING 9616
SWIDTH 1000 0
DWIDTH 16 0
BBX 16 16 0 -2
BITMAP
00FF
00FF
00FF
00FF
00FF
00FF
00FF
00FF
00FF
00FF
00FF
00FF
00FF
00FF
00FF
00FF
ENDCHAR
STARTCHAR 2591
ENCODING 9617
SWIDTH 1000 0
DWIDTH 16 0
BBX 16 16 0 -2
BITMAP
AAAA
0000
AAAA
0000
AAAA
0000
AAAA
0000
AAAA
0000
AAAA
0000
AAAA
0000
AAAA
0000
ENDCHAR
STARTCHAR 2592
ENCODING 9618
SWIDTH 1000 0
DWIDTH 16 0
BBX 16 16 0 -2
BITMAP
AAAA
5555
AAAA
5555
AAAA
5555
AAAA
5555
AAAA
5555
AAAA
5555
AAAA
5555
AAAA
5555
ENDCHAR
STARTCHAR 2593
ENCODING 9619
SWIDTH 1000 0
DWIDTH 16 0
BBX 16 16 0 -2
BITMAP
FFFF
AAAA
FFFF
AAAA
FFFF
AAAA
FFFF
AAAA
FFFF
AAAA
FFFF
AAAA
FFFF
AAAA
FFFF
AAAA
ENDCHAR
STARTCHAR 2594
ENCODING 9620
SWIDTH 1000 0
DWIDTH 16 0
BBX 16 16 0 -2
BITMAP
FFFF
FFFF
0000
0000
0000
0000
0000
0000
0000
0000
0000
0000
0000
0000
0000
0000
ENDCHAR
STARTCHAR 2595
ENCODING 9621
SWIDTH 1000 0
DWIDTH 16 0
BBX 16 16 0 -2
BITMAP
0003
0003
0003
0003
0003
0003
0003
0003
0003
0003
0003
0003
0003
0003
0003
0003
ENDCHAR
STARTCHAR 2596
ENCODING 9622
SWIDTH 1000 0
DWIDTH 16 0
BBX 16 16 0 -2
BITMAP
0000
0000
0000
0000
0000
0000
0000
0000
FF00
FF00
FF00
FF00
FF00
FF00
FF00
FF00
ENDCHAR
STARTCHAR 2597
ENCODING 9623
SWIDTH 1000 0
DWIDTH 16 0
BBX 16 16 0 -2
BITMAP
0000
0000
0000
0000
0000
0000
0000
0000
00FF
00FF
00FF
00FF
00FF
00FF
00FF
00FF
ENDCHAR
STARTCHAR 2598
ENCODING 9624
SWIDTH 1000 0
DWIDTH 16 0
BBX 16 16 0 -2
BITMAP
FF00
FF00
FF00
FF00
FF00
FF00
FF00
FF00
0000
0000
0000
0000
0000
0000
0000
0000
ENDCHAR
STARTCHAR 2599
ENCODING 9625
SWIDTH 1000 0
DWIDTH 16 0
BBX 16 16 0 -2
BITMAP
FF00
FF00
FF00
FF00
FF00
FF00
FF00
FF00
FFFF
FFFF
FFFF
FFFF
FFFF
FFFF
FFFF
FFFF
ENDCHAR
STARTCHAR 259A
ENCODING 9626
SWIDTH 1000 0
DWIDTH 16 0
BBX 16 16 0 -2
BITMAP
FF00
FF00
FF00
FF00
FF00
FF00
FF00
FF00
00FF
00FF
00FF
00FF
00FF
00FF
00FF
00FF
ENDCHAR
STARTCHAR 259B
ENCODING 9627
SWIDTH 1000 0
DWIDTH 16 0
BBX 16 16 0 -2
BITMAP
FFFF
FFFF
FFFF
FFFF
FFFF
FFFF
FFFF
FFFF
FF00
FF00
FF00
FF00
FF00
FF00
FF00
FF00
ENDCHAR
STARTCHAR 259C
ENCODING 9628
SWIDTH 1000 0
DWIDTH 16 0
BBX 16 16 0 -2
BITMAP
FFFF
FFFF
FFFF
FFFF
FFFF
FFFF
FFFF
FFFF
00FF
00FF
00FF
00FF
00FF
00FF
00FF
00FF
ENDCHAR
STARTCHAR 259D
ENCODING 9629
SWIDTH 1000 0
DWIDTH 16 0
BBX 16 16 0 -2
BITMAP
00FF
00FF
00FF
00FF
00FF
00FF
00FF
00FF
0000
0000
0000
0000
0000
0000
0000
0000
ENDCHAR
STARTCHAR 259E
ENCODING 9630
SWIDTH 1000 0
DWIDTH 16 0
BBX 16 16 0 -2
BITMAP
00FF
00FF
00FF
00FF
00FF
00FF
00FF
00FF
FF00
FF00
FF00
FF00
FF00
FF00
FF00
FF00
ENDCHAR
STARTCHAR 259F
ENCODING 9631
SWIDTH 1000 0
DWIDTH 16 0
BBX 16 16 0 -2
BITMAP
00FF
00FF
00FF
00FF
00FF
00FF
00FF
00FF
FFFF
FFFF
FFFF
FFFF
FFFF
FFFF
FFFF
FFFF
ENDCHAR
STARTCHAR 25A0
ENCODING 9632
SWIDTH 1000 0
DWIDTH 16 0
BBX 16 16 0 -2
BITMAP
0000
0000
7FFC
7FFC
7FFC
7FFC
7FFC
7FFC
7FFC
7FFC
7FFC
7FFC
7FFC
7FFC
7FFC
0000
ENDCHAR
STARTCHAR 25A1
ENCODING 9633
SWIDTH 1000 0
DWIDTH 16 0
BBX 16 16 0 -2
BITMAP
0000
0000
7FFC
4004
4004
4004
4004
4004
4004
4004
4004
4004
4004
4004
7FFC
0000
ENDCHAR
STARTCHAR 25A2
ENCODING 9634
SWIDTH 1000 0
DWIDTH 16 0
BBX 16 16 0 -2
BITMAP
0000
0000
1FF0
2008
4004
4004
4004
4004
4004
4004
4004
4004
4004
2008
1FF0
0000
ENDCHAR
STARTCHAR 25A3
ENCODING 9635
SWIDTH 1000 0
DWIDTH 16 0
BBX 16 16 0 -2
BITMAP
0000
0000
7FFC
4004
4004
4FE4
4FE4
4FE4
4FE4
4FE4
4FE4
4FE4
4004
4004
7FFC
0000
ENDCHAR
STARTCHAR 25A4
ENCODING 9636
SWIDTH 1000 0
DWIDTH 16 0
BBX 16 16 0 -2
BITMAP
0000
0000
7FFC
4004
7FFC
4004
7FFC
4004
7FFC
4004
7FFC
4004
7FFC
4004
7FFC
0000
ENDCHAR
STARTCHAR 25A5
ENCODING 9637
SWIDTH 1000 0
DWIDTH 16 0
BBX 16 16 0 -2
BITMAP
0000
0000
7FFC
5554
5554
5554
5554
5554
5554
5554
5554
5554
5554
5554
7FFC
0000
ENDCHAR
STARTCHAR 25A6
ENCODING 9638
SWIDTH 1000 0
DWIDTH 16 0
BBX 16 16 0 -2
BITMAP
0000
0000
7FFC
5554
7FFC
5554
7FFC
5554
7FFC
5554
7FFC
5554
7FFC
5554
7FFC
0000
ENDCHAR
STARTCHAR 25A7
ENCODING 9639
SWIDTH 1000 0
DWIDTH 16 0
BBX 16 16 0 -2
BITMAP
0000
0000
7FFC
6494
524C
4924
6494
524C
4924
6494
524C
4924
6494
524C
7FFC
0000
ENDCHAR
STARTCHAR 25A8
ENCODING 9640
SWIDTH 1000 0
DWIDTH 16 0
BBX 16 16 0 -2
BITMAP
0000
0000
7FFC
524C
6494
4924
524C
6494
4924
524C
6494
4924
524C
6494
7FFC
0000
ENDCHAR
STARTCHAR 25A9
ENCODING 9641
SWIDTH 1000 0
DWIDTH 16 0
BBX 16 16 0 -2
BITMAP
0000
0000
7FFC
6AAC
5554
6AAC
5554
6AAC
5554
6AAC
5554
6AAC
5554
6AAC
7FFC
0000
ENDCHAR
STARTCHAR 25AA
ENCODING 9642
SWIDTH 1000 0
DWIDTH 16 0
BBX 16 16 0 -2
BITMAP
0000
0000
0000
0000
0000
0FE0
0FE0
0FE0
0FE0
0FE0
0FE0
0FE0
0000
0000
0000
0000
ENDCHAR
STARTCHAR 25AB
ENCODING 9643
SWIDTH 1000 0
DWIDTH 16 0
BBX 16 16 0 -2
BITMAP
0000
0000
0000
0000
0000
0FE0
0820
0820
0820
0820
0820
0FE0
0000
0000
0000
0000
ENDCHAR
STARTCHAR 25AC
ENCODING 9644
SWIDTH 1000 0
DWIDTH 16 0
BBX 16 16 0 -2
BITMAP
0000
0000
0000
0000
FFFE
FFFE
FFFE
FFFE
FFFE
FFFE
FFFE
FFFE
FFFE
0000
0000
0000
ENDCHAR
STARTCHAR 25AD
ENCODING 9645
SWIDTH 1000 0
DWIDTH 16 0
BBX 16 16 0 -2
BITMAP
0000
0000
0000
0000
FFFE
8002
8002
8002
8002
8002
8002
8002
FFFE
0000
0000
0000
ENDCHAR
STARTCHAR 25AE
ENCODING 9646
SWIDTH 1000 0
DWIDTH 16 0
BBX 16 16 0 -2
BITMAP
0000
1FF0
1FF0
1FF0
1FF0
1FF0
1FF0
1FF0
1FF0
1FF0
1FF0
1FF0
1FF0
1FF0
1FF0
1FF0
ENDCHAR
STARTCHAR 25AF
ENCODING 9647
SWIDTH 1000 0
DWIDTH 16 0
BBX 16 16 0 -2
BITMAP
0000
1FF0
1010
1010
1010
1010
1010
1010
1010
1010
1010
1010
1010
1010
1010
1FF0
ENDCHAR
STARTCHAR 25B0
ENCODING 9648
SWIDTH 1000 0
DWIDTH 16 0
BBX 16 16 0 -2
BITMAP
0000
0000
0000
0000
0FFE
0FFC
1FFC
1FF8
3FF8
3FF0
7FF0
7FE0
FFE0
0000
0000
0000
ENDCHAR
STARTCHAR 25B1
ENCODING 9649
SWIDTH 1000 0
DWIDTH 16 0
BBX 16 16 0 -2
BITMAP
0000
0000
0000
0000
0FFE
0804
1004
1008
2008
2010
4010
4020
FFE0
0000
0000
0000
ENDCHAR
STARTCHAR 25B2
ENCODING 9650
SWIDTH 1000 0
DWIDTH 16 0
BBX 16 16 0 -2
BITMAP
0000
0000
0100
0380
0380
07C0
07C0
0FE0
0FE0
1FF0
1FF0
3FF8
3FF8
7FFC
7FFC
0000
ENDCHAR
STARTCHAR 25B3
ENCODING 9651
SWIDTH 1000 0
DWIDTH 16 0
BBX 16 16 0 -2
BITMAP
0000
0000
0100
0280
0280
0440
0440
0820
0820
1010
1010
2008
2008
4004
7FFC
0000
ENDCHAR
STARTCHAR 25B4
ENCODING 9652
SWIDTH 1000 0
DWIDTH 16 0
BBX 16 16 0 -2
BITMAP
0000
0000
0000
0000
0000
0100
0380
0380
07C0
07C0
0FE0
0FE0
0000
0000
0000
0000
ENDCHAR
STARTCHAR 25B5
ENCODING 9653
SWIDTH 1000 0
DWIDTH 16 0
BBX 16 16 0 -2
BITMAP
0000
0000
0000
0000
0000
0100
0280
0280
0440
0440
0820
0FE0
0000
0000
0000
0000
ENDCHAR
STARTCHAR 25B6
ENCODING 9654
SWIDTH 1000 0
DWIDTH 16 0
BBX 16 16 0 -2
BITMAP
0000
0000
6000
7800
7E00
7F80
7FE0
7FF8
7FFC
7FF8
7FE0
7F80
7E00
7800
6000
0000
ENDCHAR
STARTCHAR 25B7
ENCODING 9655
SWIDTH 1000 0
DWIDTH 16 0
BBX 16 16 0 -2
BITMAP
0000
0000
6000
5800
4600
4180
4060
4018
4004
4018
4060
4180
4600
5800
6000
0000
ENDCHAR
STARTCHAR 25B8
ENCODING 9656
SWIDTH 1000 0
DWIDTH 16 0
BBX 16 16 0 -2
BITMAP
0000
0000
0000
0000
0000
0C00
0F00
0FC0
0FE0
0FC0
0F00
0C00
0000
0000
0000
0000
ENDCHAR
STARTCHAR 25B9
ENCODING 9657
SWIDTH 1000 0
DWIDTH 16 0
BBX 16 16 0 -2
BITMAP
0000
0000
0000
0000
0000
0C00
0B00
08C0
0820
08C0
0B00
0C00
0000
0000
0000
0000
ENDCHAR
STARTCHAR 25BA
ENCODING 9658
SWIDTH 1000 0
DWIDTH 16 0
BBX 16 16 0 -2
BITMAP
0000
0000
0000
0000
0000
7000
7E00
7FE0
7FFC
7FE0
7E00
7000
0000
0000
0000
0000
ENDCHAR
STARTCHAR 25BB
ENCODING 9659
SWIDTH 1000 0
DWIDTH 16 0
BBX 16 16 0 -2
BITMAP
0000
0000
0000
0000
0000
7000
4E00
41E0
401C
41E0
4E00
7000
0000
0000
0000
0000
ENDCHAR
STARTCHAR 25BC
ENCODING 9660
SWIDTH 1000 0
DWIDTH 16 0
BBX 16 16 0 -2
BITMAP
0000
0000
7FFC
7FFC
3FF8
3FF8
1FF0
1FF0
0FE0
0FE0
07C0
07C0
0380
0380
0100
0000
ENDCHAR
STARTCHAR 25BD
ENCODING 9661
SWIDTH 1000 0
DWIDTH 16 0
BBX 16 16 0 -2
BITMAP
0000
0000
7FFC
4004
2008
2008
1010
1010
0820
0820
0440
0440
0280
0280
0100
0000
ENDCHAR
STARTCHAR 25BE
ENCODING 9662
SWIDTH 1000 0
DWIDTH 16 0
BBX 16 16 0 -2
BITMAP
0000
0000
0000
0000
0000
0FE0
0FE0
07C0
07C0
0380
0380
0100
0000
0000
0000
0000
ENDCHAR
STARTCHAR 25BF
ENCODING 9663
SWIDTH 1000 0
DWIDTH 16 0
BBX 16 16 0 -2
BITMAP
0000
0000
0000
0000
0000
0FE0
0820
0440
0440
0280
0280
0100
0000
0000
0000
0000
ENDCHAR
STARTCHAR 25C0
ENCODING 9664
SWIDTH 1000 0
DWIDTH 16 0
BBX 16 16 0 -2
BITMAP
0000
0000
000C
003C
00FC
03FC
0FFC
3FFC
7FFC
3FFC
0FFC
03FC
00FC
003C
000C
0000
ENDCHAR
STARTCHAR 25C1
ENCODING 9665
SWIDTH 1000 0
DWIDTH 16 0
BBX 16 16 0 -2
BITMAP
0000
0000
000C
0034
00C4
0304
0C04
3004
4004
3004
0C04
0304
00C4
0034
000C
0000
ENDCHAR
STARTCHAR 25C2
ENCODING 9666
SWIDTH 1000 0
DWIDTH 16 0
BBX 16 16 0 -2
BITMAP
0000
0000
0000
0000
0000
0060
01E0
07E0
0FE0
07E0
01E0
0060
0000
0000
0000
0000
ENDCHAR
STARTCHAR 25C3
ENCODING 9667
SWIDTH 1000 0
DWIDTH 16 0
BBX 16 16 0 -2
BITMAP
0000
0000
0000
0000
0000
0060
01A0
0620
0820
0620
01A0
0060
0000
0000
0000
0000
ENDCHAR
STARTCHAR 25C4
ENCODING 9668
SWIDTH 1000 0
DWIDTH 16 0
BBX 16 16 0 -2
BITMAP
0000
0000
0000
0000
0000
001C
00FC
0FFC
7FFC
0FFC
00FC
001C
0000
0000
0000
0000
ENDCHAR
STARTCHAR 25C5
ENCODING 9669
SWIDTH 1000 0
DWIDTH 16 0
BBX 16 16 0 -2
BITMAP
0000
0000
0000
0000
0000
001C
00E4
0F04
7004
0F04
00E4
001C
0000
0000
0000
0000
ENDCHAR
STARTCHAR 25C6
ENCODING 9670
SWIDTH 1000 0
DWIDTH 16 0
BBX 16 16 0 -2
BITMAP
0000
0100
0380
07C0
0FE0
1FF0
3FF8
7FFC
FFFE
7FFC
3FF8
1FF0
0FE0
07C0
0380
0100
ENDCHAR
STARTCHAR 25C7
ENCODING 9671
SWIDTH 1000 0
DWIDTH 16 0
BBX 16 16 0 -2
BITMAP
0000
0100
0280
0440
0820
1010
2008
4004
8002
4004
2008
1010
0820
0440
0280
0100
ENDCHAR
STARTCHAR 25C8
ENCODING 9672
SWIDTH 1000 0
DWIDTH 16 0
BBX 16 16 0 -2
BITMAP
0000
0100
0280
0440
0920
1390
27C8
4FE4
9FF2
4FE4
27C8
1390
0920
0440
0280
0100
ENDCHAR
STARTCHAR 25C9
ENCODING 9673
SWIDTH 1000 0
DWIDTH 16 0
BBX 16 16 0 -2
BITMAP
0000
0000
0380
0C60
1010
2388
27C8
4FE4
4FE4
4FE4
27C8
2388
1010
0C60
0380
0000
ENDCHAR
STARTCHAR 25CA
ENCODING 9674
SWIDTH 1000 0
DWIDTH 16 0
BBX 16 16 0 -2
BITMAP
0000
0100
0280
0440
0440
0820
1010
1010
2008
1010
1010
0820
0440
0440
0280
0100
ENDCHAR
STARTCHAR 25CB
ENCODING 9675
SWIDTH 1000 0
DWIDTH 16 0
BBX 16 16 0 -2
BITMAP
0000
0000
0380
0C60
1010
2008
2008
4004
4004
4004
2008
2008
1010
0C60
0380
0000
ENDCHAR
STARTCHAR 25CC
ENCODING 9676
SWIDTH 1000 0
DWIDTH 16 0
BBX 16 16 0 -2
BITMAP
0000
0000
0280
0820
0000
2008
0000
4004
0000
4004
0000
2008
0000
0820
0280
0000
ENDCHAR
STARTCHAR 25CD
ENCODING 9677
SWIDTH 1000 0
DWIDTH 16 0
BBX 16 16 0 -2
BITMAP
0000
0000
0380
0D60
1550
3558
3558
5554
5554
5554
3558
3558
1550
0D60
0380
0000
ENDCHAR
STARTCHAR 25CE
ENCODING 9678
SWIDTH 1000 0
DWIDTH 16 0
BBX 16 16 0 -2
BITMAP
0000
0000
0380
0C60
1010
2388
2448
4824
4824
4824
2448
2388
1010
0C60
0380
0000
ENDCHAR
STARTCHAR 25CF
ENCODING 9679
SWIDTH 1000 0
DWIDTH 16 0
BBX 16 16 0 -2
BITMAP
0000
0000
0380
0FE0
1FF0
3FF8
3FF8
7FFC
7FFC
7FFC
3FF8
3FF8
1FF0
0FE0
0380
0000
ENDCHAR
STARTCHAR 25D0
ENCODING 9680
SWIDTH 1000 0
DWIDTH 16 0
BBX 16 16 0 -2
BITMAP
0000
0000
0380
0F60
1F10
3F08
3F08
7F04
7F04
7F04
3F08
3F08
1F10
0F60
0380
0000
ENDCHAR
STARTCHAR 25D1
ENCODING 9681
SWIDTH 1000 0
DWIDTH 16 0
BBX 16 16 0 -2
BITMAP
0000
0000
0380
0DE0
11F0
21F8
21F8
41FC
41FC
41FC
21F8
21F8
11F0
0DE0
0380
0000
ENDCHAR
STARTCHAR 25D2
ENCODING 9682
SWIDTH 1000 0
DWIDTH 16 0
BBX 16 16 0 -2
BITMAP
0000
0000
0380
0C60
1010
2008
2008
4004
7FFC
7FFC
3FF8
3FF8
1FF0
0FE0
0380
0000
ENDCHAR
STARTCHAR 25D3
ENCODING 9683
SWIDTH 1000 0
DWIDTH 16 0
BBX 16 16 0 -2
BITMAP
0000
0000
0380
0FE0
1FF0
3FF8
3FF8
7FFC
7FFC
4004
2008
2008
1010
0C60
0380
0000
ENDCHAR
STARTCHAR 25D4
ENCODING 9684
SWIDTH 1000 0
DWIDTH 16 0
BBX 16 16 0 -2
BITMAP
0000
0000
0380
0DE0
11F0
21F8
21F8
41FC
41FC
4004
2008
2008
1010
0C60
0380
0000
ENDCHAR
STARTCHAR 25D5
ENCODING 9685
SWIDTH 1000 0
DWIDTH 16 0
BBX 16 16 0 -2
BITMAP
0000
0000
0380
0DE0
11F0
21F8
21F8
41FC
7FFC
7FFC
3FF8
3FF8
1FF0
0FE0
0380
0000
ENDCHAR
STARTCHAR 25D6
ENCODING 9686
SWIDTH 1000 0
DWIDTH 16 0
BBX 16 16 0 -2
BITMAP
0000
0000
0300
0F00
1F00
3F00
3F00
7F00
7F00
7F00
3F00
3F00
1F00
0F00
0300
0000
ENDCHAR
STARTCHAR 25D7
ENCODING 9687
SWIDTH 1000 0
DWIDTH 16 0
BBX 16 16 0 -2
BITMAP
0000
0000
0180
01E0
01F0
01F8
01F8
01FC
01FC
01FC
01F8
01F8
01F0
01E0
0180
0000
ENDCHAR
STARTCHAR 25D8
ENCODING 9688
SWIDTH 1000 0
DWIDTH 16 0
BBX 16 16 0 -2
BITMAP
0000
FFFE
FFFE
FFFE
FFFE
FFFE
FC7E
FBBE
FBBE
FBBE
FC7E
FFFE
FFFE
FFFE
FFFE
FFFE
ENDCHAR
STARTCHAR 25D9
ENCODING 9689
SWIDTH 1000 0
DWIDTH 16 0
BBX 16 16 0 -2
BITMAP
0000
FFFE
FC7E
F39E
EFEE
DFF6
DFF6
BFFA
BFFA
BFFA
DFF6
DFF6
EFEE
F39E
FC7E
FFFE
ENDCHAR
STARTCHAR 25DA
ENCODING 9690
SWIDTH 1000 0
DWIDTH 16 0
BBX 16 16 0 -2
BITMAP
0000
FFFE
FC7E
F39E
EFEE
DFF6
DFF6
BFFA
BFFA
0000
0000
0000
0000
0000
0000
0000
ENDCHAR
STARTCHAR 25DB
ENCODING 9691
SWIDTH 1000 0
DWIDTH 16 0
BBX 16 16 0 -2
BITMAP
0000
0000
0000
0000
0000
0000
0000
0000
BFFA
BFFA
DFF6
DFF6
EFEE
F39E
FC7E
FFFE
ENDCHAR
STARTCHAR 25DC
ENCODING 9692
SWIDTH 1000 0
DWIDTH 16 0
BBX 16 16 0 -2
BITMAP
0000
0000
0300
0C00
1000
2000
2000
4000
4000
0000
0000
0000
0000
0000
0000
0000
ENDCHAR
STARTCHAR 25DD
ENCODING 9693
SWIDTH 1000 0
DWIDTH 16 0
BBX 16 16 0 -2
BITMAP
0000
0000
0180
0060
0010
0008
0008
0004
0004
0000
0000
0000
0000
0000
0000
0000
ENDCHAR
STARTCHAR 25DE
ENCODING 9694
SWIDTH 1000 0
DWIDTH 16 0
BBX 16 16 0 -2
BITMAP
0000
0000
0000
0000
0000
0000
0000
0000
0004
0004
0008
0008
0010
0060
0180
0000
ENDCHAR
STARTCHAR 25DF
ENCODING 9695
SWIDTH 1000 0
DWIDTH 16 0
BBX 16 16 0 -2
BITMAP
0000
0000
0000
0000
0000
0000
0000
0000
4000
4000
2000
2000
1000
0C00
0300
0000
ENDCHAR
STARTCHAR 25E0
ENCODING 9696
SWIDTH 1000 0
DWIDTH 16 0
BBX 16 16 0 -2
BITMAP
0000
0000
0380
0C60
1010
2008
2008
4004
4004
0000
0000
0000
0000
0000
0000
0000
ENDCHAR
STARTCHAR 25E1
ENCODING 9697
SWIDTH 1000 0
DWIDTH 16 0
BBX 16 16 0 -2
BITMAP
0000
0000
0000
0000
0000
0000
0000
0000
4004
4004
2008
2008
1010
0C60
0380
0000
ENDCHAR
STARTCHAR 25E2
ENCODING 9698
SWIDTH 1000 0
DWIDTH 16 0
BBX 16 16 0 -2
BITMAP
0000
0000
0004
000C
001C
003C
007C
00FC
01FC
03FC
07FC
0FFC
1FFC
3FFC
7FFC
0000
ENDCHAR
STARTCHAR 25E3
ENCODING 9699
SWIDTH 1000 0
DWIDTH 16 0
BBX 16 16 0 -2
BITMAP
0000
0000
4000
6000
7000
7800
7C00
7E00
7F00
7F80
7FC0
7FE0
7FF0
7FF8
7FFC
0000
ENDCHAR
STARTCHAR 25E4
ENCODING 9700
SWIDTH 1000 0
DWIDTH 16 0
BBX 16 16 0 -2
BITMAP
0000
0000
7FFC
7FF8
7FF0
7FE0
7FC0
7F80
7F00
7E00
7C00
7800
7000
6000
4000
0000
ENDCHAR
STARTCHAR 25E5
ENCODING 9701
SWIDTH 1000 0
DWIDTH 16 0
BBX 16 16 0 -2
BITMAP
0000
0000
7FFC
3FFC
1FFC
0FFC
07FC
03FC
01FC
00FC
007C
003C
001C
000C
0004
0000
ENDCHAR
STARTCHAR 25E6
ENCODING 9702
SWIDTH 1000 0
DWIDTH 16 0
BBX 16 16 0 -2
BITMAP
0000
0000
0000
0000
0000
0000
0380
0440
0440
0440
0380
0000
0000
0000
0000
0000
ENDCHAR
STARTCHAR 25E7
ENCODING 9703
SWIDTH 1000 0
DWIDTH 16 0
BBX 16 16 0 -2
BITMAP
0000
0000
7FFC
7F04
7F04
7F04
7F04
7F04
7F04
7F04
7F04
7F04
7F04
7F04
7FFC
0000
ENDCHAR
STARTCHAR 25E8
ENCODING 9704
SWIDTH 1000 0
DWIDTH 16 0
BBX 16 16 0 -2
BITMAP
0000
0000
7FFC
41FC
41FC
41FC
41FC
41FC
41FC
41FC
41FC
41FC
41FC
41FC
7FFC
0000
ENDCHAR
STARTCHAR 25E9
ENCODING 9705
SWIDTH 1000 0
DWIDTH 16 0
BBX 16 16 0 -2
BITMAP
0000
0000
7FFC
7FFC
7FF4
7FE4
7FC4
7F84
7F04
7E04
7C04
7804
7004
6004
7FFC
0000
ENDCHAR
STARTCHAR 25EA
ENCODING 9706
SWIDTH 1000 0
DWIDTH 16 0
BBX 16 16 0 -2
BITMAP
0000
0000
7FFC
400C
401C
403C
407C
40FC
41FC
43FC
47FC
4FFC
5FFC
7FFC
7FFC
0000
ENDCHAR
STARTCHAR 25EB
ENCODING 9707
SWIDTH 1000 0
DWIDTH 16 0
BBX 16 16 0 -2
BITMAP
0000
0000
7FFC
4104
4104
4104
4104
4104
4104
4104
4104
4104
4104
4104
7FFC
0000
ENDCHAR
STARTCHAR 25EC
ENCODING 9708
SWIDTH 1000 0
DWIDTH 16 0
BBX 16 16 0 -2
BITMAP
0000
0000
0100
0280
0280
0440
0440
0820
0820
1110
1390
2108
2008
4004
7FFC
0000
ENDCHAR
STARTCHAR 25ED
ENCODING 9709
SWIDTH 1000 0
DWIDTH 16 0
BBX 16 16 0 -2
BITMAP
0000
0000
0100
0380
0380
0740
0740
0F20
0F20
1F10
1F10
3F08
3F08
7F04
7FFC
0000
ENDCHAR
STARTCHAR 25EE
ENCODING 9710
SWIDTH 1000 0
DWIDTH 16 0
BBX 16 16 0 -2
BITMAP
0000
0000
0100
0380
0380
05C0
05C0
09E0
09E0
11F0
11F0
21F8
21F8
41FC
7FFC
0000
ENDCHAR
STARTCHAR 25EF
ENCODING 9711
SWIDTH 1000 0
DWIDTH 16 0
BBX 16 16 0 -2
BITMAP
0000
07C0
1830
2008
4004
4004
8002
8002
8002
8002
8002
4004
4004
2008
1830
07C0
ENDCHAR
STARTCHAR 25F0
ENCODING 9712
SWIDTH 1000 0
DWIDTH 16 0
BBX 16 16 0 -2
BITMAP
0000
0000
7FFC
4104
4104
4104
4104
4104
7F04
4004
4004
4004
4004
4004
7FFC
0000
ENDCHAR
STARTCHAR 25F1
ENCODING 9713
SWIDTH 1000 0
DWIDTH 16 0
BBX 16 16 0 -2
BITMAP
0000
0000
7FFC
4004
4004
4004
4004
4004
7F04
4104
4104
4104
4104
4104
7FFC
0000
ENDCHAR
STARTCHAR 25F2
ENCODING 9714
SWIDTH 1000 0
DWIDTH 16 0
BBX 16 16 0 -2
BITMAP
0000
0000
7FFC
4004
4004
4004
4004
4004
41FC
4104
4104
4104
4104
4104
7FFC
0000
ENDCHAR
STARTCHAR 25F3
ENCODING 9715
SWIDTH 1000 0
DWIDTH 16 0
BBX 16 16 0 -2
BITMAP
0000
0000
7FFC
4104
4104
4104
4104
4104
41FC
4004
4004
4004
4004
4004
7FFC
0000
ENDCHAR
STARTCHAR 25F4
ENCODING 9716
SWIDTH 1000 0
DWIDTH 16 0
BBX 16 16 0 -2
BITMAP
0000
0000
0380
0D60
1110
2108
2108
4104
7F04
4004
2008
2008
1010
0C60
0380
0000
ENDCHAR
STARTCHAR 25F5
ENCODING 9717
SWIDTH 1000 0
DWIDTH 16 0
BBX 16 16 0 -2
BITMAP
0000
0000
0380
0C60
1010
2008
2008
4004
7F04
4104
2108
2108
1110
0D60
0380
0000
ENDCHAR
STARTCHAR 25F6
ENCODING 9718
SWIDTH 1000 0
DWIDTH 16 0
BBX 16 16 0 -2
BITMAP
0000
0000
0380
0C60
1010
2008
2008
4004
41FC
4104
2108
2108
1110
0D60
0380
0000
ENDCHAR
STARTCHAR 25F7
ENCODING 9719
SWIDTH 1000 0
DWIDTH 16 0
BBX 16 16 0 -2
BITMAP
0000
0000
0380
0D60
1110
2108
2108
4104
41FC
4004
2008
2008
1010
0C60
0380
0000
ENDCHAR
STARTCHAR 25F8
ENCODING 9720
SWIDTH 1000 0
DWIDTH 16 0
BBX 16 16 0 -2
BITMAP
0000
0000
7FFC
4008
4010
4020
4040
4080
4100
4200
4400
4800
5000
6000
4000
0000
ENDCHAR
STARTCHAR 25F9
ENCODING 9721
SWIDTH 1000 0
DWIDTH 16 0
BBX 16 16 0 -2
BITMAP
0000
0000
7FFC
2004
1004
0804
0404
0204
0104
0084
0044
0024
0014
000C
0004
0000
ENDCHAR
STARTCHAR 25FA
ENCODING 9722
SWIDTH 1000 0
DWIDTH 16 0
BBX 16 16 0 -2
BITMAP
0000
0000
4000
6000
5000
4800
4400
4200
4100
4080
4040
4020
4010
4008
7FFC
0000
ENDCHAR
STARTCHAR 25FB
ENCODING 9723
SWIDTH 1000 0
DWIDTH 16 0
BBX 16 16 0 -2
BITMAP
0000
0000
0000
3FF8
2008
2008
2008
2008
2008
2008
2008
2008
2008
3FF8
0000
0000
ENDCHAR
STARTCHAR 25FC
ENCODING 9724
SWIDTH 1000 0
DWIDTH 16 0
BBX 16 16 0 -2
BITMAP
0000
0000
0000
3FF8
3FF8
3FF8
3FF8
3FF8
3FF8
3FF8
3FF8
3FF8
3FF8
3FF8
0000
0000
ENDCHAR
STARTCHAR 25FD
ENCODING 9725
SWIDTH 1000 0
DWIDTH 16 0
BBX 16 16 0 -2
BITMAP
0000
0000
0000
0000
1FF0
1010
1010
1010
1010
1010
1010
1010
1FF0
0000
0000
0000
ENDCHAR
STARTCHAR 25FE
ENCODING 9726
SWIDTH 1000 0
DWIDTH 16 0
BBX 16 16 0 -2
BITMAP
0000
0000
0000
0000
1FF0
1FF0
1FF0
1FF0
1FF0
1FF0
1FF0
1FF0
1FF0
0000
0000
0000
ENDCHAR
STARTCHAR 25FF
ENCODING 9727
SWIDTH 1000 0
DWIDTH 16 0
BBX 16 16 0 -2
BITMAP
0000
0000
0004
000C
0014
0024
0044
0084
0104
0204
0404
0804
1004
2004
7FFC
0000
ENDCHAR
STARTCHAR 2600
ENCODING 9728
SWIDTH 1000 0
DWIDTH 16 0
BBX 16 16 0 -2
BITMAP
0000
0000
0100
2108
1010
0380
07C0
0FE0
6FEC
0FE0
07C0
0380
1010
2108
0100
0000
ENDCHAR
STARTCHAR 2601
ENCODING 9729
SWIDTH 1000 0
DWIDTH 16 0
BBX 16 16 0 -2
BITMAP
0000
0000
07E0
0810
1008
1008
1C08
2014
4002
8002
8002
8002
8022
41C4
3E38
0000
ENDCHAR
STARTCHAR 2602
ENCODING 9730
SWIDTH 1000 0
DWIDTH 16 0
BBX 16 16 0 -2
BITMAP
0000
0100
0FE0
3FF8
7FFC
FFFE
FFFE
9112
0100
0100
0100
0100
0100
0900
0900
0600
ENDCHAR
STARTCHAR 2603
ENCODING 9731
SWIDTH 1000 0
DWIDTH 16 0
BBX 16 16 0 -2
BITMAP
0000
4FE4
0FE0
BFFA
0820
1010
5454
1010
1FF0
2FE8
A60A
2608
2608
2008
1010
0FE0
ENDCHAR
STARTCHAR 2604
ENCODING 9732
SWIDTH 1000 0
DWIDTH 16 0
BBX 16 16 0 -2
BITMAP
0000
0100
0104
0208
0210
0420
0440
0880
0106
1C18
2260
4280
4200
4400
3800
0000
ENDCHAR
STARTCHAR 2605
ENCODING 9733
SWIDTH 1000 0
DWIDTH 16 0
BBX 16 16 0 -2
BITMAP
0000
0100
0100
0380
0380
0380
07C0
FFFE
7FFC
3FF8
0FE0
0FE0
1FF0
1EF0
1830
2008
ENDCHAR
STARTCHAR 2606
ENCODING 9734
SWIDTH 1000 0
DWIDTH 16 0
BBX 16 16 0 -2
BITMAP
0000
0100
0100
0280
0280
0280
0440
FC7E
4004
3018
0820
0820
1110
16D0
1830
2008
ENDCHAR
STARTCHAR 2607
ENCODING 9735
SWIDTH 1000 0
DWIDTH 16 0
BBX 16 16 0 -2
BITMAP
0000
0000
0040
0080
0100
0200
0400
0800
0800
0400
0200
0120
00A0
0060
01E0
0000
ENDCHAR
STARTCHAR 2608
ENCODING 9736
SWIDTH 1000 0
DWIDTH 16 0
BBX 16 16 0 -2
BITMAP
0000
0000
1FF0
1010
1020
1040
1080
1100
1200
1200
1100
1090
1050
1030
10F0
0000
ENDCHAR
STARTCHAR 2609
ENCODING 9737
SWIDTH 1000 0
DWIDTH 16 0
BBX 16 16 0 -2
BITMAP
0000
0000
0380
0C60
1010
2008
2008
4004
4104
4004
2008
2008
1010
0C60
0380
0000
ENDCHAR
STARTCHAR 260A
ENCODING 9738
SWIDTH 1000 0
DWIDTH 16 0
BBX 16 16 0 -2
BITMAP
0000
0000
1FF0
2008
4004
4004
4004
4004
2008
1010
3838
4444
4444
4444
3838
0000
ENDCHAR
STARTCHAR 260B
ENCODING 9739
SWIDTH 1000 0
DWIDTH 16 0
BBX 16 16 0 -2
BITMAP
0000
0000
3838
4444
4444
4444
3838
1010
2008
4004
4004
4004
4004
2008
1FF0
0000
ENDCHAR
STARTCHAR 260C
ENCODING 9740
SWIDTH 1000 0
DWIDTH 16 0
BBX 16 16 0 -2
BITMAP
0000
0000
0004
0008
0010
0020
0040
1E80
2100
4080
4080
4080
4080
2100
1E00
0000
ENDCHAR
STARTCHAR 260D
ENCODING 9741
SWIDTH 1000 0
DWIDTH 16 0
BBX 16 16 0 -2
BITMAP
0000
0038
0044
0082
0082
0082
0044
00B8
0100
3A00
4400
8200
8200
8200
4400
3800
ENDCHAR
STARTCHAR 260E
ENCODING 9742
SWIDTH 1000 0
DWIDTH 16 0
BBX 16 16 0 -2
BITMAP
0000
0000
1FF0
7FFC
FFFE
F45E
F7DE
E7CE
0FE0
1C70
3838
783C
7C7C
7FFC
3FF8
0000
ENDCHAR
STARTCHAR 260F
ENCODING 9743
SWIDTH 1000 0
DWIDTH 16 0
BBX 16 16 0 -2
BITMAP
0000
0000
1FF0
600C
8002
8FE2
9BB2
E82E
0820
1390
2448
4444
4384
4004
3FF8
0000
ENDCHAR
STARTCHAR 2610
ENCODING 9744
SWIDTH 1000 0
DWIDTH 16 0
BBX 16 16 0 -2
BITMAP
0000
0000
7FFC
4004
4004
4004
4004
4004
4004
4004
4004
4004
4004
4004
7FFC
0000
ENDCHAR
STARTCHAR 2611
ENCODING 9745
SWIDTH 1000 0
DWIDTH 16 0
BBX 16 16 0 -2
BITMAP
0000
0000
7FFC
4004
4004
4014
4024
4044
4044
5084
4904
4504
4204
4004
7FFC
0000
ENDCHAR
STARTCHAR 2612
ENCODING 9746
SWIDTH 1000 0
DWIDTH 16 0
BBX 16 16 0 -2
BITMAP
0000
0000
7FFC
4004
4004
4824
4444
4284
4104
4284
4444
4824
4004
4004
7FFC
0000
ENDCHAR
STARTCHAR 2613
ENCODING 9747
SWIDTH 1000 0
DWIDTH 16 0
BBX 16 16 0 -2
BITMAP
0000
0000
0000
2008
1010
0820
0440
0280
0100
0280
0440
0820
1010
2008
0000
0000
ENDCHAR
STARTCHAR 2614
ENCODING 9748
SWIDTH 1000 0
DWIDTH 16 0
BBX 16 16 0 -2
BITMAP
0000
4444
1010
0100
8FE2
3FF8
7FFC
FFFE
FFFE
9112
0100
0100
0100
0900
0900
0600
ENDCHAR
STARTCHAR 2616
ENCODING 9750
SWIDTH 1000 0
DWIDTH 16 0
BBX 16 16 0 -2
BITMAP
0000
0000
0100
0280
0440
0820
1010
2008
2008
2008
2008
2008
2008
2008
3FF8
0000
ENDCHAR
STARTCHAR 2617
ENCODING 9751
SWIDTH 1000 0
DWIDTH 16 0
BBX 16 16 0 -2
BITMAP
0000
0000
0100
0380
07C0
0FE0
1FF0
3FF8
3FF8
3FF8
3FF8
3FF8
3FF8
3FF8
3FF8
0000
ENDCHAR
STARTCHAR 261C
ENCODING 9756
SWIDTH 1000 0
DWIDTH 16 0
BBX 16 16 0 -2
BITMAP
0000
0000
0000
0000
7FE0
881C
790A
1A8A
176A
088A
078A
045C
03E0
0000
0000
0000
ENDCHAR
STARTCHAR 261D
ENCODING 9757
SWIDTH 1000 0
DWIDTH 16 0
BBX 16 16 0 -2
BITMAP
0000
0020
0050
0050
01D0
02F0
0D10
1590
1550
1690
1910
1110
0820
0FE0
0820
07C0
ENDCHAR
STARTCHAR 261E
ENCODING 9758
SWIDTH 1000 0
DWIDTH 16 0
BBX 16 16 0 -2
BITMAP
0000
0000
0000
0000
0FFC
7022
A13C
A2B0
ADD0
A220
A3C0
7440
0F80
0000
0000
0000
ENDCHAR
STARTCHAR 261F
ENCODING 9759
SWIDTH 1000 0
DWIDTH 16 0
BBX 16 16 0 -2
BITMAP
0000
07C0
0820
0FE0
0820
1110
1910
1690
1550
1590
0D10
02F0
01D0
0050
0050
0020
ENDCHAR
ENDFONT
